<svg xmlns="http://www.w3.org/2000/svg" viewBox="0 0 1600 1600" version="1.1"><path d="M 1 800 L 1 1599 800 1599 L 1599 1599 1599 800 L 1599 1 800 1 L 1 1 1 800 M 956.500 269.947 C 950.863 271.451, 948.104 272.911, 944.149 276.485 C 933.760 285.871, 933.020 301.865, 942.466 312.870 C 945.470 316.370, 951.600 320, 954.505 320 C 958.319 320, 959.381 324.032, 961.619 347 C 961.913 350.025, 962.546 353.400, 963.025 354.500 C 963.504 355.600, 964.080 358.525, 964.306 361 C 964.873 367.229, 967.764 389.215, 968.988 396.615 C 970.465 405.539, 970.308 411, 968.575 411 C 966.325 411, 959.048 419.054, 956.829 424 C 955.201 427.631, 954.893 429.988, 955.237 436.204 C 955.740 445.278, 958.459 450.137, 965.946 455.337 C 970.207 458.297, 971.059 458.500, 979.206 458.500 C 986.507 458.500, 988.623 458.113, 992.310 456.101 L 996.707 453.702 1001.103 456.871 C 1003.521 458.614, 1007.525 461.577, 1010 463.456 C 1012.475 465.335, 1016.298 468.139, 1018.496 469.686 C 1020.693 471.234, 1025.119 474.525, 1028.329 477 C 1031.540 479.475, 1035.152 482.175, 1036.354 483 C 1037.557 483.825, 1041.171 486.525, 1044.386 489 C 1047.600 491.475, 1051.209 494.175, 1052.404 495 C 1056.969 498.150, 1062.605 502.482, 1065.207 504.839 C 1067.446 506.868, 1067.730 507.637, 1066.847 509.286 C 1065.802 511.238, 1066.173 520.490, 1067.457 524.500 C 1067.972 526.108, 1066.989 527.285, 1062.447 530.500 C 1059.339 532.700, 1055.083 535.850, 1052.989 537.500 C 1042.339 545.891, 1036.545 550.371, 1026.500 557.981 C 1020.450 562.565, 1013.935 567.594, 1012.022 569.157 C 1007.977 572.463, 1006.536 572.623, 1001.904 570.276 C 1000.032 569.327, 996.250 568.315, 993.500 568.026 L 988.500 567.500 988 528 C 987.464 485.629, 987.501 485.917, 982.098 482.070 C 976.814 478.308, 968.175 480.273, 965.707 485.798 C 964.797 487.835, 964.430 513.016, 964.214 588.177 L 963.927 687.854 968.214 690.707 C 970.571 692.277, 973.850 694.206, 975.500 694.995 C 977.150 695.783, 979.694 697.232, 981.154 698.214 C 982.614 699.196, 984.752 700, 985.904 700 C 987.997 700, 988 699.948, 988 659.617 L 988 619.233 990.250 618.630 C 991.487 618.299, 993.971 618.021, 995.768 618.014 C 997.566 618.006, 1001.294 616.820, 1004.054 615.377 L 1009.071 612.753 1016.285 617.529 C 1020.253 620.156, 1023.650 622.686, 1023.833 623.152 C 1024.017 623.619, 1024.651 624, 1025.242 624 C 1025.834 624, 1028.609 625.705, 1031.409 627.788 C 1035.925 631.148, 1045.597 637.717, 1050.128 640.500 C 1051.023 641.050, 1054.981 643.750, 1058.923 646.500 L 1066.091 651.500 1066.291 661.944 L 1066.492 672.387 1045.851 688.944 C 1034.499 698.050, 1023.052 707.413, 1020.414 709.750 C 1017.777 712.087, 1015.254 714, 1014.809 714 C 1013.149 714, 1014.079 716.570, 1016.250 717.981 C 1020.083 720.472, 1023.178 722, 1024.389 722 C 1025.027 722, 1031.163 717.454, 1038.024 711.898 C 1044.886 706.342, 1054.550 698.513, 1059.500 694.500 C 1064.450 690.487, 1069.591 686.032, 1070.924 684.602 C 1073.836 681.477, 1075.821 681.358, 1081 684 C 1086.351 686.730, 1097.075 686.749, 1102.685 684.038 C 1104.919 682.959, 1108.762 679.835, 1111.224 677.095 C 1123.191 663.786, 1117.655 642.522, 1100.528 636.011 L 1097.980 635.042 1098.240 588.348 L 1098.500 541.654 1103.128 539.077 C 1109.140 535.729, 1110.801 534.275, 1113.504 529.994 C 1117.950 522.951, 1118.536 511.473, 1114.789 504.803 C 1107.324 491.511, 1093.556 486.680, 1080.775 492.867 C 1076.016 495.171, 1072.488 495.598, 1071.494 493.991 C 1070.954 493.116, 1060.804 485.424, 1047.500 475.806 C 1031.553 464.278, 1022.003 457.337, 1019 455.090 C 1017.075 453.650, 1013.609 451.194, 1011.297 449.633 C 1005.483 445.705, 1003.856 442.989, 1004.976 439.083 C 1005.467 437.370, 1005.613 434.391, 1005.300 432.462 C 1004.432 427.112, 1005.349 426.355, 1026.500 414.960 C 1030.900 412.590, 1036.179 409.604, 1038.230 408.325 C 1040.282 407.046, 1042.174 406, 1042.436 406 C 1042.698 406, 1045.294 404.591, 1048.206 402.869 C 1061.124 395.229, 1071.150 390, 1072.880 390 C 1073.911 390, 1075.308 390.666, 1075.983 391.479 C 1077.681 393.525, 1081.985 395.557, 1087.685 397.004 C 1097.186 399.415, 1107.904 394.121, 1113.788 384.113 C 1116.086 380.204, 1116.500 378.355, 1116.500 372 C 1116.500 363.160, 1114.881 359.117, 1108.981 353.216 C 1104.118 348.353, 1096.126 345.452, 1089.894 346.287 C 1087.623 346.592, 1082.806 348.298, 1079.190 350.078 C 1072.654 353.296, 1072.596 353.304, 1069.557 351.513 C 1067.876 350.522, 1062 347.157, 1056.500 344.036 C 1047.011 338.651, 1045.016 337.501, 1035.500 331.931 C 1033.300 330.643, 1031.273 329.344, 1030.996 329.045 C 1030.718 328.745, 1027.568 326.967, 1023.996 325.093 C 1020.423 323.219, 1014.881 319.957, 1011.679 317.843 C 1008.478 315.729, 1005.215 314, 1004.429 314 C 1003.643 314, 1003 313.559, 1003 313.020 C 1003 312.482, 1001.087 311.070, 998.750 309.883 C 996.413 308.697, 992.605 306.429, 990.290 304.842 L 986.079 301.958 986.664 295.697 C 987.135 290.656, 986.851 288.563, 985.208 284.957 C 982.916 279.926, 975.450 272, 973.003 272 C 972.121 272, 970.972 271.596, 970.450 271.102 C 969.048 269.776, 959.960 269.024, 956.500 269.947 M 681.500 271 L 636.500 271.500 629.618 275 C 622.440 278.650, 617.874 283.257, 614.200 290.554 C 612.039 294.848, 609.758 305.438, 610.042 309.860 C 610.135 311.312, 610.164 313.905, 610.106 315.622 L 610 318.743 599.250 319.228 C 593.337 319.495, 587.150 320.324, 585.500 321.070 C 579.984 323.566, 570.800 331.247, 567.940 335.755 C 562.368 344.541, 562 348.828, 562 404.879 L 562 455.864 564.750 457.757 C 569.412 460.967, 583.847 469, 584.953 469 C 585.670 469, 586 450.614, 586 410.648 L 586 352.296 588.280 348.912 C 591.533 344.086, 594.392 342.946, 602.500 343.243 L 609.500 343.500 609.757 413.633 C 609.956 468.066, 610.292 483.996, 611.257 484.790 C 614.760 487.676, 630.453 496, 632.390 496 L 634.623 496 634.445 400.386 C 634.257 299.150, 634.146 301.791, 638.743 297.796 C 639.709 296.956, 641.625 296.003, 643 295.678 C 644.375 295.354, 704.225 295.025, 776 294.948 C 922.366 294.790, 910.518 295.446, 913.619 287.328 C 916.648 279.396, 912.978 272.760, 904.598 271.020 C 899.183 269.896, 781.800 269.886, 681.500 271 M 974.664 318.074 C 970.927 320.421, 970 321.495, 970.582 322.805 C 970.996 323.737, 971.485 326.929, 971.669 329.899 C 971.852 332.868, 972.411 335.793, 972.910 336.399 C 973.410 337.004, 974.084 341.100, 974.409 345.500 C 974.734 349.900, 975.463 356.650, 976.028 360.500 C 976.594 364.350, 977.481 371.325, 978 376 C 981.566 408.138, 981.568 408.146, 986.037 409.526 C 991.057 411.077, 995.381 413.269, 996.300 414.729 C 997.470 416.589, 1001.134 416.242, 1004 414 C 1005.375 412.924, 1006.818 412.034, 1007.206 412.022 C 1007.594 412.010, 1010.294 410.587, 1013.206 408.860 C 1021.526 403.926, 1038.257 394.545, 1058 383.744 C 1065.838 379.456, 1065.724 379.615, 1066.237 372.223 C 1066.700 365.555, 1065.886 362, 1063.895 362 C 1063.326 362, 1060.898 360.650, 1058.500 359 C 1056.102 357.350, 1053.952 356, 1053.723 356 C 1053.494 356, 1049.526 353.750, 1044.904 351.001 C 1040.282 348.251, 1035.993 346.001, 1035.372 346.001 C 1034.752 346, 1033.634 345.264, 1032.887 344.363 C 1032.140 343.463, 1029.497 341.856, 1027.014 340.792 C 1024.531 339.728, 1021.825 338.251, 1021 337.509 C 1020.175 336.768, 1016.746 334.663, 1013.380 332.831 C 1010.015 330.999, 1003.770 327.363, 999.504 324.750 C 995.237 322.137, 991.155 320, 990.432 320 C 989.709 320, 988.836 319.543, 988.491 318.985 C 987.897 318.025, 981.474 314.978, 980.128 315.019 C 979.783 315.029, 977.324 316.404, 974.664 318.074 M 685.500 319.921 C 679.449 321.403, 674.360 324.548, 668.456 330.454 C 657.863 341.051, 658.550 334.396, 658.227 429.500 L 657.949 511.500 668.699 517.853 C 676.712 522.589, 679.837 523.962, 680.974 523.245 C 682.319 522.397, 682.529 512.273, 682.743 437.891 C 682.876 391.476, 683.202 352.600, 683.467 351.500 C 683.732 350.400, 685.121 348.150, 686.555 346.500 L 689.162 343.500 785.933 343.231 L 882.703 342.961 883.352 350.632 C 883.708 354.850, 884.007 363.746, 884.015 370.401 C 884.030 382.591, 884.903 386.468, 888 388.088 C 896.114 392.333, 903.247 392.754, 939.500 391.128 C 952.979 390.523, 953.512 390.417, 953.816 388.280 C 954.040 386.699, 951.814 383.336, 946.066 376.577 C 941.630 371.361, 938 366.645, 938 366.096 C 938 365.548, 937.377 364.740, 936.616 364.300 C 935.854 363.860, 933.537 361.250, 931.467 358.500 C 929.397 355.750, 926.456 352.150, 924.931 350.500 C 916.449 341.319, 914.024 338.376, 914.012 337.250 C 914.006 336.563, 913.626 336, 913.170 336 C 912.713 336, 910.928 334.087, 909.203 331.750 C 907.479 329.413, 904.422 325.700, 902.410 323.500 L 898.752 319.500 793.626 319.343 C 735.807 319.257, 687.150 319.517, 685.500 319.921 M 718 415.724 C 714.479 416.360, 711.165 419.744, 710.027 423.865 C 708.185 430.535, 711.667 437.221, 717.965 439.108 C 720.868 439.977, 747.847 440.046, 826.394 439.383 L 930.957 438.500 933.617 435.839 C 935.580 433.875, 936.404 431.851, 936.763 428.114 C 937.216 423.402, 937.015 422.816, 933.875 419.686 L 930.500 416.322 862 415.662 C 788.800 414.956, 722.091 414.985, 718 415.724 M 716.500 464.443 C 714.300 465.283, 712.436 465.977, 712.359 465.985 C 712.281 465.993, 711.481 467.841, 710.580 470.091 C 707.792 477.060, 710.954 484.502, 717.815 487.118 C 720.436 488.117, 878.329 488.141, 910.361 487.147 L 931.222 486.500 934.111 483.038 C 938.388 477.912, 938.195 471.995, 933.600 467.400 L 930.200 464 896.350 463.999 C 877.733 463.999, 830.550 463.755, 791.500 463.458 C 729.367 462.984, 720 463.107, 716.500 464.443 M 514.723 474.886 C 502.116 479.064, 493.165 486.994, 486.375 500 L 483.504 505.500 483.002 563.500 C 482.418 630.934, 482.532 823.687, 483.250 982 C 483.636 1067.256, 484.036 1093.185, 485.001 1095.500 C 488.741 1104.466, 491.034 1108.062, 496.486 1113.509 C 503.880 1120.897, 510.301 1124.419, 520.432 1126.646 C 527.214 1128.136, 529.178 1128.192, 535.767 1127.085 C 539.923 1126.387, 544.150 1125.407, 545.161 1124.908 C 548.839 1123.092, 557.894 1118.240, 560.500 1116.688 C 561.600 1116.033, 567.900 1112.435, 574.500 1108.693 C 581.100 1104.951, 587.175 1101.467, 588 1100.952 C 588.825 1100.437, 593.550 1097.705, 598.500 1094.880 C 603.450 1092.055, 609.075 1088.825, 611 1087.703 C 612.925 1086.581, 617.425 1084.014, 621 1082 C 624.575 1079.985, 629.975 1076.848, 633 1075.029 C 638.491 1071.726, 641.675 1069.877, 648.750 1065.883 C 650.813 1064.719, 653.625 1062.992, 655 1062.046 C 656.375 1061.100, 658.334 1060.023, 659.354 1059.654 C 660.374 1059.285, 665.549 1056.348, 670.854 1053.127 C 676.159 1049.906, 682.525 1046.141, 685 1044.761 C 687.475 1043.380, 695.054 1039.044, 701.843 1035.125 C 708.631 1031.206, 714.310 1028, 714.461 1028 C 714.612 1028, 720.083 1024.780, 726.618 1020.844 C 737.930 1014.030, 739.994 1012.822, 748.750 1007.886 C 757.557 1002.921, 761.915 1000.400, 768.733 996.324 C 772.711 993.946, 776.242 992, 776.579 992 C 776.916 992, 778.386 991.169, 779.846 990.153 C 781.306 989.137, 784.975 986.957, 788 985.309 C 791.025 983.661, 798.154 979.543, 803.843 976.157 C 809.532 972.770, 814.336 970, 814.520 970 C 814.703 970, 818.436 967.801, 822.816 965.113 C 827.195 962.425, 833.191 958.891, 836.139 957.260 C 839.088 955.629, 843.300 953.265, 845.500 952.006 C 847.700 950.747, 851.525 948.592, 854 947.217 C 856.475 945.843, 861.650 942.831, 865.500 940.525 C 869.350 938.219, 874.975 934.973, 878 933.313 C 881.025 931.652, 885.975 928.814, 889 927.007 C 894.707 923.597, 898.368 921.479, 904.750 917.893 C 906.813 916.735, 908.950 915.432, 909.500 914.998 C 910.050 914.564, 912.637 913.037, 915.250 911.605 C 922.181 907.804, 928.023 904.555, 932 902.288 C 935.764 900.142, 955.524 888.546, 958 887.030 C 958.825 886.525, 964.675 883.162, 971 879.558 C 977.325 875.954, 983.625 872.342, 985 871.531 C 999.747 862.833, 1008.112 858, 1008.421 858 C 1008.627 858, 1011.879 856.125, 1015.648 853.833 C 1019.417 851.541, 1024.975 848.318, 1028 846.670 C 1034.940 842.890, 1044.875 836.215, 1047.537 833.544 C 1057.613 823.431, 1062.673 806.540, 1060.167 791.389 C 1058.150 779.196, 1049.185 765.592, 1039.500 760.027 C 1026.194 752.381, 1022.146 750.076, 1017 747.217 C 1014.525 745.843, 1009.350 742.831, 1005.500 740.526 C 1001.650 738.221, 995.350 734.628, 991.500 732.543 C 987.650 730.457, 984.050 728.409, 983.500 727.990 C 982.950 727.572, 978.900 725.312, 974.500 722.967 C 970.100 720.623, 965.790 718.096, 964.921 717.352 C 964.053 716.609, 962.997 716, 962.576 716 C 962.154 716, 960.614 715.153, 959.154 714.117 C 957.694 713.081, 954.813 711.281, 952.750 710.117 C 950.688 708.953, 947.313 707.034, 945.250 705.853 C 943.188 704.672, 939.025 702.353, 936 700.700 C 932.975 699.047, 929.306 696.863, 927.846 695.847 C 926.386 694.831, 924.943 694, 924.640 694 C 924.336 694, 921.706 692.587, 918.794 690.860 C 915.882 689.133, 912.038 686.883, 910.250 685.860 C 908.462 684.837, 905.538 683.162, 903.750 682.137 C 901.962 681.113, 893.975 676.551, 886 672 C 878.025 667.448, 867.450 661.315, 862.500 658.370 C 851.324 651.721, 851.316 651.716, 835.500 642.879 C 828.350 638.884, 822.350 635.252, 822.167 634.808 C 821.983 634.363, 821.258 634, 820.555 634 C 819.852 634, 815.865 631.750, 811.694 629 C 807.523 626.250, 803.893 624, 803.628 624 C 803.364 624, 799.481 621.750, 795 619 C 790.519 616.250, 786.652 614, 786.407 614 C 786.161 614, 784.282 612.941, 782.230 611.646 C 777.860 608.888, 746.990 591.088, 739 586.719 C 735.975 585.065, 733.050 583.375, 732.500 582.963 C 731.950 582.550, 729.813 581.265, 727.750 580.107 C 717.918 574.583, 716.321 573.639, 713.846 571.883 C 712.386 570.847, 710.916 570, 710.579 570 C 710.242 570, 706.711 568.044, 702.733 565.654 C 698.755 563.263, 692.575 559.724, 689 557.788 C 682.980 554.529, 665.710 544.568, 653.206 537.143 C 650.294 535.415, 647.737 534, 647.522 534 C 646.717 534, 636.486 527.468, 636.167 526.750 C 635.983 526.337, 635.476 526, 635.040 526 C 634.603 526, 629.578 523.375, 623.873 520.166 C 613.534 514.351, 611.626 513.253, 600.771 506.869 C 597.620 505.016, 589.970 500.605, 583.771 497.068 C 577.572 493.530, 568.322 488.242, 563.215 485.318 C 558.108 482.393, 553.704 480, 553.429 480 C 553.155 480, 551.728 479.213, 550.260 478.251 C 545.415 475.076, 540.623 473.909, 530.500 473.437 C 522.425 473.061, 519.388 473.340, 514.723 474.886 M 717.313 512.067 C 712.425 513.535, 710 517.326, 710 523.498 C 710 527.825, 710.459 529.186, 712.657 531.384 C 714.118 532.845, 716.480 534.369, 717.907 534.770 C 721.314 535.729, 814.917 535.704, 880 534.727 L 931.500 533.954 934.250 530.961 C 938.353 526.496, 938.147 520.169, 933.750 515.574 L 930.500 512.177 825.500 511.644 C 759.893 511.310, 719.304 511.469, 717.313 512.067 M 1071.973 538.718 C 1070.613 539.662, 1065.675 543.475, 1061 547.191 C 1052.448 553.987, 1048.292 557.224, 1040 563.544 C 1037.525 565.430, 1031.048 570.467, 1025.607 574.737 L 1015.714 582.500 1015.880 592 C 1016.043 601.375, 1016.088 601.537, 1019.273 604.301 C 1021.048 605.842, 1023.461 607.642, 1024.636 608.301 C 1025.810 608.960, 1037.060 616.448, 1049.636 624.939 C 1062.211 633.431, 1073.215 640.327, 1074.090 640.264 C 1074.964 640.200, 1077.708 638.779, 1080.188 637.106 L 1084.696 634.063 1085.348 624.878 C 1086.364 610.559, 1086.123 546.453, 1085.041 543.609 C 1084.447 542.046, 1082.377 540.311, 1079.596 539.044 C 1074.219 536.594, 1074.982 536.627, 1071.973 538.718 M 765.250 559.772 C 750.832 559.975, 746.005 560.352, 746.019 561.272 C 746.038 562.469, 773.725 579.138, 776.903 579.866 C 777.782 580.067, 778.821 580.742, 779.214 581.366 C 779.735 582.195, 800.250 582.500, 855.546 582.500 L 931.164 582.500 934.082 579.234 C 938.348 574.460, 938.217 568.272, 933.750 563.496 L 930.500 560.021 857.500 559.761 C 817.350 559.617, 775.837 559.622, 765.250 559.772 M 831 609.395 C 831 610.584, 842.734 617.840, 855 624.235 C 856.925 625.239, 860.525 627.256, 863 628.719 L 867.500 631.378 895.814 631.788 C 911.387 632.014, 925.576 631.927, 927.346 631.595 C 929.116 631.263, 932.012 629.669, 933.782 628.052 C 936.610 625.469, 937 624.488, 937 619.956 C 937 615.426, 936.587 614.387, 933.600 611.400 L 930.200 608 880.600 608 C 838.845 608, 831 608.221, 831 609.395 M 636.374 683.693 C 633.573 684.238, 630.554 687.674, 629.122 691.947 C 628.277 694.467, 627.970 723.836, 627.977 801.233 C 627.985 894.193, 628.172 907.433, 629.514 910.027 C 631.356 913.589, 634.307 915.567, 639 916.386 C 643.698 917.206, 650.865 913.753, 675 899.040 C 677.552 897.485, 705.005 881.696, 711.586 878 C 715.013 876.075, 721.570 872.262, 726.158 869.527 C 730.746 866.791, 735.400 864.049, 736.500 863.433 C 737.600 862.817, 740.882 860.892, 743.794 859.156 C 746.706 857.420, 749.285 856, 749.526 856 C 749.768 856, 752.906 854.200, 756.500 852 C 760.094 849.800, 763.329 848, 763.689 848 C 764.048 848, 765.053 847.383, 765.921 846.630 C 766.790 845.876, 769.525 844.139, 772 842.770 C 774.475 841.401, 778.882 838.868, 781.794 837.141 C 784.706 835.413, 787.325 834, 787.614 834 C 787.903 834, 790.021 832.732, 792.320 831.183 C 794.619 829.634, 798.075 827.579, 800 826.617 C 801.925 825.655, 805.975 823.343, 809 821.479 C 812.025 819.615, 816.499 817.080, 818.941 815.845 C 821.384 814.610, 825.321 811.742, 827.691 809.471 C 831.742 805.590, 832 805.015, 832 799.868 C 832 794.994, 831.643 794.051, 828.750 791.288 C 826.962 789.580, 819.875 784.938, 813 780.971 C 806.125 777.005, 799.150 772.971, 797.500 772.008 C 781.527 762.683, 776.209 759.651, 774.500 758.892 C 773.400 758.404, 769.800 756.302, 766.500 754.222 C 763.200 752.141, 759.038 749.836, 757.250 749.098 C 755.462 748.361, 754 747.362, 754 746.879 C 754 746.395, 753.303 746, 752.451 746 C 751.600 746, 748.193 744.200, 744.881 742 C 741.569 739.800, 738.440 738, 737.929 738 C 737.418 738, 737 737.550, 737 737 C 737 736.450, 736.190 736, 735.200 736 C 734.210 736, 732.973 735.592, 732.450 735.094 C 731.527 734.214, 729.303 732.916, 718.139 726.740 C 715.191 725.109, 709.195 721.575, 704.816 718.887 C 700.436 716.199, 696.715 714, 696.545 714 C 696.376 714, 691.347 711.164, 685.369 707.698 C 679.391 704.231, 672.979 700.519, 671.119 699.448 C 669.259 698.376, 662.734 694.523, 656.619 690.885 C 645.975 684.553, 641.012 682.789, 636.374 683.693 M 478 1219.620 C 471.426 1220.441, 461.296 1224.265, 455.954 1227.943 C 445.762 1234.959, 440.797 1246.384, 442.968 1257.830 C 445.688 1272.174, 453.781 1278.006, 480.500 1284.873 C 503.029 1290.663, 506.200 1292.489, 506.200 1299.674 C 506.200 1302.738, 505.569 1303.996, 502.931 1306.199 C 498.870 1309.589, 493.623 1310.439, 481.095 1309.734 C 471.252 1309.181, 461.550 1306.357, 454.480 1301.988 C 452.711 1300.894, 450.628 1300, 449.851 1300 C 448.331 1300, 441 1313.894, 441 1316.776 C 441 1320.749, 456.971 1327.532, 472 1329.942 C 487.500 1332.428, 504.278 1330.239, 515.173 1324.309 C 533.100 1314.552, 537.528 1291.094, 523.838 1278.407 C 516.931 1272.007, 510.762 1269.499, 489.652 1264.512 C 473.129 1260.609, 468 1257.391, 468 1250.929 C 468 1247.936, 468.677 1246.613, 471.458 1244.171 C 475.452 1240.664, 481.048 1239.422, 491.351 1239.756 C 499.339 1240.014, 504.452 1241.248, 511.379 1244.590 C 514.126 1245.916, 517.108 1247, 518.005 1247 C 519.098 1247, 520.688 1244.444, 522.826 1239.250 C 524.581 1234.987, 526.013 1230.931, 526.008 1230.235 C 525.996 1228.301, 520.334 1225.234, 511.704 1222.486 C 503.926 1220.009, 486.644 1218.540, 478 1219.620 M 1304.500 1219.632 C 1289.473 1221.954, 1274.914 1230.149, 1266.844 1240.827 C 1250.153 1262.914, 1251.184 1292.564, 1269.337 1312.528 C 1275.664 1319.487, 1282.906 1324.108, 1293.165 1327.733 C 1303.329 1331.325, 1321.002 1331.577, 1331.500 1328.282 C 1349.178 1322.731, 1361.779 1310.696, 1367.808 1293.602 C 1371.290 1283.731, 1371.413 1267.600, 1368.081 1258 C 1361.738 1239.729, 1348.530 1227.099, 1330 1221.587 C 1324.371 1219.912, 1309.876 1218.801, 1304.500 1219.632 M 230 1275 L 230 1329 242.474 1329 L 254.948 1329 255.224 1313.750 L 255.500 1298.500 266.066 1298.218 C 275.177 1297.975, 276.845 1298.182, 278.179 1299.718 C 279.030 1300.698, 283.880 1307.688, 288.957 1315.250 L 298.187 1329 311.094 1329 C 321.057 1329, 324 1328.702, 324 1327.692 C 324 1326.973, 319.275 1319.461, 313.500 1311 C 307.725 1302.539, 303 1295.033, 303 1294.321 C 303 1293.608, 304.690 1291.958, 306.756 1290.654 C 311.909 1287.401, 317.711 1280.767, 320.298 1275.170 C 323.377 1268.510, 323.378 1250.650, 320.301 1244 C 315.531 1233.694, 305.942 1226.438, 292.572 1223.018 C 285.601 1221.236, 281.490 1221, 257.340 1221 L 230 1221 230 1275 M 343 1275 L 343 1329 386.036 1329 L 429.072 1329 428.786 1319.250 L 428.500 1309.500 398.500 1309 L 368.500 1308.500 368.219 1296.250 L 367.938 1284 393.469 1284 L 419 1284 419 1274 L 419 1264 393.467 1264 L 367.934 1264 368.217 1252.750 L 368.500 1241.500 397.250 1241.235 L 426 1240.969 426 1230.985 L 426 1221 384.500 1221 L 343 1221 343 1275 M 548.478 1227.361 C 548.103 1230.859, 548.010 1246.947, 548.270 1263.111 C 548.799 1295.895, 549.437 1299.976, 555.641 1310.217 C 564.360 1324.609, 580.856 1331.870, 602.072 1330.654 C 624.594 1329.363, 639.368 1318.203, 644.639 1298.500 C 645.638 1294.765, 645.979 1284.326, 645.988 1257.250 L 646 1221 634.069 1221 L 622.137 1221 621.819 1256.250 L 621.500 1291.500 618.652 1297.301 C 616.686 1301.304, 614.538 1303.938, 611.721 1305.801 C 607.989 1308.269, 606.804 1308.500, 597.904 1308.500 C 588.696 1308.500, 587.938 1308.337, 583.889 1305.491 C 578.596 1301.769, 575.194 1295.398, 573.967 1286.908 C 573.457 1283.384, 573.031 1267.112, 573.020 1250.750 L 573 1221 561.080 1221 L 549.159 1221 548.478 1227.361 M 671 1275 L 671 1329 683 1329 L 695 1329 695 1298.500 C 695 1281.725, 695.380 1268, 695.844 1268 C 696.308 1268, 699.760 1273.063, 703.516 1279.250 C 707.271 1285.438, 714.197 1296.706, 718.907 1304.292 L 727.470 1318.083 733.454 1317.792 L 739.438 1317.500 754.064 1293 C 762.373 1279.083, 769.406 1268.360, 770.345 1268.177 C 771.856 1267.882, 772 1270.518, 772 1298.427 L 772 1329 783.500 1329 L 795 1329 795 1275 L 795 1221 784.177 1221 L 773.353 1221 755 1251.750 C 744.906 1268.662, 735.859 1283.354, 734.897 1284.399 C 733.202 1286.237, 732.966 1286.016, 727.404 1277.399 C 724.246 1272.504, 717.529 1261.750, 712.478 1253.500 C 707.427 1245.250, 700.751 1234.563, 697.642 1229.750 L 691.988 1221 681.494 1221 L 671 1221 671 1275 M 821 1275 L 821 1329 833.500 1329 L 846 1329 846 1275 L 846 1221 833.500 1221 L 821 1221 821 1275 M 870.257 1257.750 C 870.578 1287.982, 870.929 1295.319, 872.236 1299.119 C 879.187 1319.322, 893.011 1329.279, 916 1330.640 C 926.695 1331.273, 936.512 1329.650, 944.396 1325.944 C 950.793 1322.937, 958.980 1315.290, 962.266 1309.253 C 967.422 1299.780, 967.969 1294.706, 967.985 1256.250 L 968 1221 955.750 1221 L 943.500 1221 943.495 1255.250 C 943.490 1293.907, 943.090 1296.577, 936.282 1303.385 C 931.620 1308.047, 927.238 1309.314, 917.329 1308.863 C 908.364 1308.455, 904.171 1306.382, 900.003 1300.299 C 895.529 1293.770, 895 1288.854, 895 1253.782 L 895 1221 882.434 1221 L 869.867 1221 870.257 1257.750 M 1038 1275 L 1038 1329 1046 1329 L 1054 1329 1054 1312.500 L 1054 1296 1070.668 1296 C 1090.050 1296, 1098.014 1294.866, 1106.994 1290.826 C 1120.763 1284.632, 1127.654 1272.684, 1126.804 1256.482 C 1125.865 1238.602, 1115.556 1226.937, 1096.781 1222.511 C 1092.080 1221.402, 1083.896 1221.026, 1064.250 1221.015 L 1038 1221 1038 1275 M 1149 1275 L 1149 1329 1157 1329 L 1165 1329 1165 1312.500 L 1165 1296 1182.332 1296 L 1199.664 1296 1206.022 1305.250 C 1209.518 1310.338, 1214.772 1317.763, 1217.697 1321.750 L 1223.014 1329 1231.007 1329 C 1236.093 1329, 1239 1328.605, 1239 1327.913 C 1239 1326.778, 1237.751 1324.926, 1224.250 1306.046 C 1219.713 1299.700, 1216 1293.987, 1216 1293.350 C 1216 1292.712, 1218.405 1290.834, 1221.344 1289.175 C 1227.704 1285.586, 1231.402 1281.449, 1234.910 1274 C 1237.157 1269.228, 1237.500 1267.177, 1237.500 1258.500 C 1237.500 1249.818, 1237.157 1247.769, 1234.899 1242.954 C 1231.361 1235.412, 1227.160 1230.895, 1220.285 1227.242 C 1209.781 1221.661, 1205.051 1221, 1175.606 1221 L 1149 1221 1149 1275 M 1304.500 1233.965 C 1296.296 1235.308, 1290.237 1238.578, 1283.538 1245.277 C 1273.597 1255.217, 1270.305 1264.037, 1271.272 1278.139 C 1272.968 1302.880, 1294.523 1319.613, 1320.038 1315.995 C 1355.752 1310.930, 1367.385 1263.711, 1338.377 1241.561 C 1329.809 1235.020, 1316.408 1232.015, 1304.500 1233.965 M 1054.232 1258.172 L 1054.500 1282.500 1069 1282.794 C 1083.784 1283.093, 1094.255 1281.954, 1098.931 1279.536 C 1108.750 1274.458, 1113.410 1261.775, 1109.837 1249.850 C 1108.391 1245.022, 1100.730 1237.639, 1095.382 1235.918 C 1093.086 1235.179, 1083.832 1234.500, 1072.732 1234.256 L 1053.964 1233.844 1054.232 1258.172 M 1165.485 1235.178 C 1165.197 1235.929, 1165.082 1246.884, 1165.231 1259.522 L 1165.500 1282.500 1184.573 1282.500 L 1203.645 1282.500 1209.534 1279.487 C 1216.665 1275.839, 1220.729 1270.542, 1221.809 1263.487 C 1223.658 1251.420, 1219.462 1242.653, 1209.372 1237.503 C 1203.564 1234.538, 1203.296 1234.501, 1184.755 1234.159 C 1169.598 1233.879, 1165.909 1234.074, 1165.485 1235.178 M 257.250 1241.638 C 255.018 1242.135, 255 1242.287, 255 1260.159 L 255 1278.179 270.326 1277.840 C 285.193 1277.510, 285.780 1277.416, 289.905 1274.684 C 302.194 1266.545, 299.887 1247.859, 286 1243.064 C 282.366 1241.809, 261.193 1240.759, 257.250 1241.638" stroke="none" fill="#ffffff" fill-rule="evenodd"></path><path d="M 956.500 269.947 C 950.863 271.451, 948.104 272.911, 944.149 276.485 C 933.760 285.871, 933.020 301.865, 942.466 312.870 C 945.250 316.113, 951.527 320, 953.980 320 C 956.987 320, 956.426 318.672, 952.750 317.087 C 946.179 314.254, 944 312.099, 944 308.432 C 944 306.544, 943.550 305, 943 305 C 942.450 305, 942 303.864, 942 302.475 C 942 300.469, 942.617 299.827, 945 299.350 C 946.650 299.020, 948 298.131, 948 297.375 C 948 296.541, 949.085 296, 950.759 296 C 952.436 296, 954.009 295.215, 954.768 294 C 955.455 292.900, 956.688 292, 957.508 292 C 958.329 292, 959 291.169, 959 290.153 C 959 286.820, 962.417 284, 966.455 284 L 970.176 284 969.500 280 C 968.838 276.081, 968.885 276, 971.786 276 C 975.805 276, 982 281.653, 982 285.321 C 982 286.794, 981.550 288, 981 288 C 980.450 288, 980 289.350, 980 291 C 980 293.667, 980.333 294, 983 294 C 985.362 294, 986 294.438, 986 296.059 C 986 297.191, 986.407 297.866, 986.905 297.559 C 988.189 296.765, 987.064 289.229, 984.953 284.489 C 982.896 279.868, 975.367 272, 973.003 272 C 972.121 272, 970.972 271.596, 970.450 271.102 C 969.048 269.776, 959.960 269.024, 956.500 269.947 M 643.762 271.202 C 622.185 273.158, 610 288.083, 610 312.555 L 610 318.743 599.250 319.228 C 593.337 319.495, 587.150 320.324, 585.500 321.070 C 579.984 323.566, 570.800 331.247, 567.940 335.755 C 562.368 344.543, 562 348.823, 562 404.933 L 562 455.972 565.750 458.350 C 574.194 463.704, 585.328 470.005, 585.697 469.637 C 585.913 469.420, 586.061 442.944, 586.024 410.800 L 585.958 352.357 588.259 348.943 C 591.533 344.085, 594.380 342.945, 602.500 343.243 L 609.500 343.500 610 413.976 L 610.500 484.452 616.571 488.123 C 626.248 493.974, 632.847 497.213, 633.839 496.599 C 634.391 496.258, 634.655 457.809, 634.499 400.430 C 634.220 298.090, 634.046 301.983, 639.097 297.412 C 641.149 295.555, 644.656 295.492, 760.973 295.234 L 880.736 294.968 879.877 290.373 C 879.405 287.846, 879.266 285.378, 879.569 284.889 C 879.871 284.400, 883.691 284, 888.059 284 C 892.686 284, 896 283.583, 896 283 C 896 282.435, 893.143 282, 889.429 282 C 882.672 282, 880 280.745, 880 277.571 C 880 276.238, 881.667 276, 891 276 C 901.333 276, 902 275.879, 902 274 C 902 272.889, 902.667 272, 903.500 272 C 904.325 272, 905 272.575, 905 273.278 C 905 274.703, 908.486 278, 909.992 278 C 911.466 278, 912.539 283.320, 911.158 283.781 C 910.521 283.993, 910 285.029, 910 286.083 C 910 287.137, 909.602 288, 909.117 288 C 908.631 288, 907.998 288.900, 907.710 290 C 907.267 291.693, 906.346 292, 901.701 292 C 897.746 292, 896.053 292.419, 895.638 293.500 C 895.169 294.723, 896.092 295, 900.627 295 C 907.846 295, 911.517 292.833, 913.619 287.328 C 915.427 282.593, 914.956 279.151, 911.913 274.878 C 908.256 269.742, 908.817 269.762, 775.088 270.145 C 707.115 270.340, 648.018 270.816, 643.762 271.202 M 960 278 C 960 279.333, 959.333 280, 958 280 C 956.667 280, 956 280.667, 956 282 C 956 283.333, 956.667 284, 958 284 C 959.333 284, 960 283.333, 960 282 C 960 280.667, 960.667 280, 962 280 C 963.333 280, 964 279.333, 964 278 C 964 276.667, 963.333 276, 962 276 C 960.667 276, 960 276.667, 960 278 M 986 303.752 C 986 306.145, 987.892 308, 990.333 308 C 991.396 308, 992.993 308.798, 993.883 309.773 C 995.497 311.543, 1000.243 314, 1002.047 314 C 1004.360 314, 1002.648 311.862, 998.750 309.883 C 996.413 308.697, 992.587 306.416, 990.250 304.815 C 986.500 302.246, 986 302.121, 986 303.752 M 980 313 C 980 313.550, 978.902 314, 977.559 314 C 976.216 314, 974.840 314.450, 974.500 315 C 974.160 315.550, 973.009 316, 971.941 316 C 970.539 316, 970 316.692, 970 318.491 L 970 320.982 975.035 317.884 C 979.680 315.025, 980.317 314.884, 983.285 316.058 C 985.053 316.757, 987.210 317.930, 988.079 318.665 C 989.681 320.020, 992 320.472, 992 319.429 C 992 318.335, 989.134 316, 987.792 316 C 987.049 316, 985.793 315.100, 985 314 C 983.511 311.934, 980 311.232, 980 313 M 685.500 319.921 C 679.449 321.403, 674.360 324.548, 668.456 330.454 C 657.863 341.051, 658.550 334.396, 658.227 429.500 L 657.949 511.500 668.699 517.853 C 676.712 522.589, 679.837 523.962, 680.974 523.245 C 682.319 522.397, 682.529 512.273, 682.743 437.891 C 682.876 391.476, 683.202 352.600, 683.467 351.500 C 683.732 350.400, 685.121 348.150, 686.555 346.500 L 689.162 343.500 786.081 343.238 L 883 342.976 883 347.957 C 883 351.973, 883.290 352.826, 884.500 352.362 C 885.523 351.969, 886 350.367, 886 347.322 C 886 342.711, 884.360 340, 881.571 340 C 880.667 340, 880 339.152, 880 338 C 880 336.083, 879.333 336, 864 336 C 848.667 336, 848 335.917, 848 334 C 848 332.167, 848.667 332, 856 332 C 860.667 332, 864 331.583, 864 331 C 864 330.450, 862.200 330, 860 330 C 857.800 330, 856 329.550, 856 329 C 856 328.450, 854.200 328, 852 328 C 848.667 328, 848 327.667, 848 326 C 848 324.533, 848.667 324, 850.500 324 C 851.875 324, 853 323.638, 853 323.196 C 853 322.753, 862.871 322.274, 874.935 322.130 L 896.869 321.868 899.935 324.599 C 901.621 326.102, 903 327.931, 903 328.665 C 903 329.399, 903.511 330, 904.135 330 C 904.760 330, 906.360 331.175, 907.691 332.611 C 909.022 334.047, 910.374 334.959, 910.697 334.637 C 911.235 334.098, 908.214 330.115, 901.488 322.500 L 898.838 319.500 793.669 319.343 C 735.826 319.257, 687.150 319.517, 685.500 319.921 M 958.547 325.207 C 959.998 331.105, 962 345.905, 962 350.743 C 962 352.469, 962.450 354.160, 963 354.500 C 963.640 354.896, 964 351.677, 964 345.559 C 964 339.853, 963.597 336, 963 336 C 962.450 336, 962 333.750, 962 331 C 962 328.250, 961.580 326, 961.066 326 C 960.553 326, 959.990 324.797, 959.816 323.327 C 959.642 321.857, 958.992 320.488, 958.372 320.284 C 957.566 320.020, 957.616 321.427, 958.547 325.207 M 972 341.178 C 972 344.803, 972.502 347.172, 973.435 347.946 C 974.663 348.965, 974.789 348.298, 974.308 343.318 C 973.556 335.531, 972 334.088, 972 341.178 M 925.420 352.332 C 925.739 353.339, 926 354.542, 926 355.005 C 926 356.570, 931.167 362, 932.657 362 C 933.832 362, 933.722 361.435, 932.119 359.250 C 928.258 353.986, 924.819 350.435, 925.420 352.332 M 894.500 391 C 895.197 392.128, 917.603 392.153, 939.500 391.051 C 951.519 390.447, 949.283 390.322, 923.691 390.173 C 904.030 390.059, 894.092 390.340, 894.500 391 M 718 415.724 C 712.526 416.712, 708.418 423.838, 709.680 430.152 C 710.527 434.387, 715.018 438.725, 719.408 439.549 C 721.471 439.936, 769.135 439.828, 825.329 439.310 C 926.111 438.381, 926.647 438.365, 864.750 438.184 C 809.721 438.023, 802 437.815, 802 436.500 C 802 435.667, 802.889 435, 804 435 C 805.467 435, 806 434.333, 806 432.500 C 806 430.250, 806.400 430, 810 430 C 812.200 430, 814 429.550, 814 429 C 814 428.450, 815.800 428, 818 428 C 820.200 428, 822 427.743, 822 427.429 C 822 425.540, 818.502 424.069, 813.385 423.804 C 808.739 423.563, 807.450 423.136, 807.186 421.750 C 806.901 420.253, 807.659 420, 812.427 420 C 815.492 420, 818 419.566, 818 419.035 C 818 418.497, 822.499 417.944, 828.169 417.785 C 835.203 417.588, 838.465 417.115, 838.752 416.250 C 839.081 415.258, 826.903 415.028, 779.833 415.136 C 747.200 415.211, 719.375 415.476, 718 415.724 M 716.500 464.529 C 714.300 465.321, 712.436 465.977, 712.359 465.985 C 712.281 465.993, 711.481 467.841, 710.580 470.091 C 707.792 477.060, 710.954 484.502, 717.815 487.118 C 720.497 488.140, 881.409 488.085, 909 487.052 C 921.143 486.598, 903.188 486.298, 856.750 486.180 C 786.727 486.002, 786 485.979, 786 484 C 786 482.298, 786.667 482, 790.475 482 C 794.914 482, 794.945 481.976, 794.350 479 C 793.786 476.179, 793.936 476, 796.875 476 C 799.333 476, 800 475.573, 800 474 C 800 472.167, 799.333 472, 792 472 C 784.667 472, 784 471.833, 784 470 C 784 468.148, 784.667 468, 793 468 C 798.333 468, 802 467.593, 802 467 C 802 466.446, 804.631 466, 807.893 466 C 812.209 466, 813.940 465.599, 814.362 464.500 C 814.868 463.179, 809.292 463.005, 767.719 463.044 C 729.206 463.080, 719.763 463.353, 716.500 464.529 M 514.723 474.886 C 506.685 477.550, 496.632 484.365, 492.621 489.869 C 487.811 496.470, 484.370 503.781, 483.605 509.026 C 482.638 515.652, 482.028 851.382, 482.908 892.500 L 483.657 927.500 483.828 884.332 C 483.923 860.589, 484.273 840.452, 484.607 839.582 C 485.270 837.854, 488 837.386, 488 839 C 488 839.550, 488.450 840, 489 840 C 489.550 840, 490 837.750, 490 835 C 490 832.250, 490.450 830, 491 830 C 491.550 830, 492 828.650, 492 827 C 492 824.667, 492.444 824, 494 824 C 495.340 824, 496 824.667, 496 826.019 C 496 827.718, 496.436 827.931, 498.750 827.364 C 500.262 826.994, 501.650 826.310, 501.833 825.845 C 502.431 824.328, 507 824.907, 507 826.500 C 507 827.325, 507.450 828, 508 828 C 508.550 828, 509 827.100, 509 826 C 509 824.889, 509.667 824, 510.500 824 C 511.583 824, 512 822.889, 512 820 L 512 816 532 816 C 544.667 816, 552 815.633, 552 815 C 552 814.450, 552.659 814, 553.465 814 C 554.270 814, 555.411 813.100, 556 812 C 556.794 810.516, 558.094 810, 561.035 810 C 563.216 810, 565 809.649, 565 809.219 C 565 808.790, 566.350 807.929, 568 807.306 C 569.713 806.659, 571 805.444, 571 804.473 C 571 803.153, 571.670 802.871, 574 803.213 C 575.650 803.455, 577 803.282, 577 802.827 C 577 802.372, 577.932 802, 579.071 802 C 581.285 802, 584 799.836, 584 798.071 C 584 797.482, 585.800 797, 588 797 C 590.200 797, 592 796.550, 592 796 C 592 795.450, 591.100 795, 590 795 C 588.840 795, 588 794.333, 588 793.412 C 588 792.114, 588.729 791.947, 592 792.500 C 595.366 793.069, 596 792.906, 596 791.471 C 596 790.192, 596.624 789.886, 598.500 790.245 C 599.875 790.508, 601 790.316, 601 789.820 C 601 789.323, 601.925 787.923, 603.056 786.708 C 604.840 784.791, 606.357 784.454, 614.556 784.153 L 624 783.807 624 791.903 C 624 796.357, 624.352 800, 624.783 800 C 626.835 800, 628.001 777.389, 628 737.616 C 628 708.993, 628.363 694.519, 629.148 691.902 C 630.906 686.031, 634.085 683.604, 639.902 683.692 C 644.071 683.755, 646.414 684.749, 656.253 690.633 C 662.570 694.410, 669.259 698.376, 671.119 699.448 C 672.979 700.519, 679.391 704.231, 685.369 707.698 C 691.347 711.164, 696.376 714, 696.545 714 C 696.715 714, 700.436 716.199, 704.816 718.887 C 709.195 721.575, 715.191 725.109, 718.139 726.740 C 728.422 732.428, 731.508 734.220, 732.716 735.201 C 733.385 735.744, 734.397 736.034, 734.964 735.845 C 736.453 735.347, 731.577 730, 729.634 730 C 728.735 730, 728 729.550, 728 729 C 728 728.450, 727.410 728, 726.689 728 C 725.967 728, 724.411 727.100, 723.230 726 C 722.050 724.900, 720.390 724, 719.542 724 C 718.694 724, 718 723.550, 718 723 C 718 722.450, 717.100 722, 716 722 C 714.900 722, 714 721.580, 714 721.067 C 714 720.554, 713.100 719.849, 712 719.500 C 710.900 719.151, 710 718.221, 710 717.433 C 710 716.571, 709.003 716, 707.500 716 C 705.667 716, 705 715.467, 705 714 C 705 712.453, 705.667 712, 707.941 712 C 709.559 712, 711.160 712.450, 711.500 713 C 711.840 713.550, 712.991 714, 714.059 714 C 715.157 714, 716 714.683, 716 715.571 C 716 717.087, 718.255 720, 719.429 720 C 719.743 720, 720 718.650, 720 717 C 720 714.667, 719.556 714, 718 714 C 716.444 714, 716 713.333, 716 711 C 716 708.667, 716.444 708, 718 708 C 719.100 708, 720 708.450, 720 709 C 720 710.455, 722.919 710.224, 724.499 708.644 C 725.514 707.629, 725.628 706.310, 724.951 703.394 C 723.717 698.073, 723.731 698, 726.025 698 C 727.264 698, 728.418 697.031, 729 695.500 C 729.523 694.125, 730.412 693, 730.975 693 C 732.698 693, 736.518 688.673, 735.188 688.229 C 733.752 687.751, 733.586 684, 735 684 C 735.556 684, 736 681.333, 736 678 L 736 672 740.500 672 C 742.975 672, 745 671.550, 745 671 C 745 670.450, 745.675 670, 746.500 670 C 747.548 670, 748 668.944, 748 666.500 C 748 663.667, 748.381 663, 750 663 C 751.619 663, 752 662.333, 752 659.500 C 752 656.433, 752.310 656, 754.500 656 C 756.750 656, 757 655.600, 757 652 C 757 649.800, 757.482 648, 758.071 648 C 759.980 648, 762 645.208, 762 642.571 C 762 641.157, 762.450 640, 763 640 C 763.550 640, 764 639.100, 764 638 C 764 636.667, 764.667 636, 766 636 C 767.556 636, 768 635.333, 768 633 C 768 630.139, 768.197 629.999, 772.250 629.986 C 779.738 629.962, 780.921 629.288, 780.291 625.404 C 779.761 622.139, 779.866 622, 782.869 622 C 784.591 622, 786 622.450, 786 623 C 786 623.550, 787.125 624, 788.500 624 C 790.333 624, 791 623.467, 791 622 C 791 619.511, 793.159 619.413, 795.323 621.805 C 796.222 622.798, 798.542 624.232, 800.478 624.992 C 802.415 625.751, 804 626.739, 804 627.187 C 804 627.634, 804.900 628, 806 628 C 807.100 628, 808 628.450, 808 629 C 808 629.550, 808.712 630, 809.583 630 C 812.347 630, 810.605 627.914, 805.471 625.076 C 802.737 623.565, 797.417 620.455, 793.648 618.164 C 789.879 615.874, 786.608 614, 786.378 614 C 786.148 614, 784.282 612.941, 782.230 611.646 C 777.860 608.888, 746.990 591.088, 739 586.719 C 735.975 585.065, 733.050 583.375, 732.500 582.963 C 731.950 582.550, 729.813 581.265, 727.750 580.107 C 717.918 574.583, 716.321 573.639, 713.846 571.883 C 712.386 570.847, 710.916 570, 710.579 570 C 710.242 570, 706.711 568.044, 702.733 565.654 C 698.755 563.263, 692.575 559.724, 689 557.788 C 682.980 554.529, 665.710 544.568, 653.206 537.143 C 650.294 535.415, 647.737 534, 647.522 534 C 646.717 534, 636.486 527.468, 636.167 526.750 C 635.983 526.337, 635.476 526, 635.040 526 C 634.603 526, 629.578 523.375, 623.873 520.166 C 613.534 514.351, 611.626 513.253, 600.771 506.869 C 597.620 505.016, 589.970 500.605, 583.771 497.068 C 577.572 493.530, 568.322 488.242, 563.215 485.318 C 558.108 482.393, 553.704 480, 553.429 480 C 553.155 480, 551.728 479.213, 550.260 478.251 C 545.415 475.076, 540.623 473.909, 530.500 473.437 C 522.425 473.061, 519.388 473.340, 514.723 474.886 M 717.094 512.306 C 712.323 513.978, 709.833 517.724, 709.833 523.230 C 709.833 528.546, 711.190 531.073, 715.418 533.634 C 718.291 535.373, 721.622 535.517, 764.500 535.753 C 789.800 535.892, 824.225 535.625, 841 535.161 L 871.500 534.316 828.750 534.158 C 786.719 534.003, 786 533.966, 786 532 C 786 530.667, 786.667 530, 788 530 C 789.100 530, 790 529.550, 790 529 C 790 528.450, 788.650 528, 787 528 C 784.667 528, 784 528.444, 784 530 C 784 531.733, 783.333 532, 779 532 C 774.667 532, 774 531.733, 774 530 C 774 528.222, 773.333 528, 768 528 C 763.538 528, 762 527.643, 762 526.607 C 762 524.761, 764.214 524, 769.582 524 C 773.948 524, 774 523.960, 774 520.567 C 774 516.525, 774.594 516.276, 784.500 516.176 C 793.730 516.083, 805.804 513.953, 806.436 512.307 C 807.131 510.496, 722.262 510.496, 717.094 512.306 M 760 531.882 C 760 533.402, 760.770 533.775, 764 533.819 C 767.309 533.865, 768 533.540, 768 531.937 C 768 530.344, 767.290 530, 764 530 C 760.750 530, 760 530.353, 760 531.882 M 757.514 559.786 C 751.471 559.944, 746.161 560.439, 745.713 560.887 C 744.947 561.653, 775.052 580, 777.075 580 C 777.593 580, 777.455 579.100, 776.768 578 C 776.081 576.900, 774.920 576, 774.188 576 C 773.388 576, 772.973 575.102, 773.148 573.750 C 773.532 570.778, 772.331 569, 769.941 569 C 768.873 569, 768 568.325, 768 567.500 C 768 566.675, 767.325 566, 766.500 566 C 765.675 566, 765 565.426, 765 564.725 C 765 563.747, 767.453 563.540, 775.500 563.838 C 782.779 564.108, 786 563.885, 786 563.113 C 786 562.501, 786.627 562, 787.393 562 C 788.159 562, 789.022 561.386, 789.310 560.635 C 789.857 559.210, 784.810 559.075, 757.514 559.786 M 819.824 582.750 C 839.802 582.901, 872.202 582.901, 891.824 582.750 C 911.446 582.598, 895.100 582.474, 855.500 582.474 C 815.900 582.474, 799.846 582.598, 819.824 582.750 M 740 738.469 C 740 739.358, 751.041 746, 752.519 746 C 753.334 746, 754 746.378, 754 746.839 C 754 747.619, 758.310 750, 759.721 750 C 761.427 750, 755.021 744.610, 751.750 743.293 C 749.688 742.462, 748 741.382, 748 740.891 C 748 740.401, 747.100 740, 746 740 C 744.900 740, 744 739.550, 744 739 C 744 738.450, 743.100 738, 742 738 C 740.900 738, 740 738.211, 740 738.469" stroke="none" fill="#41b0ef" fill-rule="evenodd"></path><path d="M 902.658 271.675 C 902.296 272.037, 902 273.158, 902 274.167 C 902 275.833, 901 276, 891 276 C 880.667 276, 880 276.121, 880 278 C 880 279.100, 880.450 280, 881 280 C 882.587 280, 882.160 283.725, 880.500 284.362 C 879.675 284.678, 879 286.076, 879 287.469 L 879 290 867.500 290 C 860.500 290, 856 290.391, 856 291 C 856 291.611, 860.667 292, 868 292 C 875.333 292, 880 292.389, 880 293 C 880 293.583, 883.333 294, 888 294 C 892.667 294, 896 293.583, 896 293 C 896 292.450, 898.517 292, 901.594 292 C 906.346 292, 907.266 291.699, 907.710 290 C 907.998 288.900, 908.631 288, 909.117 288 C 909.602 288, 910 287.137, 910 286.083 C 910 285.029, 910.521 283.993, 911.158 283.781 C 912.587 283.304, 911.441 278, 909.910 278 C 908.599 278, 906 275.470, 906 274.194 C 906 272.828, 903.437 270.896, 902.658 271.675 M 969.296 276.538 C 967.857 277.602, 967.748 278.117, 968.750 279.133 C 969.438 279.830, 970 281.210, 970 282.200 C 970 283.693, 969.148 284, 965 284 C 960.667 284, 960 283.733, 960 282 C 960 280.704, 960.667 280, 961.893 280 C 962.934 280, 964.059 279.288, 964.393 278.418 C 965.288 276.085, 965.222 276, 962.500 276 C 960.667 276, 960 276.533, 960 278 C 960 279.333, 959.333 280, 958 280 C 955.626 280, 955.357 282.500, 957.500 284.643 C 959.493 286.636, 959.499 292, 957.508 292 C 956.688 292, 955.455 292.900, 954.768 294 C 954.009 295.215, 952.436 296, 950.759 296 C 948.973 296, 948 296.529, 948 297.500 C 948 298.325, 947.212 299.007, 946.250 299.015 C 942.152 299.051, 941.546 300.439, 942.994 306.475 C 944.406 312.362, 946.124 314.230, 952.750 317.087 C 954.538 317.858, 956 318.776, 956 319.127 C 956 319.479, 956.900 320.002, 958 320.290 C 959.351 320.643, 960 321.654, 960 323.406 C 960 324.833, 960.450 326, 961 326 C 961.550 326, 962 328.250, 962 331 C 962 333.750, 962.450 336, 963 336 C 963.615 336, 964 341, 964 349 C 964 356.150, 964.393 362, 964.874 362 C 965.355 362, 965.787 365.372, 965.835 369.493 C 965.883 373.615, 966.315 377.777, 966.794 378.743 C 967.274 379.709, 967.756 383.389, 967.866 386.920 C 967.976 390.450, 968.490 395.175, 969.009 397.420 C 971.078 406.380, 969.610 414, 965.814 414 C 964.341 414, 960 417.999, 960 419.355 C 960 419.754, 959.126 421.300, 958.059 422.790 C 955.694 426.091, 954.675 441.058, 956.768 441.756 C 957.446 441.982, 958 443.462, 958 445.046 C 958 448.873, 965.218 456, 969.094 456 C 970.575 456, 972.002 456.563, 972.265 457.250 C 973.108 459.447, 988.371 458.552, 992.387 456.070 C 994.229 454.931, 996.216 454, 996.802 454 C 997.388 454, 1000.584 456.137, 1003.904 458.750 C 1007.224 461.363, 1012.316 465.221, 1015.220 467.324 C 1018.124 469.426, 1023.425 473.373, 1027 476.093 C 1030.575 478.813, 1035.075 482.154, 1037 483.516 C 1045.012 489.186, 1046.953 490.612, 1049.658 492.817 C 1051.221 494.092, 1055.650 497.495, 1059.500 500.380 L 1066.500 505.626 1066.500 513.563 C 1066.500 517.928, 1066.858 522.625, 1067.295 524 C 1068.006 526.239, 1067.501 526.917, 1062.443 530.500 C 1059.337 532.700, 1055.083 535.850, 1052.989 537.500 C 1042.339 545.891, 1036.545 550.371, 1026.500 557.981 C 1020.450 562.565, 1013.935 567.594, 1012.022 569.157 C 1007.977 572.463, 1006.536 572.623, 1001.904 570.276 C 1000.032 569.327, 996.250 568.315, 993.500 568.026 L 988.500 567.500 988 528 C 987.701 504.348, 987.099 487.848, 986.500 486.874 C 985.950 485.980, 984.085 484.067, 982.356 482.624 C 978.558 479.454, 973.822 479.201, 969.349 481.929 C 966.838 483.460, 965.975 484.892, 965.099 488.974 C 964.343 492.498, 964 524.354, 964 590.981 L 964 687.864 966.921 689.944 C 968.528 691.088, 972.465 693.429, 975.671 695.146 C 978.877 696.863, 982.593 698.859, 983.928 699.583 C 985.264 700.306, 986.726 700.669, 987.178 700.390 C 987.630 700.110, 988 681.736, 988 659.558 L 988 619.233 990.250 618.630 C 991.487 618.299, 994.075 618.019, 996 618.010 C 997.925 618, 1000.973 617.094, 1002.774 615.996 C 1004.575 614.898, 1007.187 614, 1008.579 614 C 1010.918 614, 1023.075 621.317, 1023.833 623.181 C 1024.017 623.631, 1024.651 624, 1025.242 624 C 1025.834 624, 1028.609 625.705, 1031.409 627.788 C 1035.832 631.079, 1045.102 637.382, 1050.104 640.500 C 1050.987 641.050, 1054.924 643.704, 1058.854 646.397 L 1066 651.293 1066.179 659.647 C 1066.277 664.241, 1066.389 668.986, 1066.429 670.190 C 1066.483 671.873, 1061.718 676.217, 1045.855 688.940 C 1034.501 698.048, 1023.052 707.413, 1020.414 709.750 C 1017.777 712.087, 1015.254 714, 1014.809 714 C 1013.149 714, 1014.079 716.570, 1016.250 717.981 C 1020.083 720.472, 1023.178 722, 1024.389 722 C 1025.027 722, 1031.163 717.454, 1038.024 711.898 C 1044.886 706.342, 1054.550 698.513, 1059.500 694.500 C 1064.450 690.487, 1069.591 686.032, 1070.924 684.602 C 1073.836 681.477, 1075.821 681.358, 1081 684 C 1086.351 686.730, 1097.075 686.749, 1102.685 684.038 C 1104.919 682.959, 1108.762 679.835, 1111.224 677.095 C 1123.191 663.786, 1117.655 642.522, 1100.528 636.011 L 1097.980 635.042 1098.240 588.348 L 1098.500 541.654 1103.128 539.077 C 1109.140 535.729, 1110.801 534.275, 1113.504 529.994 C 1117.950 522.951, 1118.536 511.473, 1114.789 504.803 C 1107.324 491.511, 1093.556 486.680, 1080.775 492.867 C 1076.016 495.171, 1072.488 495.598, 1071.494 493.991 C 1070.949 493.108, 1059.685 484.580, 1047.500 475.824 C 1038.405 469.288, 1022.264 457.545, 1019 455.089 C 1017.075 453.641, 1012.875 450.677, 1009.667 448.504 C 1004.031 444.687, 1003.855 444.434, 1004.457 441.026 C 1005.326 436.118, 1005.343 433.840, 1004.530 431.369 C 1003.693 428.824, 1006.073 426.312, 1013.500 421.903 C 1016.250 420.270, 1019.175 418.499, 1020 417.966 C 1020.825 417.434, 1022.625 416.547, 1024 415.996 C 1026.436 415.018, 1032.835 411.542, 1044 405.130 C 1047.025 403.393, 1053.659 399.691, 1058.741 396.904 C 1063.824 394.117, 1068.238 391.423, 1068.551 390.918 C 1069.451 389.461, 1074.633 389.852, 1075.983 391.479 C 1077.681 393.525, 1081.985 395.557, 1087.685 397.004 C 1091.781 398.043, 1093.376 397.969, 1098.362 396.510 C 1103.863 394.899, 1112 389.132, 1112 386.843 C 1112 386.335, 1113.013 384.550, 1114.250 382.876 C 1116.123 380.342, 1116.500 378.548, 1116.500 372.166 C 1116.500 363.146, 1114.914 359.149, 1108.981 353.216 C 1104.175 348.410, 1096.116 345.453, 1090.045 346.267 C 1087.857 346.561, 1083.064 348.264, 1079.393 350.052 L 1072.719 353.303 1069.137 351.402 C 1067.166 350.356, 1061.942 347.363, 1057.527 344.751 C 1053.112 342.139, 1049.007 340.001, 1048.405 340.001 C 1047.803 340, 1046.495 339.100, 1045.500 338 C 1044.505 336.900, 1043.330 336, 1042.889 336 C 1042.448 336, 1039.798 334.650, 1037 333 C 1034.202 331.350, 1031.455 330, 1030.897 330 C 1030.339 330, 1028.222 328.692, 1026.191 327.094 C 1024.161 325.495, 1020.250 322.996, 1017.500 321.540 C 1014.750 320.084, 1011.825 318.488, 1011 317.994 C 1009.420 317.047, 1004.847 315.114, 999 312.922 C 997.075 312.201, 994.772 310.798, 993.883 309.805 C 992.993 308.812, 991.396 308, 990.333 308 C 987.117 308, 986 305.886, 986 299.800 C 986 293.931, 985.719 293.544, 981.750 293.948 C 980.425 294.082, 980 293.381, 980 291.063 C 980 289.378, 980.450 288, 981 288 C 983.462 288, 981.862 282.515, 978.502 279.438 C 974.291 275.581, 971.698 274.764, 969.296 276.538 M 980 313 C 980 313.550, 978.902 314, 977.559 314 C 976.216 314, 974.840 314.450, 974.500 315 C 974.160 315.550, 973.033 316, 971.996 316 C 970.320 316, 970.117 316.784, 970.176 323.016 C 970.212 326.874, 970.637 330.276, 971.121 330.575 C 971.604 330.874, 972 334.415, 972 338.445 C 972 342.706, 972.575 346.879, 973.373 348.419 C 974.226 350.062, 974.556 352.761, 974.243 355.533 C 973.911 358.484, 974.123 360, 974.870 360 C 975.499 360, 976 361.582, 976 363.566 C 976 365.527, 976.455 367.982, 977.011 369.021 C 977.567 370.060, 978.068 375.543, 978.125 381.205 C 978.181 386.867, 978.671 391.779, 979.212 392.120 C 979.754 392.461, 980.183 396.161, 980.167 400.342 L 980.137 407.944 983.819 408.966 C 985.843 409.529, 987.869 409.991, 988.320 409.994 C 988.771 409.997, 991.102 411.350, 993.500 413 C 998.731 416.599, 1000.282 416.659, 1005.500 413.463 C 1007.700 412.116, 1010.175 410.710, 1011 410.338 C 1011.825 409.967, 1014.381 408.389, 1016.680 406.832 C 1018.979 405.274, 1021.126 404, 1021.450 404 C 1021.774 404, 1023.810 402.882, 1025.975 401.516 C 1028.139 400.150, 1034.317 396.727, 1039.705 393.909 C 1045.092 391.091, 1049.950 388.444, 1050.500 388.025 C 1051.050 387.607, 1054.200 385.803, 1057.500 384.016 C 1060.800 382.229, 1064.020 380.257, 1064.656 379.634 C 1065.292 379.010, 1065.967 375.143, 1066.156 371.040 C 1066.462 364.404, 1066.279 363.463, 1064.500 362.520 C 1063.400 361.936, 1060.596 360.231, 1058.270 358.730 C 1055.943 357.228, 1053.729 356, 1053.349 356 C 1052.968 356, 1051.831 355.252, 1050.822 354.339 C 1048.747 352.461, 1046.378 351.049, 1040.250 348.038 C 1037.912 346.890, 1036 345.563, 1036 345.089 C 1036 344.615, 1034.444 343.490, 1032.542 342.587 C 1030.641 341.685, 1028.822 340.521, 1028.500 340 C 1027.789 338.849, 1022.434 336.393, 1018.973 335.631 C 1017.583 335.325, 1014.587 333.482, 1012.314 331.537 C 1010.042 329.592, 1007.579 327.990, 1006.841 327.978 C 1006.103 327.966, 1004.375 327.076, 1003 326 C 1001.625 324.924, 1000.007 324.034, 999.405 324.022 C 998.803 324.010, 997.495 323.100, 996.500 322 C 995.505 320.900, 994.184 320, 993.566 320 C 992.947 320, 991.793 319.100, 991 318 C 990.207 316.900, 988.857 316, 988 316 C 987.143 316, 985.793 315.100, 985 314 C 983.511 311.934, 980 311.232, 980 313 M 864.021 322.167 C 859.907 322.534, 856.204 322.626, 855.791 322.371 C 855.151 321.976, 847.215 323.834, 846.131 324.633 C 845.928 324.782, 846.546 325.689, 847.504 326.647 C 848.528 327.671, 850.638 328.350, 852.623 328.294 C 855.308 328.218, 856 328.587, 856 330.099 C 856 331.650, 855.264 332, 852 332 C 849.800 332, 848 332.450, 848 333 C 848 333.550, 846.200 334, 844 334 C 840.667 334, 840 334.333, 840 336 C 840 337.556, 839.333 338, 837 338 C 835.350 338, 834 338.450, 834 339 C 834 339.620, 839.419 340, 848.257 340 C 856.098 340, 863.860 340.377, 865.507 340.837 C 867.212 341.314, 871.577 341.241, 875.651 340.666 C 881.772 339.803, 883.031 339.888, 884.401 341.258 C 886.175 343.033, 886.676 352, 885 352 C 884.376 352, 884 357.844, 884 367.531 C 884 381.409, 884.186 383.132, 885.750 383.712 C 887.708 384.438, 891 387.850, 891 389.153 C 891 389.619, 905.175 390, 922.500 390 C 952.266 390, 954 389.900, 954 388.185 C 954 385.956, 939.280 368, 937.454 368 C 936.731 368, 935.995 366.999, 935.820 365.775 C 935.644 364.551, 934.535 363.071, 933.357 362.486 C 929.617 360.629, 927.775 358.640, 925.978 354.514 C 925.017 352.306, 922.828 349.178, 921.115 347.563 C 919.402 345.948, 918 344.024, 918 343.288 C 918 342.552, 916.875 341.523, 915.500 341 C 914.125 340.477, 913 339.574, 913 338.993 C 913 338.411, 909.625 334.517, 905.500 330.338 C 901.375 326.159, 898 322.461, 898 322.120 C 898 321.292, 873.442 321.327, 864.021 322.167 M 838.500 417 C 838.155 417.558, 833.490 418, 827.941 418 C 821.980 418, 818 418.400, 818 419 C 818 419.556, 815.333 420, 812 420 C 808.700 420, 806 420.360, 806 420.800 C 806 422.869, 808.898 424, 814.200 424 C 819.333 424, 820 424.230, 820 426 C 820 427.556, 819.333 428, 817 428 C 815.350 428, 814 428.450, 814 429 C 814 429.550, 811.750 430, 809 430 C 806.250 430, 804 430.450, 804 431 C 804 431.550, 804.450 432, 805 432 C 805.550 432, 806 432.675, 806 433.500 C 806 434.500, 805 435, 803 435 C 801 435, 800 435.500, 800 436.500 C 800 437.816, 807.820 438.019, 863.750 438.158 C 898.813 438.246, 928.400 438.232, 929.500 438.129 C 933.383 437.765, 936.140 433.723, 936.434 427.961 C 936.689 422.968, 936.478 422.419, 933.103 419.319 L 929.500 416.010 884.309 416.005 C 855.255 416.002, 838.897 416.357, 838.500 417 M 793.250 431.662 C 790.644 432.714, 792.156 434, 796 434 C 798.889 434, 800 433.583, 800 432.500 C 800 431.019, 796.056 430.530, 793.250 431.662 M 814 465 C 814 465.556, 811.333 466, 808 466 C 804.667 466, 802 466.444, 802 467 C 802 467.593, 798.333 468, 793 468 C 784.667 468, 784 468.148, 784 470 C 784 471.833, 784.667 472, 792 472 C 799.333 472, 800 472.167, 800 474 C 800 475.556, 799.333 476, 797 476 C 795.350 476, 794 476.450, 794 477 C 794 477.550, 791.750 478, 789 478 C 784.667 478, 784 478.267, 784 480 C 784 481.879, 783.333 482, 773 482 C 766.333 482, 762 482.394, 762 483 C 762 483.611, 766.639 484, 773.917 484 C 780.834 484, 785.973 484.413, 786.167 484.983 C 786.381 485.615, 812.436 485.991, 859 486.034 L 931.500 486.101 934.048 483.081 C 936.140 480.600, 936.566 479.122, 936.430 474.821 C 936.283 470.201, 935.869 469.254, 932.920 466.792 L 929.576 464 871.788 464 C 833.929 464, 814 464.345, 814 465 M 806 513.063 C 806 513.647, 805.212 514.020, 804.250 513.892 C 803.288 513.763, 800.690 514.175, 798.478 514.806 C 796.265 515.438, 790.640 516.020, 785.978 516.100 C 774.486 516.297, 774 516.474, 774 520.450 C 774 523.660, 773.870 523.766, 769.854 523.821 C 764.295 523.898, 760 525.772, 760 528.121 C 760 529.859, 759.064 530, 747.500 530 C 739.833 530, 735 530.387, 735 531 C 735 531.593, 738.667 532, 744 532 C 749.333 532, 753 532.407, 753 533 C 753 533.578, 756.167 534, 760.500 534 C 764.833 534, 768 533.578, 768 533 C 768 531.692, 785.721 531.670, 786.167 532.978 C 786.379 533.602, 812.705 533.992, 858.901 534.054 L 931.302 534.153 933.786 531.668 C 935.741 529.714, 936.307 528.057, 936.438 523.902 C 936.582 519.369, 936.195 518.152, 933.699 515.310 L 930.793 512 868.396 512 C 825.005 512, 806 512.324, 806 513.063 M 1062.500 545.971 C 1057 550.347, 1050.700 555.311, 1048.500 557.003 C 1046.300 558.694, 1042.641 561.523, 1040.369 563.289 C 1038.097 565.055, 1031.684 570.024, 1026.119 574.331 L 1016 582.163 1016 591.997 L 1016 601.832 1019.754 604.666 C 1021.819 606.225, 1024.236 607.950, 1025.126 608.500 C 1026.015 609.050, 1036.916 616.362, 1049.348 624.750 C 1061.781 633.138, 1072.841 640, 1073.926 640 C 1075.012 640, 1077.879 638.664, 1080.298 637.032 L 1084.696 634.063 1085.348 624.878 C 1086.347 610.803, 1086.123 546.453, 1085.065 543.671 C 1084 540.869, 1078.943 537.996, 1075.096 538.008 C 1073.364 538.013, 1069.174 540.662, 1062.500 545.971 M 789 561 C 789 561.550, 788.325 562, 787.500 562 C 786.675 562, 786 562.450, 786 563 C 786 564.378, 768.274 564.322, 767.814 562.943 C 767.391 561.674, 764 562.792, 764 564.201 C 764 564.743, 764.858 565.412, 765.908 565.686 C 766.957 565.960, 768.040 567.043, 768.314 568.092 C 768.614 569.241, 769.689 570, 771.015 570 C 772.883 570, 773.119 570.391, 772.568 572.583 C 772.051 574.645, 772.332 575.274, 773.960 575.700 C 775.082 575.993, 776 576.646, 776 577.150 C 776 577.655, 777.510 578.958, 779.356 580.048 C 782.619 581.973, 784.771 582.028, 857.106 582.041 L 931.500 582.055 934.224 579.041 C 936.583 576.430, 936.901 575.344, 936.592 570.941 C 936.318 567.026, 935.590 565.182, 933.431 562.928 L 930.626 560 859.813 560 C 813.271 560, 789 560.343, 789 561 M 830.211 609.250 C 830.419 609.938, 833.397 611.906, 836.828 613.625 C 840.259 615.344, 843.839 617.404, 844.783 618.203 C 847.434 620.447, 853.963 624, 855.435 624 C 856.161 624, 857.291 624.646, 857.946 625.435 C 858.600 626.224, 861.018 627.873, 863.318 629.099 C 867.296 631.220, 868.884 631.351, 895.814 631.764 C 911.387 632.003, 925.576 631.927, 927.346 631.595 C 929.116 631.263, 932.016 629.665, 933.791 628.043 C 936.839 625.260, 936.996 624.774, 936.619 619.340 C 936.277 614.412, 935.770 613.184, 933.094 610.793 L 929.968 608 879.901 608 C 840.312 608, 829.912 608.262, 830.211 609.250 M 790 622 C 790 624.275, 787.528 624.671, 785.567 622.710 C 784.138 621.281, 776 621.616, 776 623.105 C 776 623.597, 776.900 624, 778 624 C 779.443 624, 780 624.667, 780 626.393 C 780 629.227, 778.376 630, 772.418 630 C 768.176 630, 768 630.119, 768 633 C 768 635.333, 767.556 636, 766 636 C 764.667 636, 764 636.667, 764 638 C 764 639.100, 763.550 640, 763 640 C 762.450 640, 762 641.157, 762 642.571 C 762 645.208, 759.980 648, 758.071 648 C 757.482 648, 757 649.350, 757 651 C 757 653.333, 756.556 654, 755 654 C 753.900 654, 753 654.418, 753 654.929 C 753 655.439, 752.217 656.641, 751.259 657.598 C 750.007 658.850, 749.867 659.456, 750.759 659.753 C 752.844 660.448, 752.140 662.841, 749.750 663.180 C 747.864 663.448, 747.551 664.026, 747.814 666.750 C 748.047 669.165, 747.726 670, 746.564 670 C 745.704 670, 745 670.450, 745 671 C 745 671.550, 742.975 672, 740.500 672 L 736 672 736 677.633 C 736 682.205, 735.582 683.628, 733.782 685.189 C 732.056 686.686, 731.858 687.294, 732.889 687.931 C 734.881 689.163, 733.317 692.704, 730.464 693.420 C 729.109 693.760, 728 694.480, 728 695.019 C 728 695.559, 727.100 696, 726 696 C 724.667 696, 724 696.667, 724 698 C 724 700.232, 720.455 700.865, 719.753 698.759 C 719.452 697.856, 718.884 697.973, 717.670 699.188 C 715.057 701.800, 715.652 702.319, 720.500 701.655 C 723.947 701.183, 725 701.359, 725 702.411 C 725 703.166, 723.875 704.066, 722.500 704.411 C 719.517 705.159, 719.162 707, 722 707 C 723.111 707, 724 707.667, 724 708.500 C 724 709.333, 723.111 710, 722 710 C 720.900 710, 720 709.550, 720 709 C 720 708.450, 719.100 708, 718 708 C 716.444 708, 716 708.667, 716 711 C 716 713.303, 715.549 714, 714.059 714 C 712.991 714, 711.840 713.550, 711.500 713 C 711.160 712.450, 709.821 712, 708.524 712 C 707.228 712, 705.966 711.438, 705.720 710.750 C 704.909 708.478, 703.747 710.856, 704.399 713.453 C 704.869 715.326, 705.695 716, 707.519 716 C 709.006 716, 710 716.574, 710 717.433 C 710 718.221, 710.900 719.151, 712 719.500 C 713.100 719.849, 714 720.554, 714 721.067 C 714 721.580, 714.900 722, 716 722 C 717.100 722, 718 722.450, 718 723 C 718 723.550, 718.694 724, 719.542 724 C 720.390 724, 722.050 724.900, 723.230 726 C 724.411 727.100, 725.967 728, 726.689 728 C 727.410 728, 728 728.450, 728 729 C 728 729.550, 728.793 730, 729.763 730 C 730.732 730, 732.368 731.123, 733.399 732.495 C 735.325 735.060, 740.268 738, 742.654 738 C 743.394 738, 744 738.450, 744 739 C 744 739.550, 744.900 740, 746 740 C 747.100 740, 748 740.395, 748 740.879 C 748 741.362, 749.462 742.341, 751.250 743.054 C 753.038 743.768, 756.587 746.268, 759.138 748.611 C 762.411 751.617, 764.370 752.716, 765.792 752.344 C 767.230 751.968, 767.997 752.416, 768.471 753.909 C 768.836 755.059, 769.719 756, 770.433 756 C 771.146 756, 772.805 756.846, 774.119 757.879 C 776.260 759.563, 783.922 763.975, 791.145 767.684 C 792.599 768.430, 794.342 769.707, 795.017 770.521 C 795.692 771.334, 796.633 772, 797.107 772 C 797.582 772, 800.164 773.350, 802.846 775 C 805.527 776.650, 808.576 778, 809.620 778 C 810.664 778, 812.058 778.863, 812.717 779.919 C 813.376 780.974, 816.522 783.241, 819.708 784.957 C 822.894 786.672, 826.962 789.402, 828.750 791.024 C 831.690 793.690, 832 794.514, 832 799.657 C 832 805.053, 831.780 805.553, 827.691 809.471 C 825.321 811.742, 821.384 814.610, 818.941 815.845 C 816.499 817.080, 812.025 819.619, 809 821.489 C 805.975 823.358, 801.615 825.812, 799.311 826.941 C 797.006 828.071, 794.825 829.474, 794.464 830.059 C 794.102 830.644, 792.837 831.553, 791.653 832.078 C 790.469 832.604, 787.475 834.204, 785 835.634 C 782.525 837.064, 778.025 839.553, 775 841.165 C 771.975 842.778, 769.048 844.685, 768.496 845.403 C 767.944 846.121, 766.369 847.065, 764.996 847.501 C 763.623 847.936, 760.700 849.450, 758.500 850.865 C 756.300 852.280, 752.700 854.374, 750.500 855.519 C 748.300 856.663, 745.170 858.477, 743.544 859.550 C 741.918 860.622, 738.905 862.400, 736.847 863.500 C 734.790 864.600, 729.640 867.525, 725.404 870 C 721.168 872.475, 714.923 876.075, 711.528 878 C 708.133 879.925, 698.736 885.325, 690.647 890 C 682.558 894.675, 675.147 898.950, 674.179 899.500 C 673.210 900.050, 666.418 904.073, 659.084 908.439 C 647.042 915.609, 645.268 916.371, 640.766 916.303 C 635.328 916.221, 631.383 914.026, 629.265 909.904 C 628.326 908.076, 628.026 893.181, 628.015 847.750 C 628 788.672, 627.978 788, 626 788 C 624.636 788, 624 787.333, 624 785.903 C 624 783.898, 623.589 783.822, 614.495 784.153 C 605.567 784.479, 604.847 784.667, 602.629 787.250 C 601.330 788.763, 599.307 790, 598.134 790 C 596.851 790, 596 790.634, 596 791.588 C 596 792.886, 595.271 793.053, 592 792.500 C 588.190 791.856, 588 791.947, 588 794.412 C 588 796.333, 587.485 797, 586 797 C 584.900 797, 584 797.482, 584 798.071 C 584 799.456, 581.456 802, 580.071 802 C 579.482 802, 579 801.550, 579 801 C 579 800.450, 578.325 800, 577.500 800 C 576.675 800, 576 800.675, 576 801.500 C 576 802.500, 575 803, 573 803 C 570.686 803, 570 803.449, 570 804.961 C 570 806.459, 568.776 807.286, 564.818 808.461 C 561.969 809.308, 559.060 810, 558.354 810 C 557.648 810, 556.589 810.900, 556 812 C 555.411 813.100, 554.270 814, 553.465 814 C 552.659 814, 552 814.450, 552 815 C 552 815.633, 544.667 816, 532 816 L 512 816 512 820 L 512 824 507.083 824 C 504.379 824, 502.017 824.417, 501.833 824.926 C 501.650 825.435, 500.262 826.159, 498.750 826.534 C 496.132 827.184, 496 827.044, 496 823.608 C 496 821.624, 495.550 820, 495 820 C 494.450 820, 494 820.900, 494 822 C 494 823.100, 493.550 824, 493 824 C 492.450 824, 492 825.350, 492 827 C 492 829.333, 491.556 830, 490 830 C 488.190 830, 488 829.333, 488 823 C 488 819, 487.571 816, 487 816 C 486.396 816, 486 820.189, 486 826.566 C 486 832.377, 485.595 837.889, 485.101 838.816 C 484.587 839.778, 484.076 894.501, 483.909 966.500 C 483.670 1069.117, 483.860 1093.057, 484.934 1095.500 C 489.180 1105.158, 491.056 1108.084, 496.486 1113.509 C 503.880 1120.897, 510.301 1124.419, 520.432 1126.646 C 527.214 1128.136, 529.178 1128.192, 535.767 1127.085 C 539.923 1126.387, 544.150 1125.407, 545.161 1124.908 C 548.839 1123.092, 557.894 1118.240, 560.500 1116.688 C 561.600 1116.033, 567.900 1112.435, 574.500 1108.693 C 581.100 1104.951, 587.175 1101.467, 588 1100.952 C 588.825 1100.437, 593.550 1097.705, 598.500 1094.880 C 603.450 1092.055, 609.075 1088.825, 611 1087.703 C 612.925 1086.581, 617.425 1084.014, 621 1082 C 624.575 1079.985, 629.975 1076.848, 633 1075.029 C 638.491 1071.726, 641.675 1069.877, 648.750 1065.883 C 650.813 1064.719, 653.625 1062.992, 655 1062.046 C 656.375 1061.100, 658.334 1060.023, 659.354 1059.654 C 660.374 1059.285, 665.549 1056.348, 670.854 1053.127 C 676.159 1049.906, 682.525 1046.141, 685 1044.761 C 687.475 1043.380, 695.054 1039.044, 701.843 1035.125 C 708.631 1031.206, 714.310 1028, 714.461 1028 C 714.612 1028, 720.083 1024.780, 726.618 1020.844 C 737.930 1014.030, 739.994 1012.822, 748.750 1007.886 C 757.557 1002.921, 761.915 1000.400, 768.733 996.324 C 772.711 993.946, 776.242 992, 776.579 992 C 776.916 992, 778.386 991.169, 779.846 990.153 C 781.306 989.137, 784.975 986.957, 788 985.309 C 791.025 983.661, 798.154 979.543, 803.843 976.157 C 809.532 972.770, 814.336 970, 814.520 970 C 814.703 970, 818.436 967.801, 822.816 965.113 C 827.195 962.425, 833.191 958.891, 836.139 957.260 C 839.088 955.629, 843.300 953.265, 845.500 952.006 C 847.700 950.747, 851.525 948.592, 854 947.217 C 856.475 945.843, 861.650 942.831, 865.500 940.525 C 869.350 938.219, 874.975 934.973, 878 933.313 C 881.025 931.652, 885.975 928.814, 889 927.007 C 894.707 923.597, 898.368 921.479, 904.750 917.893 C 906.813 916.735, 908.950 915.432, 909.500 914.998 C 910.050 914.564, 912.638 913.037, 915.250 911.605 C 922.181 907.804, 928.023 904.555, 932 902.288 C 935.764 900.142, 955.524 888.546, 958 887.030 C 958.825 886.525, 964.675 883.162, 971 879.558 C 977.325 875.954, 983.625 872.342, 985 871.531 C 999.747 862.833, 1008.112 858, 1008.421 858 C 1008.627 858, 1011.879 856.125, 1015.648 853.833 C 1019.417 851.541, 1024.975 848.318, 1028 846.670 C 1034.940 842.890, 1044.875 836.215, 1047.537 833.544 C 1057.613 823.431, 1062.673 806.540, 1060.167 791.389 C 1058.150 779.196, 1049.185 765.592, 1039.500 760.027 C 1026.194 752.381, 1022.146 750.076, 1017 747.217 C 1014.525 745.843, 1009.350 742.831, 1005.500 740.526 C 1001.650 738.221, 995.350 734.628, 991.500 732.543 C 987.650 730.457, 984.050 728.409, 983.500 727.990 C 982.950 727.572, 978.900 725.312, 974.500 722.967 C 970.100 720.623, 965.790 718.096, 964.921 717.352 C 964.053 716.609, 962.997 716, 962.576 716 C 962.154 716, 960.614 715.153, 959.154 714.117 C 957.694 713.081, 954.813 711.281, 952.750 710.117 C 950.688 708.953, 947.313 707.031, 945.250 705.846 C 943.188 704.661, 938.575 702.121, 935 700.202 C 931.425 698.283, 927.790 696.102, 926.921 695.356 C 926.053 694.610, 925.060 694, 924.715 694 C 924.370 694, 921.706 692.587, 918.794 690.860 C 915.882 689.133, 912.038 686.883, 910.250 685.860 C 908.462 684.837, 905.538 683.163, 903.750 682.141 C 901.962 681.118, 896.065 677.713, 890.644 674.575 C 871.609 663.552, 864.736 660, 862.446 660 C 861.047 660, 859.895 659.244, 859.527 658.084 C 859.192 657.030, 857.699 655.686, 856.209 655.098 C 853.443 654.006, 852.662 653.550, 845.336 648.750 C 843.028 647.237, 840.756 646, 840.286 646 C 839.817 646, 836.973 644.403, 833.966 642.451 C 830.960 640.500, 826.925 638.152, 825 637.234 C 823.075 636.316, 819.992 634.550, 818.149 633.309 C 816.307 632.068, 813.269 630.766, 811.399 630.415 C 809.530 630.064, 808 629.377, 808 628.889 C 808 628.400, 807.100 628, 806 628 C 804.900 628, 804 627.634, 804 627.187 C 804 626.739, 802.415 625.751, 800.478 624.992 C 798.542 624.232, 796.222 622.798, 795.323 621.805 C 793.094 619.341, 790 619.454, 790 622" stroke="none" fill="#6639b6" fill-rule="evenodd"></path><path d="M 478 1219.620 C 471.426 1220.441, 461.296 1224.265, 455.954 1227.943 C 445.762 1234.959, 440.797 1246.384, 442.968 1257.830 C 445.686 1272.166, 453.747 1277.979, 480.500 1284.896 C 503.652 1290.882, 506 1292.238, 506 1299.623 C 506 1303.373, 505.549 1304.242, 502.324 1306.699 C 498.704 1309.458, 498.444 1309.499, 485.074 1309.439 C 472.747 1309.383, 470.857 1309.126, 464.500 1306.647 C 460.650 1305.145, 455.822 1302.810, 453.771 1301.458 C 451.721 1300.106, 449.813 1299, 449.531 1299 C 449.250 1299, 446.947 1303.128, 444.413 1308.173 L 439.806 1317.345 442.153 1319.152 C 447.806 1323.503, 460.528 1328.103, 472 1329.942 C 487.500 1332.428, 504.278 1330.239, 515.173 1324.309 C 533.100 1314.552, 537.528 1291.094, 523.838 1278.407 C 516.931 1272.007, 510.762 1269.499, 489.652 1264.512 C 473.129 1260.609, 468 1257.391, 468 1250.929 C 468 1247.936, 468.677 1246.613, 471.458 1244.171 C 475.452 1240.664, 481.048 1239.422, 491.351 1239.756 C 499.694 1240.026, 504.668 1241.296, 512.418 1245.134 C 515.672 1246.746, 518.659 1247.713, 519.054 1247.282 C 519.449 1246.852, 521.401 1242.703, 523.391 1238.062 C 527.316 1228.912, 527.426 1229.468, 521 1226.074 C 513.697 1222.216, 504.025 1220.005, 492.638 1219.589 C 486.512 1219.365, 479.925 1219.379, 478 1219.620 M 1304.500 1219.632 C 1289.473 1221.954, 1274.914 1230.149, 1266.844 1240.827 C 1250.153 1262.914, 1251.184 1292.564, 1269.337 1312.528 C 1275.664 1319.487, 1282.906 1324.108, 1293.165 1327.733 C 1303.329 1331.325, 1321.002 1331.577, 1331.500 1328.282 C 1349.178 1322.731, 1361.779 1310.696, 1367.808 1293.602 C 1371.290 1283.731, 1371.413 1267.600, 1368.081 1258 C 1361.738 1239.729, 1348.530 1227.099, 1330 1221.587 C 1324.371 1219.912, 1309.876 1218.801, 1304.500 1219.632 M 230 1275 L 230 1329 242.474 1329 L 254.948 1329 255.224 1313.750 L 255.500 1298.500 266.066 1298.218 C 275.177 1297.975, 276.845 1298.182, 278.179 1299.718 C 279.030 1300.698, 283.880 1307.688, 288.957 1315.250 L 298.187 1329 311.594 1329 C 318.967 1329, 325 1328.734, 325 1328.409 C 325 1328.083, 320.220 1320.833, 314.377 1312.298 C 308.535 1303.762, 303.541 1295.961, 303.280 1294.963 C 302.943 1293.675, 303.925 1292.441, 306.658 1290.716 C 311.902 1287.406, 317.694 1280.804, 320.298 1275.170 C 323.377 1268.510, 323.378 1250.650, 320.301 1244 C 315.531 1233.694, 305.942 1226.438, 292.572 1223.018 C 285.601 1221.236, 281.490 1221, 257.340 1221 L 230 1221 230 1275 M 343 1275 L 343 1329 386.036 1329 L 429.072 1329 428.786 1319.250 L 428.500 1309.500 398.500 1309 L 368.500 1308.500 368.219 1296.250 L 367.938 1284 393.469 1284 L 419 1284 419 1274 L 419 1264 393.467 1264 L 367.934 1264 368.217 1252.750 L 368.500 1241.500 397.250 1241.235 L 426 1240.969 426 1230.985 L 426 1221 384.500 1221 L 343 1221 343 1275 M 548.478 1227.361 C 548.103 1230.859, 548.010 1246.947, 548.270 1263.111 C 548.799 1295.895, 549.437 1299.976, 555.641 1310.217 C 564.360 1324.609, 580.856 1331.870, 602.072 1330.654 C 624.594 1329.363, 639.368 1318.203, 644.639 1298.500 C 645.638 1294.765, 645.979 1284.326, 645.988 1257.250 L 646 1221 634.069 1221 L 622.137 1221 621.819 1256.250 L 621.500 1291.500 618.652 1297.301 C 616.686 1301.304, 614.538 1303.938, 611.721 1305.801 C 607.989 1308.269, 606.804 1308.500, 597.904 1308.500 C 588.696 1308.500, 587.938 1308.337, 583.889 1305.491 C 578.596 1301.769, 575.194 1295.398, 573.967 1286.908 C 573.457 1283.384, 573.031 1267.112, 573.020 1250.750 L 573 1221 561.080 1221 L 549.159 1221 548.478 1227.361 M 671 1274.966 L 671 1329 683 1329 L 695 1329 695 1299 C 695 1275.648, 695.277 1269.008, 696.250 1269.036 C 696.938 1269.055, 700.390 1273.893, 703.923 1279.786 C 707.455 1285.679, 714.198 1296.706, 718.907 1304.292 L 727.470 1318.083 733.454 1317.792 L 739.438 1317.500 754.064 1293 C 762.373 1279.083, 769.406 1268.360, 770.345 1268.177 C 771.856 1267.882, 772 1270.518, 772 1298.427 L 772 1329 783.500 1329 L 795 1329 795 1275 L 795 1221 784.171 1221 L 773.343 1221 754.305 1252.750 C 741.050 1274.856, 734.741 1284.500, 733.536 1284.500 C 732.370 1284.500, 727.950 1278.299, 719.993 1265.500 C 713.497 1255.050, 704.623 1240.875, 700.273 1234 L 692.365 1221.500 681.683 1221.216 L 671 1220.932 671 1274.966 M 821 1275 L 821 1329 833.500 1329 L 846 1329 846 1275 L 846 1221 833.500 1221 L 821 1221 821 1275 M 870.257 1257.750 C 870.578 1287.982, 870.929 1295.319, 872.236 1299.119 C 879.187 1319.322, 893.011 1329.279, 916 1330.640 C 926.695 1331.273, 936.512 1329.650, 944.396 1325.944 C 950.793 1322.937, 958.980 1315.290, 962.266 1309.253 C 967.422 1299.780, 967.969 1294.706, 967.985 1256.250 L 968 1221 955.750 1221 L 943.500 1221 943.495 1255.250 C 943.490 1293.907, 943.090 1296.577, 936.282 1303.385 C 931.620 1308.047, 927.238 1309.314, 917.329 1308.863 C 908.364 1308.455, 904.171 1306.382, 900.003 1300.299 C 895.529 1293.770, 895 1288.854, 895 1253.782 L 895 1221 882.434 1221 L 869.867 1221 870.257 1257.750 M 1038 1275 L 1038 1329 1046 1329 L 1054 1329 1054 1312.500 L 1054 1296 1070.668 1296 C 1090.050 1296, 1098.014 1294.866, 1106.994 1290.826 C 1120.763 1284.632, 1127.654 1272.684, 1126.804 1256.482 C 1125.865 1238.602, 1115.556 1226.937, 1096.781 1222.511 C 1092.080 1221.402, 1083.896 1221.026, 1064.250 1221.015 L 1038 1221 1038 1275 M 1149 1275 L 1149 1329 1157 1329 L 1165 1329 1165 1312.500 L 1165 1296 1182.332 1296 L 1199.664 1296 1206.022 1305.250 C 1209.518 1310.338, 1214.772 1317.763, 1217.697 1321.750 L 1223.014 1329 1231.507 1329 C 1236.178 1329, 1240 1328.756, 1240 1328.458 C 1240 1328.160, 1238.611 1326.022, 1236.914 1323.708 C 1225.813 1308.572, 1216.002 1294.329, 1216.001 1293.345 C 1216.001 1292.710, 1218.405 1290.834, 1221.344 1289.175 C 1227.704 1285.586, 1231.402 1281.449, 1234.910 1274 C 1237.157 1269.228, 1237.500 1267.177, 1237.500 1258.500 C 1237.500 1249.818, 1237.157 1247.769, 1234.899 1242.954 C 1231.361 1235.412, 1227.160 1230.895, 1220.285 1227.242 C 1209.781 1221.661, 1205.051 1221, 1175.606 1221 L 1149 1221 1149 1275 M 1304.500 1233.965 C 1296.296 1235.308, 1290.237 1238.578, 1283.538 1245.277 C 1273.597 1255.217, 1270.305 1264.037, 1271.272 1278.139 C 1272.968 1302.880, 1294.523 1319.613, 1320.038 1315.995 C 1355.752 1310.930, 1367.385 1263.711, 1338.377 1241.561 C 1329.809 1235.020, 1316.408 1232.015, 1304.500 1233.965 M 1054.232 1258.172 L 1054.500 1282.500 1069 1282.794 C 1083.784 1283.093, 1094.255 1281.954, 1098.931 1279.536 C 1108.750 1274.458, 1113.410 1261.775, 1109.837 1249.850 C 1108.391 1245.022, 1100.730 1237.639, 1095.382 1235.918 C 1093.086 1235.179, 1083.832 1234.500, 1072.732 1234.256 L 1053.964 1233.844 1054.232 1258.172 M 1165.485 1235.178 C 1165.197 1235.929, 1165.082 1246.884, 1165.231 1259.522 L 1165.500 1282.500 1184.573 1282.500 L 1203.645 1282.500 1209.534 1279.487 C 1213.470 1277.474, 1216.430 1275.041, 1218.461 1272.151 C 1221.319 1268.085, 1221.500 1267.274, 1221.500 1258.512 C 1221.500 1249.670, 1221.341 1248.976, 1218.372 1244.848 C 1216.311 1241.983, 1213.241 1239.478, 1209.372 1237.503 C 1203.564 1234.538, 1203.296 1234.501, 1184.755 1234.159 C 1169.598 1233.879, 1165.909 1234.074, 1165.485 1235.178 M 257.250 1241.638 C 255.018 1242.135, 255 1242.287, 255 1260.159 L 255 1278.179 270.326 1277.840 C 285.193 1277.510, 285.780 1277.416, 289.905 1274.684 C 302.194 1266.545, 299.887 1247.859, 286 1243.064 C 282.366 1241.809, 261.193 1240.759, 257.250 1241.638" stroke="none" fill="#002a61" fill-rule="evenodd"></path></svg>