<svg xmlns="http://www.w3.org/2000/svg" viewBox="0 0 976 878" version="1.1">
    <!-- <path
        d="M 1 439 L 1 877 488 877 L 975 877 975 439 L 975 1 488 1 L 1 1 1 439 M 672.500 48.728 C 671.400 49.001, 659.250 52.952, 645.500 57.510 C 631.750 62.067, 608.350 69.690, 593.500 74.450 C 559.364 85.392, 558 85.892, 558 87.475 C 558 88.195, 561.938 92.083, 566.750 96.115 C 580.196 107.378, 586 113.113, 586 115.134 C 586 116.149, 583.862 119.398, 581.250 122.355 C 578.638 125.311, 574.817 129.872, 572.761 132.490 C 570.704 135.108, 566.654 139.955, 563.761 143.262 C 560.867 146.569, 553.325 155.661, 547 163.466 C 540.675 171.271, 530.791 183.471, 525.036 190.578 C 519.280 197.685, 508.014 211.375, 500 221 C 491.986 230.625, 482.520 242.062, 478.964 246.415 C 463.072 265.872, 457.551 272.576, 456.562 273.618 C 455.978 274.232, 453.250 277.564, 450.500 281.022 C 447.750 284.480, 443.666 289.377, 441.424 291.904 C 439.183 294.432, 434.776 299.762, 431.632 303.750 C 428.487 307.738, 425.305 311, 424.560 311 C 422.995 311, 417.013 304.299, 397.109 280.250 C 388.929 270.367, 382.111 263, 381.144 263 C 379.350 263, 373.219 270.030, 358.028 289.500 C 352.878 296.100, 346.103 304.425, 342.972 308 C 339.841 311.575, 333.674 319, 329.268 324.500 C 320.406 335.563, 317.300 339, 316.162 339 C 315.745 339, 315.273 297.940, 315.116 247.756 C 314.901 179.708, 314.533 156.324, 313.664 155.771 C 313.024 155.364, 307.868 155.024, 302.207 155.015 L 291.914 155 291.987 272.750 C 292.027 337.513, 292.337 396.472, 292.676 403.772 L 293.293 417.044 303.397 416.417 C 314.755 415.712, 335.968 417.189, 348.901 419.585 C 370.713 423.626, 401.705 436.710, 417.075 448.367 C 428.042 456.685, 441.441 470.763, 447.066 479.879 C 449.483 483.796, 451.978 487, 452.612 487 C 453.445 487, 453.623 483.619, 453.255 474.750 C 452.677 460.817, 451.816 458.431, 443.058 446.500 C 431.126 430.246, 411.365 410.889, 395.384 399.801 C 375.310 385.875, 350.178 377.793, 337.750 381.269 C 336.237 381.692, 335 381.641, 335 381.155 C 335 380.210, 344.065 368.406, 352.858 357.901 C 374.538 331.999, 377.314 328.914, 378.171 329.771 C 378.682 330.282, 389.557 344.603, 402.338 361.594 C 415.118 378.585, 426.300 392.627, 427.186 392.797 C 428.216 392.996, 431.471 389.750, 436.204 383.804 C 454.506 360.812, 471.974 339.038, 477.315 332.556 C 480.514 328.675, 484.948 323.250, 487.170 320.500 C 492.202 314.273, 519.178 281.632, 549.855 244.653 C 562.700 229.169, 574.850 214.488, 576.855 212.029 C 578.860 209.570, 583.200 204.417, 586.500 200.579 C 589.800 196.740, 595.425 189.923, 599 185.430 C 614.365 166.118, 625.247 153, 625.902 153 C 626.288 153, 632.851 159.092, 640.484 166.538 C 648.515 174.372, 655.024 179.952, 655.932 179.781 C 657.170 179.547, 658.387 174.126, 661.720 153.992 C 664.041 139.972, 667.579 119.275, 669.582 108 C 675.774 73.136, 678.982 53.617, 678.991 50.750 C 679 47.902, 677.596 47.465, 672.500 48.728 M 333 201.889 C 333 271.736, 333.237 287, 334.321 287 C 335.047 287, 337.898 284.188, 340.655 280.750 C 343.413 277.313, 350.752 268.650, 356.964 261.500 C 363.175 254.350, 370.562 245.848, 373.379 242.607 C 376.196 239.366, 379.088 235.879, 379.807 234.857 C 380.525 233.836, 381.650 233.030, 382.307 233.067 C 383.495 233.133, 410.238 265.306, 418.200 276.250 C 420.502 279.413, 422.924 282, 423.583 282 C 424.242 282, 428.296 277.613, 432.592 272.250 C 436.888 266.887, 443.012 259.451, 446.202 255.724 L 452 248.949 452 214.744 L 452 180.539 441.750 170.446 C 436.113 164.894, 428.125 157.841, 424 154.772 C 401.214 137.820, 365.442 122.514, 336.750 117.441 L 333 116.777 333 201.889 M 538.814 132.493 C 535.687 134.317, 530.737 137.373, 527.814 139.286 C 524.891 141.198, 518.900 144.981, 514.500 147.691 C 510.100 150.401, 498.738 157.725, 489.250 163.967 L 472 175.317 472 198.232 C 472 216.684, 472.257 221.084, 473.317 220.823 C 475.068 220.394, 493.844 199.160, 505 184.993 C 507.475 181.850, 515.350 172.187, 522.500 163.520 C 540.822 141.311, 548 131.983, 548 130.384 C 548 128.207, 544.976 128.901, 538.814 132.493 M 618.503 189.691 C 614.655 194.414, 609.647 200.803, 607.374 203.889 C 605.101 206.975, 600.713 212.391, 597.621 215.926 L 592 222.351 592 297.536 L 592 372.721 584.021 375.432 C 579.632 376.923, 575.582 377.860, 575.021 377.513 C 574.343 377.094, 574 355.034, 574 311.941 C 574 256.165, 573.797 247, 572.564 247 C 571.774 247, 566.767 252.287, 561.436 258.750 C 556.106 265.212, 550.061 272.525, 548.002 275 C 545.943 277.475, 541.275 283.095, 537.629 287.488 L 531 295.477 531 345.199 L 531 394.921 523.510 400.461 C 519.390 403.507, 515.340 406, 514.510 406 C 513.188 406, 513 400.840, 513 364.500 C 513 329.637, 512.777 323, 511.603 323 C 509.891 323, 502.409 331.439, 485.164 352.822 L 472 369.144 472 428.072 C 472 474.570, 472.264 486.991, 473.250 486.959 C 473.938 486.937, 476.382 483.899, 478.682 480.209 C 490.022 462.013, 510.935 443.895, 532.578 433.514 C 557.375 421.621, 584.355 416.035, 617.125 416.009 L 627.750 416 628.196 413.250 C 628.522 411.240, 628.387 203.671, 628.047 183.750 C 628.021 182.213, 627.449 181.023, 626.750 181.051 C 626.063 181.080, 622.351 184.967, 618.503 189.691 M 397 544.500 L 397 559 388 559 L 379 559 379 572.500 L 379 586 388 586 L 397 586 397.020 610.250 C 397.031 623.587, 397.493 637.650, 398.047 641.500 C 400.495 658.506, 410.731 670.428, 426.500 674.641 C 432.612 676.273, 448.997 676.404, 456.201 674.877 C 462.827 673.472, 469 670.411, 469 668.529 C 469 666.570, 462.127 647.727, 461.002 646.602 C 460.461 646.061, 457.829 646.409, 454.462 647.468 C 444.528 650.593, 437.366 648.221, 433.938 640.672 C 432.238 636.928, 432.042 633.857, 432.022 610.750 L 432 585 446.500 585 L 461 585 461 572 L 461 559 446.500 559 L 432 559 432 544.500 L 432 530 414.500 530 L 397 530 397 544.500 M 295.500 555.586 C 282.995 558.361, 271.361 564.959, 263.150 573.932 C 244.177 594.669, 242.228 626.919, 258.469 651.387 C 265.538 662.037, 280.310 671.427, 295 674.608 C 304.967 676.766, 325.219 676.779, 334.250 674.633 C 337.963 673.751, 343.588 671.720, 346.750 670.120 C 352.914 667.001, 362.001 659.580, 361.999 657.665 C 361.998 657.024, 360.986 655.340, 359.749 653.922 C 344.670 636.637, 345.188 636.916, 337.632 642.015 C 330.197 647.033, 325.535 648.304, 314.500 648.321 C 306.440 648.334, 303.584 647.925, 299.780 646.217 C 293.928 643.588, 286.456 636.815, 283.916 631.835 C 280.169 624.490, 276.983 625, 326.637 625 L 371.275 625 370.747 613.250 C 369.443 584.172, 356.512 566.157, 330.275 556.864 C 322.420 554.082, 305.139 553.447, 295.500 555.586 M 525.405 555.485 C 503.356 560.282, 485.038 576.246, 478.913 596 C 477.805 599.575, 476.633 606.807, 476.309 612.071 C 475.172 630.540, 480.931 646.172, 493.413 658.500 C 506.336 671.265, 519.179 676.056, 540.598 676.104 C 561.463 676.151, 573.957 671.628, 586.340 659.546 C 598.693 647.493, 604.225 633.775, 604.303 615 C 604.357 602.179, 603.426 597.827, 598.362 587.207 C 588.430 566.383, 566.342 553.965, 539.500 554.114 C 535.100 554.139, 528.757 554.756, 525.405 555.485 M 684 555.098 C 677.348 556.397, 667.796 561.447, 663.381 565.997 C 661.247 568.198, 659.163 569.999, 658.750 569.999 C 658.337 570, 658 566.850, 658 563 L 658 556 642 556 L 626 556 626 614.855 L 626 673.711 632.750 674.348 C 636.462 674.699, 644.310 674.989, 650.189 674.993 L 660.878 675 661.209 641.750 C 661.500 612.530, 661.763 607.894, 663.373 603.500 C 667.700 591.695, 675.022 586.892, 689.750 586.198 L 699 585.761 699 569.881 L 699 554 693.750 554.110 C 690.862 554.170, 686.475 554.615, 684 555.098 M 744.334 555.410 C 734.881 557.218, 725.873 560.317, 718.500 564.296 C 713.495 566.997, 712.527 567.945, 712.665 570.017 C 712.895 573.482, 720.884 590.018, 722.656 590.698 C 723.457 591.005, 726.238 590.100, 728.836 588.686 C 739.977 582.622, 759.400 579.749, 768.275 582.852 C 775.968 585.541, 781.927 593.305, 781.978 600.704 L 782 603.907 763.250 603.840 C 737.139 603.745, 726.996 606.432, 716.326 616.268 C 710.675 621.476, 708.246 626.207, 707.114 634.206 C 704.268 654.318, 714.969 669.717, 735.087 674.459 C 746.919 677.248, 765.570 675.859, 773.859 671.573 C 775.377 670.788, 778.452 668.313, 780.692 666.073 C 782.932 663.833, 785.043 662, 785.382 662 C 785.722 662, 786 664.936, 786 668.525 L 786 675.051 801.750 674.775 L 817.500 674.500 817.467 636 C 817.445 609.913, 817.045 595.600, 816.225 591.606 C 812.705 574.462, 801.987 562.970, 784.244 557.316 C 774.505 554.212, 755.370 553.298, 744.334 555.410 M 111.289 556.688 C 110.982 557.488, 112.798 563.173, 115.324 569.321 C 122.645 587.138, 139.424 627.150, 154.677 663.158 C 158.048 671.119, 159.736 673.963, 161.346 674.395 C 162.530 674.713, 170.752 674.979, 179.615 674.986 L 195.729 675 199.288 665.750 C 201.245 660.663, 206.748 647.050, 211.517 635.500 C 219.539 616.069, 224.546 603.833, 237.912 571 C 240.710 564.126, 243 557.927, 243 557.226 C 243 556.234, 239.332 556.012, 226.424 556.226 L 209.847 556.500 204.576 570 C 201.677 577.425, 196.696 589.800, 193.507 597.500 C 190.318 605.200, 185.799 616.208, 183.465 621.963 C 181.130 627.718, 178.807 632.564, 178.302 632.733 C 177.797 632.901, 176.326 630.442, 175.032 627.269 C 163.953 600.096, 145.773 557.403, 144.905 556.521 C 144.369 555.976, 136.819 555.474, 127.895 555.388 C 114.676 555.261, 111.749 555.490, 111.289 556.688 M 301.994 581.934 C 291.861 585.017, 283.015 593.832, 281.854 602.006 L 281.500 604.500 309.250 604.576 C 336.703 604.651, 337 604.630, 336.978 602.576 C 336.911 596.220, 329.787 586.741, 322.541 583.367 C 317.331 580.941, 307.510 580.256, 301.994 581.934 M 526.883 586.257 C 515.419 592.191, 510.375 602.217, 511.211 617.409 C 511.765 627.495, 515.162 635.212, 521.505 640.796 C 532.543 650.512, 550.417 650.154, 560.872 640.009 C 565.985 635.046, 567.794 631.503, 569.576 622.959 C 572.409 609.371, 568.148 596.196, 558.556 588.880 C 552.698 584.412, 548.174 583, 539.721 583 C 534.287 583, 532.106 583.553, 526.883 586.257 M 763.319 624.922 C 750.008 625.429, 747.792 625.758, 745.319 627.596 C 741.208 630.653, 739.858 633.813, 740.316 639.307 C 741.064 648.266, 749.054 653.726, 759.968 652.737 C 773.537 651.506, 783.825 640.599, 782.829 628.500 C 782.443 623.813, 784.159 624.128, 763.319 624.922 M 395.827 738.750 C 395.647 752.362, 395.637 769.688, 395.804 777.250 L 396.108 791 404.054 791 L 412 791 412 778.500 C 412 771.625, 412.243 766, 412.540 766 C 412.837 766, 414.974 766.989, 417.290 768.197 C 423.144 771.253, 434.789 771.297, 440.500 768.286 C 449.487 763.547, 454.898 755.144, 455.743 744.614 C 456.702 732.672, 451.885 722.956, 442.176 717.249 C 438.011 714.800, 436.517 714.500, 428.500 714.500 C 421.892 714.500, 418.595 714.965, 416.096 716.250 C 411.745 718.487, 411 718.451, 411 716 C 411 714.180, 410.333 714, 403.577 714 L 396.154 714 395.827 738.750 M 465.685 714.750 C 465.446 715.163, 465.482 727.763, 465.765 742.750 L 466.278 770 474.034 770 L 481.790 770 482.181 754.250 C 482.490 741.757, 482.930 737.830, 484.306 735.260 C 486.290 731.556, 492.487 728, 496.960 728 L 500 728 500 721 L 500 714 496.169 714 C 494.063 714, 490.125 715.123, 487.419 716.496 C 481.534 719.482, 482 719.429, 482 717.107 C 482 716.066, 481.288 714.941, 480.418 714.607 C 478.157 713.739, 466.202 713.855, 465.685 714.750 M 523.748 715.427 C 518.247 717.390, 513.713 721.214, 509.969 727.049 C 507.113 731.499, 506.594 733.299, 506.199 740.121 C 505.441 753.214, 510.252 761.911, 521.500 767.783 C 525.892 770.076, 527.655 770.388, 536 770.351 C 547.028 770.301, 550.925 768.954, 557.454 762.935 C 563.940 756.957, 566.335 750.526, 565.791 740.548 C 565.136 728.544, 560.797 722.068, 549.708 716.542 C 545.408 714.399, 543.265 714.007, 536.054 714.044 C 531.349 714.068, 525.812 714.690, 523.748 715.427 M 419.121 728.710 C 414.522 730.976, 412.008 735.416, 412.004 741.282 C 411.996 751.678, 417.400 757.413, 426.570 756.738 C 435.356 756.092, 439.545 751.115, 439.451 741.436 C 439.342 730.280, 429.033 723.827, 419.121 728.710 M 528.299 728.960 C 524.105 731.517, 522 735.776, 522.002 741.700 C 522.005 751.112, 527.840 757.333, 536.666 757.333 C 547.330 757.333, 553.242 745.329, 547.956 734.409 C 544.545 727.363, 535.177 724.766, 528.299 728.960 M 367.150 752.527 C 363.380 755.700, 362.434 759.708, 364.365 764.330 C 368.327 773.814, 382.711 772.387, 384.599 762.323 C 386.425 752.592, 374.818 746.075, 367.150 752.527"
        stroke="none" fill="#4a5051" fill-rule="evenodd"></path> -->
    <path
        d="M 333 202.389 C 333 251.551, 333.378 288, 333.887 288 C 334.375 288, 337.230 284.961, 340.231 281.247 C 345.014 275.327, 350.369 269.085, 373.379 242.607 C 376.196 239.366, 379.088 235.879, 379.807 234.857 C 380.525 233.836, 381.650 233.033, 382.307 233.074 C 383.561 233.152, 402.360 255.607, 414.825 271.916 C 418.854 277.187, 422.514 281.875, 422.958 282.333 C 423.403 282.792, 427.514 278.517, 432.094 272.833 C 436.675 267.150, 443.027 259.451, 446.211 255.724 L 452 248.949 452 214.744 L 452 180.539 441.750 170.446 C 436.113 164.894, 428.125 157.841, 424 154.772 C 401.214 137.820, 365.442 122.514, 336.750 117.441 L 333 116.777 333 202.389 M 292.118 260.718 C 292.183 318.898, 292.546 367.850, 292.924 369.500 C 293.597 372.439, 293.685 372.358, 297.221 365.500 C 299.206 361.650, 304.018 354.033, 307.915 348.572 C 311.964 342.899, 315.043 337.542, 315.101 336.072 C 315.156 334.658, 315.125 293.450, 315.031 244.500 L 314.860 155.500 303.430 155.218 L 292 154.937 292.118 260.718 M 341.500 380.439 C 340.950 380.651, 339.303 381.088, 337.839 381.409 C 336.376 381.730, 333.676 383.490, 331.839 385.318 C 323.357 393.764, 306 413.564, 306 414.794 C 306 415.236, 313.988 416.146, 323.750 416.817 C 333.512 417.489, 345.634 418.891, 350.686 419.935 C 373.128 424.570, 402.003 436.936, 417.075 448.367 C 428.536 457.060, 441.649 471.021, 447.625 480.894 C 450.306 485.324, 452.878 488.960, 453.341 488.974 C 453.803 488.988, 453.858 483.038, 453.463 475.750 C 452.648 460.730, 451.844 458.470, 443.058 446.500 C 436.327 437.330, 421.442 421.202, 411.884 412.722 C 395.895 398.537, 376.913 387.477, 360.973 383.060 C 353.907 381.102, 343.435 379.693, 341.500 380.439 M 397 544.500 L 397 559 388 559 L 379 559 379 572.500 L 379 586 388 586 L 397 586 397.020 610.250 C 397.031 623.587, 397.493 637.650, 398.047 641.500 C 400.495 658.506, 410.731 670.428, 426.500 674.641 C 432.612 676.273, 448.997 676.404, 456.201 674.877 C 462.793 673.479, 469 670.414, 469 668.555 C 469 666.973, 462.391 648.234, 461.100 646.156 C 460.413 645.050, 459.690 645.109, 457.020 646.490 C 455.235 647.413, 451.463 648.383, 448.637 648.645 C 441.680 649.292, 437.224 646.936, 434.250 641.038 C 432.090 636.755, 432 635.543, 432 610.788 L 432 585 446.500 585 L 461 585 461 572 L 461 559 446.500 559 L 432 559 432 544.500 L 432 530 414.500 530 L 397 530 397 544.500 M 295.500 555.586 C 282.995 558.361, 271.361 564.959, 263.150 573.932 C 244.177 594.669, 242.228 626.919, 258.469 651.387 C 265.538 662.037, 280.310 671.427, 295 674.608 C 304.967 676.766, 325.219 676.779, 334.250 674.633 C 343.289 672.485, 351.663 668.117, 357.899 662.296 L 363.038 657.500 358.969 653 C 356.732 650.525, 353.275 646.564, 351.287 644.198 C 345.652 637.489, 344.762 637.300, 338.477 641.471 C 329.995 647.102, 325.786 648.304, 314.500 648.321 C 306.440 648.334, 303.584 647.925, 299.780 646.217 C 293.928 643.588, 286.456 636.815, 283.916 631.835 C 280.169 624.490, 276.983 625, 326.637 625 L 371.275 625 370.747 613.250 C 369.443 584.172, 356.512 566.157, 330.275 556.864 C 322.420 554.082, 305.139 553.447, 295.500 555.586 M 525.405 555.485 C 503.356 560.282, 485.038 576.246, 478.913 596 C 477.805 599.575, 476.633 606.807, 476.309 612.071 C 475.172 630.540, 480.931 646.172, 493.413 658.500 C 506.336 671.265, 519.179 676.056, 540.598 676.104 C 561.463 676.151, 573.957 671.628, 586.340 659.546 C 598.693 647.493, 604.225 633.775, 604.303 615 C 604.357 602.179, 603.426 597.827, 598.362 587.207 C 588.430 566.383, 566.342 553.965, 539.500 554.114 C 535.100 554.139, 528.757 554.756, 525.405 555.485 M 684 555.098 C 677.621 556.344, 667.898 561.365, 663.903 565.477 C 659.009 570.513, 657.588 570.165, 658.389 564.127 C 659.495 555.785, 659.932 556, 641.893 556 L 626 556 626 614.869 L 626 673.738 629.750 674.358 C 631.813 674.699, 639.660 674.983, 647.189 674.989 L 660.878 675 661.209 641.750 C 661.500 612.530, 661.763 607.894, 663.373 603.500 C 667.700 591.695, 675.022 586.892, 689.750 586.198 L 699 585.761 699 569.881 L 699 554 693.750 554.110 C 690.862 554.170, 686.475 554.615, 684 555.098 M 744.334 555.410 C 734.881 557.218, 725.873 560.317, 718.500 564.296 C 713.485 567.002, 712.526 567.944, 712.657 570.036 C 712.802 572.355, 721.718 592, 722.625 592 C 722.848 592, 725.386 590.675, 728.265 589.057 C 739.591 582.689, 759.138 579.657, 768.275 582.852 C 775.968 585.541, 781.927 593.305, 781.978 600.704 L 782 603.907 763.250 603.840 C 737.139 603.745, 726.996 606.432, 716.326 616.268 C 710.675 621.476, 708.246 626.207, 707.114 634.206 C 704.268 654.318, 714.969 669.717, 735.087 674.459 C 746.884 677.240, 765.587 675.858, 773.800 671.600 C 775.285 670.830, 778.165 668.580, 780.200 666.600 C 782.236 664.620, 784.373 663, 784.950 663 C 785.567 663, 786 665.485, 786 669.025 L 786 675.051 801.750 674.775 L 817.500 674.500 817.467 636 C 817.445 609.913, 817.045 595.600, 816.225 591.606 C 812.705 574.462, 801.987 562.970, 784.244 557.316 C 774.505 554.212, 755.370 553.298, 744.334 555.410 M 111.251 555.823 C 109.916 556.671, 109.664 556.024, 132.551 610.500 C 139.021 625.900, 145.992 642.550, 148.042 647.500 C 150.092 652.450, 153.513 660.550, 155.646 665.500 L 159.522 674.500 177.617 674.772 L 195.713 675.044 199.280 665.772 C 201.241 660.672, 206.748 647.050, 211.517 635.500 C 216.285 623.950, 223.030 607.525, 226.505 599 C 232.813 583.525, 242.644 559.615, 243.671 557.250 C 244.305 555.791, 244.473 555.803, 225.033 555.935 C 217.076 555.990, 210.288 556.364, 209.949 556.767 C 209.610 557.170, 207.266 562.900, 204.739 569.500 C 202.213 576.100, 197.151 588.700, 193.492 597.500 C 189.833 606.300, 185.188 617.671, 183.170 622.769 C 180.828 628.683, 179.014 631.941, 178.157 631.769 C 177.418 631.621, 175.693 628.800, 174.324 625.500 C 157.100 583.996, 145.778 557.437, 144.813 556.275 C 143.613 554.829, 113.456 554.424, 111.251 555.823 M 301.994 581.934 C 291.636 585.085, 282 594.934, 282 602.370 L 282 604.819 309.500 604.660 C 336.287 604.504, 336.999 604.448, 336.978 602.500 C 336.910 596.216, 329.746 586.722, 322.541 583.367 C 317.331 580.941, 307.510 580.256, 301.994 581.934 M 526.883 586.257 C 515.419 592.191, 510.375 602.217, 511.211 617.409 C 511.765 627.495, 515.162 635.212, 521.505 640.796 C 532.543 650.512, 550.417 650.154, 560.872 640.009 C 565.985 635.046, 567.794 631.503, 569.576 622.959 C 572.409 609.371, 568.148 596.196, 558.556 588.880 C 552.698 584.412, 548.174 583, 539.721 583 C 534.287 583, 532.106 583.553, 526.883 586.257 M 747.500 626.403 C 742.187 628.748, 740.500 631.555, 740.500 638.049 C 740.500 643.345, 740.819 644.218, 743.928 647.426 C 748.260 651.895, 752.772 653.389, 759.968 652.737 C 773.079 651.548, 783 641.553, 783 629.532 L 783 625 766.750 625.039 C 755.518 625.066, 749.574 625.487, 747.500 626.403"
        stroke="none" fill="#ffffff" fill-rule="evenodd"></path>
    <path
        d="M 674 48.262 C 672.075 48.843, 659.250 53.026, 645.500 57.557 C 631.750 62.088, 608.350 69.696, 593.500 74.464 C 559.224 85.468, 557 86.240, 557 87.130 C 557 87.534, 561.163 91.374, 566.250 95.664 C 580.427 107.620, 586 113.113, 586 115.134 C 586 116.149, 583.862 119.398, 581.250 122.355 C 578.638 125.311, 574.817 129.872, 572.761 132.490 C 570.704 135.108, 566.654 139.955, 563.761 143.262 C 560.867 146.569, 553.325 155.661, 547 163.466 C 540.675 171.271, 530.791 183.471, 525.036 190.578 C 519.280 197.685, 508.014 211.375, 500 221 C 491.986 230.625, 482.520 242.062, 478.964 246.415 C 463.072 265.872, 457.551 272.576, 456.562 273.618 C 455.978 274.232, 453.250 277.564, 450.500 281.022 C 447.750 284.480, 443.666 289.377, 441.424 291.904 C 439.183 294.432, 434.776 299.762, 431.632 303.750 C 428.487 307.737, 425.305 311, 424.560 311 C 423.001 311, 417.258 304.565, 396.675 279.750 C 388.577 269.988, 381.576 262, 381.118 262 C 380.214 262, 367.829 276.812, 356.035 292 C 351.977 297.225, 346.097 304.425, 342.968 308 C 339.839 311.575, 333.674 319, 329.268 324.500 C 319.735 336.400, 317.323 338.987, 315.711 339.038 C 313.997 339.092, 301.059 357.951, 296.133 367.576 C 292.101 375.453, 292 375.897, 292 385.670 C 292 391.180, 292.295 400.513, 292.656 406.409 L 293.312 417.130 299.277 416.724 C 303.852 416.412, 305.484 415.873, 306.280 414.409 C 307.867 411.487, 324.551 392.466, 331.750 385.370 C 333.537 383.608, 335 381.740, 335 381.219 C 335 380.220, 344.363 367.951, 352.052 358.874 C 354.556 355.918, 361.019 348.212, 366.415 341.750 C 371.810 335.287, 376.766 330, 377.428 330 C 378.089 330, 387.656 342.038, 398.686 356.750 C 424.405 391.055, 426.901 394.179, 428.027 393.483 C 428.540 393.166, 432.256 388.765, 436.285 383.703 C 454.342 361.017, 471.972 339.040, 477.315 332.556 C 480.514 328.675, 484.948 323.250, 487.170 320.500 C 492.202 314.273, 519.178 281.632, 549.855 244.653 C 562.700 229.169, 574.850 214.488, 576.855 212.029 C 578.860 209.570, 583.200 204.417, 586.500 200.579 C 589.800 196.740, 595.425 189.926, 599 185.436 C 617.916 161.679, 624.511 154, 625.994 154 C 626.896 154, 633.865 160.075, 641.482 167.500 C 649.098 174.925, 655.675 181, 656.097 181 C 657.319 181, 657.682 179.192, 663.031 146.500 C 665.821 129.450, 669.421 108.300, 671.032 99.500 C 678.173 60.495, 680.052 46.857, 678.250 47.102 C 677.837 47.158, 675.925 47.680, 674 48.262 M 539.705 132.028 C 535.968 134.186, 530.568 137.485, 527.705 139.358 C 524.842 141.231, 518.900 144.981, 514.500 147.691 C 510.100 150.401, 498.738 157.725, 489.250 163.967 L 472 175.317 472 198.742 C 472 212.239, 472.382 222.025, 472.902 221.833 C 473.647 221.558, 481.200 213.183, 494.394 198 C 495.589 196.625, 499.999 191.225, 504.195 186 C 508.390 180.775, 516.624 170.650, 522.492 163.500 C 541.620 140.196, 543.734 137.550, 546.384 133.610 C 551.042 126.685, 549.564 126.335, 539.705 132.028 M 618.930 189.268 C 614.766 194.346, 609.529 200.975, 607.291 204 C 605.054 207.025, 600.698 212.391, 597.612 215.926 L 592 222.351 592 297.536 L 592 372.721 584.021 375.432 C 579.632 376.923, 575.582 377.860, 575.021 377.513 C 574.343 377.094, 574 354.874, 574 311.441 C 574 269.186, 573.651 246, 573.016 246 C 572.166 246, 567.463 251.455, 548.008 275 C 545.963 277.475, 541.862 282.429, 538.895 286.010 C 535.928 289.590, 532.868 293.319, 532.097 294.297 C 530.928 295.777, 530.730 304.336, 530.915 345.447 L 531.138 394.819 523.579 400.410 C 519.421 403.484, 515.340 406, 514.510 406 C 513.188 406, 513 400.847, 513 364.559 C 513 340.806, 512.612 322.878, 512.092 322.557 C 510.953 321.853, 502.087 331.815, 485.155 352.822 L 472 369.144 472 428.655 C 472 465.868, 472.356 488.042, 472.951 487.833 C 473.475 487.650, 475.889 484.408, 478.317 480.629 C 490.587 461.529, 510.848 443.937, 532.578 433.514 C 557.392 421.613, 584.352 416.035, 617.183 416.009 C 626.503 416.001, 627.926 415.777, 628.344 414.250 C 628.729 412.841, 628.505 187.919, 628.112 181.750 C 628.050 180.787, 627.663 180.008, 627.250 180.018 C 626.837 180.028, 623.093 184.191, 618.930 189.268 M 395.848 739.750 C 395.657 753.913, 395.649 771.237, 395.832 778.250 L 396.163 791 404.082 791 L 412 791 412 779 C 412 765.701, 412.161 765.438, 418.300 768.701 C 423.106 771.255, 435.302 771.027, 440.500 768.286 C 449.487 763.547, 454.898 755.144, 455.743 744.614 C 456.702 732.672, 451.885 722.956, 442.176 717.249 C 438.011 714.800, 436.517 714.500, 428.500 714.500 C 421.892 714.500, 418.595 714.965, 416.096 716.250 C 411.745 718.487, 411 718.451, 411 716 C 411 714.180, 410.333 714, 403.598 714 L 396.197 714 395.848 739.750 M 465.637 714.778 C 465.373 715.206, 465.416 727.806, 465.732 742.778 L 466.308 770 474.049 770 L 481.790 770 482.181 754.250 C 482.490 741.757, 482.930 737.830, 484.306 735.260 C 486.290 731.556, 492.487 728, 496.960 728 L 500 728 500 721 L 500 714 496.250 714.022 C 494.188 714.034, 490.538 714.934, 488.141 716.022 C 482.970 718.368, 482 718.461, 482 716.607 C 482 715.841, 481.288 714.941, 480.418 714.607 C 478.119 713.725, 466.203 713.862, 465.637 714.778 M 523.748 715.427 C 518.247 717.390, 513.713 721.214, 509.969 727.049 C 507.113 731.499, 506.594 733.299, 506.199 740.121 C 505.441 753.214, 510.252 761.911, 521.500 767.783 C 525.892 770.076, 527.655 770.388, 536 770.351 C 547.028 770.301, 550.925 768.954, 557.454 762.935 C 563.940 756.957, 566.335 750.526, 565.791 740.548 C 565.136 728.544, 560.797 722.068, 549.708 716.542 C 545.408 714.399, 543.265 714.007, 536.054 714.044 C 531.349 714.068, 525.812 714.690, 523.748 715.427 M 419.121 728.710 C 414.522 730.976, 412.008 735.416, 412.004 741.282 C 411.996 751.678, 417.400 757.413, 426.570 756.738 C 435.356 756.092, 439.545 751.115, 439.451 741.436 C 439.342 730.280, 429.033 723.827, 419.121 728.710 M 528.299 728.960 C 524.150 731.489, 522 735.764, 522 741.482 C 522 751.459, 527.210 756.989, 536.615 756.996 C 542.593 757.001, 546.457 754.545, 548.621 749.364 C 551.771 741.825, 548.767 731.541, 542.555 728.593 C 538.022 726.442, 532.181 726.592, 528.299 728.960 M 371.619 750.098 C 364.931 751.952, 361.778 758.139, 364.365 764.330 C 368.327 773.814, 382.711 772.387, 384.599 762.323 C 386.019 754.756, 378.924 748.073, 371.619 750.098"
        stroke="none" fill="#41c2b7" fill-rule="evenodd"></path>
</svg>