<svg xmlns="http://www.w3.org/2000/svg" viewBox="0 0 1352 412" version="1.1">
    <path
        d="M 339.500 40.628 C 335.100 42.022, 320.475 46.688, 307 50.997 C 293.525 55.306, 277.100 60.475, 270.500 62.485 C 263.900 64.494, 257.825 66.364, 257 66.640 C 255.771 67.052, 255.861 67.406, 257.500 68.604 C 265.121 74.171, 277.920 85.791, 277.956 87.175 C 278 88.831, 269.396 99.001, 228.500 145.631 C 216.950 158.800, 196.042 182.961, 182.038 199.320 C 168.033 215.680, 156.045 228.938, 155.396 228.782 C 154.748 228.627, 147.137 220.494, 138.483 210.708 C 120.334 190.186, 123.407 190.910, 112.135 204.500 C 108.486 208.900, 100.088 218.575, 93.474 226 C 86.860 233.425, 80.169 241.188, 78.605 243.250 C 72.802 250.905, 73 253.085, 73 181.500 L 73 116 63.929 116 L 54.858 116 55.097 209.964 L 55.337 303.928 59.419 304.419 C 61.663 304.689, 69.125 305.151, 76 305.445 C 116.353 307.175, 150.454 322.680, 171.175 348.720 C 173.924 352.174, 176.471 355.001, 176.836 355.002 C 177.201 355.003, 177.275 350.574, 177 345.160 C 176.388 333.109, 175.483 331.570, 159.500 315.408 C 140.029 295.718, 120.955 284.114, 99.628 278.984 C 95.299 277.942, 91.516 276.849, 91.221 276.555 C 90.927 276.260, 91.094 275.158, 91.593 274.106 C 92.860 271.432, 117.261 244, 118.372 244 C 118.871 244, 119.779 244.632, 120.390 245.404 C 126.163 252.708, 157.357 288, 158.039 288 C 158.862 288, 167.358 278.509, 187.626 254.947 C 192.096 249.751, 201.771 238.563, 209.126 230.084 C 216.482 221.605, 225.178 211.480, 228.451 207.584 C 234.479 200.407, 247.017 185.927, 277.012 151.500 C 286.116 141.050, 296.893 128.563, 300.959 123.750 C 305.026 118.938, 308.863 115, 309.487 115 C 310.110 115, 315.282 119.737, 320.979 125.527 C 326.677 131.317, 331.785 135.905, 332.330 135.723 C 332.875 135.542, 335.700 121.467, 338.606 104.446 C 341.513 87.426, 345.266 66.146, 346.946 57.158 C 348.626 48.170, 350 40.183, 350 39.408 C 350 37.527, 348.877 37.657, 339.500 40.628 M 86.538 91.267 C 86.325 91.945, 86.230 119.275, 86.326 152 C 86.448 193.611, 86.823 211.500, 87.574 211.500 C 88.610 211.500, 102.250 196.280, 114.366 181.605 C 117.592 177.697, 120.967 174.392, 121.866 174.260 C 122.765 174.128, 124.680 175.590, 126.122 177.508 C 130.350 183.129, 153.397 209, 154.177 209 C 154.766 209, 164.426 198.233, 174.714 186.109 C 176.863 183.577, 176.929 182.795, 176.964 159.500 L 177 135.501 169.977 128.844 C 152.301 112.089, 125.472 98.206, 100 92.634 C 88.460 90.109, 86.949 89.956, 86.538 91.267 M 639 139 L 639 152 632.082 152 C 621.557 152, 622 151.446, 622 164.607 L 622 176 629.441 176 C 634.296 176, 637.163 176.434, 637.691 177.250 C 638.136 177.938, 638.500 190.200, 638.500 204.500 C 638.500 227.384, 638.729 231.197, 640.408 236.318 C 646.615 255.242, 670.914 263.845, 696.130 256.045 C 704.738 253.382, 705.257 252.693, 703.341 246.474 C 700.987 238.833, 697.849 231.025, 696.895 230.435 C 696.423 230.143, 693.886 230.668, 691.258 231.602 C 684.721 233.924, 677.721 232.874, 673.837 228.991 L 671 226.154 671 201.077 L 671 176 684.500 176 L 698 176 698 164.529 L 698 153.058 684.750 152.779 L 671.500 152.500 671.221 139.250 L 670.942 126 654.971 126 L 639 126 639 139 M 543.601 149.594 C 525.151 154.058, 510.097 167.821, 504.088 185.718 C 502.499 190.450, 502.006 194.395, 502.024 202.218 C 502.054 214.838, 503.016 219.255, 507.966 229.518 C 518.972 252.339, 546.328 263.239, 578.294 257.541 C 593.339 254.859, 610.771 244.177, 608.136 239.255 C 607.557 238.172, 603.257 234.039, 598.581 230.069 L 590.078 222.850 585.789 225.801 C 579.109 230.397, 572.577 232.277, 563 232.362 C 554.203 232.440, 547.327 230.363, 542.640 226.212 C 539.081 223.060, 535 216.724, 535 214.350 L 535 212 575 212 L 615 212 615 203.160 C 615 192.850, 612.364 181.276, 608.325 173.856 C 602.547 163.240, 588.586 153.211, 574.467 149.533 C 567.153 147.628, 551.599 147.659, 543.601 149.594 M 752.216 150.019 C 725.909 156.911, 709 177.784, 709 203.366 C 709 227.688, 721.823 245.744, 745.944 255.385 C 753.133 258.258, 754.204 258.405, 768 258.407 C 780.892 258.408, 783.343 258.126, 790.098 255.859 C 814.333 247.726, 829.321 225.252, 827.683 199.500 C 826.090 174.443, 810.493 156.049, 785.356 149.581 C 776.855 147.394, 761.458 147.597, 752.216 150.019 M 903.500 148.506 C 902.950 148.698, 900.025 149.544, 897 150.387 C 893.975 151.229, 888.858 153.512, 885.629 155.459 C 882.400 157.407, 879.387 159, 878.934 159 C 878.480 159, 877.972 156.863, 877.805 154.250 L 877.500 149.500 862.250 149.224 L 847 148.948 847 203.474 L 847 258 862.378 258 C 874.165 258, 878.020 257.681, 878.890 256.632 C 879.692 255.666, 879.948 246.937, 879.763 226.882 C 879.456 193.792, 880.001 190.737, 887.326 184.434 C 893.074 179.489, 897.211 177.923, 906.250 177.272 L 914 176.714 914 162.357 L 914 148 909.250 148.079 C 906.638 148.122, 904.050 148.315, 903.500 148.506 M 951 149.664 C 943.985 151.043, 929.913 156.897, 925.581 160.240 C 923.728 161.670, 923.861 162.081, 929.444 172.110 C 932.625 177.825, 935.322 182.609, 935.438 182.741 C 935.554 182.874, 938.757 181.419, 942.555 179.508 C 951.297 175.110, 962.402 172.577, 969.945 173.261 C 980.573 174.225, 988.600 180.598, 989.722 188.963 L 990.263 193 972.882 193.017 C 947.829 193.042, 937.624 195.724, 928.614 204.650 C 922.424 210.783, 920.509 215.949, 920.514 226.500 C 920.518 234.319, 920.870 236.168, 923.195 240.590 C 929.437 252.460, 942.642 259, 960.368 259 C 964.366 259, 970.048 258.284, 972.995 257.409 C 978.360 255.816, 988.508 250.606, 989.559 248.905 C 989.866 248.407, 990.766 248, 991.559 248 C 992.595 248, 993 249.233, 993 252.383 C 993 256.084, 993.351 256.861, 995.250 257.370 C 998.227 258.167, 1009.180 258.160, 1016.886 257.354 L 1023.065 256.708 1022.457 220.604 C 1021.917 188.516, 1021.625 183.727, 1019.835 177.550 C 1015.607 162.961, 1005.520 154.214, 987.540 149.547 C 979.993 147.588, 961.262 147.648, 951 149.664 M 377.285 150.250 C 377.560 150.938, 380.930 159.375, 384.775 169 C 391.423 185.643, 416.758 245.257, 420.593 253.281 C 421.587 255.361, 423.323 257.290, 424.450 257.568 C 425.578 257.846, 433.020 257.945, 440.989 257.787 L 455.478 257.500 458.845 249.500 C 460.697 245.100, 463.784 237.675, 465.706 233 C 467.627 228.325, 470.927 220.450, 473.039 215.500 C 475.151 210.550, 478.878 201.550, 481.321 195.500 C 483.764 189.450, 488.741 177.212, 492.381 168.304 C 496.022 159.397, 499 151.398, 499 150.528 C 499 149.145, 497.101 148.982, 483.763 149.224 L 468.525 149.500 459.864 170.500 C 455.100 182.050, 448.826 197.688, 445.921 205.250 C 443.016 212.813, 440.138 219, 439.525 219 C 438.913 219, 436.318 213.713, 433.759 207.250 C 420.678 174.210, 411.548 152.318, 410.197 150.750 C 408.879 149.219, 406.689 149, 392.738 149 C 380.377 149, 376.898 149.281, 377.285 150.250 M 550.558 173.492 C 548.390 174.265, 545.465 175.740, 544.058 176.770 C 540.471 179.398, 535 187.759, 535 190.613 L 535 193 559.500 193 L 584 193 583.996 190.750 C 583.992 188.298, 581.036 182.884, 577.645 179.118 C 572.039 172.891, 559.535 170.294, 550.558 173.492 M 760.698 175.383 C 753.850 177.936, 749.365 181.843, 745.856 188.313 C 742.789 193.968, 742.502 195.231, 742.520 203 C 742.536 209.744, 743.027 212.586, 744.896 216.757 C 752.437 233.584, 776.149 237.845, 787.882 224.482 C 793.457 218.133, 794.956 213.685, 794.956 203.500 C 794.956 196.590, 794.484 193.455, 792.921 190 C 790.406 184.435, 785.750 179.469, 780.529 176.780 C 775.466 174.171, 765.777 173.489, 760.698 175.383 M 959.415 214.421 C 954.996 216.346, 952 220.584, 952 224.912 C 952 232.430, 957.689 236.385, 968.500 236.385 C 981.678 236.385, 990 229.288, 990 218.050 L 990 213 976.250 213.039 C 967.018 213.065, 961.486 213.520, 959.415 214.421 M 931.051 291.439 C 929.078 293.816, 930.536 296.186, 933.744 295.817 C 935.933 295.565, 936.500 294.985, 936.500 293 C 936.500 290.023, 933.047 289.034, 931.051 291.439 M 1215.362 291.500 C 1214.486 293.781, 1215.711 296, 1217.846 296 C 1220.326 296, 1222.204 293.695, 1221.410 291.627 C 1220.626 289.583, 1216.133 289.489, 1215.362 291.500 M 437 297.117 C 437 302.991, 436.911 303.207, 434.750 302.565 C 424.952 299.652, 418.963 301.570, 415.846 308.616 C 412.798 315.506, 413.680 321.402, 418.405 325.732 L 422.007 329.033 431.753 328.772 C 437.114 328.628, 441.831 328.058, 442.235 327.505 C 442.639 326.952, 442.976 318.512, 442.985 308.750 L 443 291 440 291 L 437 291 437 297.117 M 578.453 293.432 C 575.824 297.444, 577.601 298.094, 582.191 294.798 C 583.560 293.816, 584.243 293.910, 585.770 295.292 C 588.238 297.525, 592.266 297.468, 594.345 295.171 C 596.406 292.894, 596.476 291, 594.500 291 C 593.675 291, 593 291.501, 593 292.113 C 593 292.839, 591.867 292.996, 589.750 292.566 C 580.390 290.662, 580.261 290.672, 578.453 293.432 M 842 310 L 842 329 844.500 329 L 847 329 847 310 L 847 291 844.500 291 L 842 291 842 310 M 857.813 298.250 C 857.573 300.741, 856.975 301.575, 855.250 301.820 C 852.506 302.209, 852.265 304.995, 854.915 305.688 C 857.294 306.310, 857.823 308.489, 857.906 318 C 857.985 326.999, 859.569 329, 866.611 329 C 870.333 329, 871 328.696, 871 327 C 871 325.549, 870.333 325, 868.571 325 C 864.195 325, 863 322.626, 863 313.929 L 863 306 866.500 306 C 869.295 306, 870 305.610, 870 304.063 C 870 302.609, 869.190 302.049, 866.750 301.813 C 863.892 301.538, 863.462 301.108, 863.187 298.250 C 862.930 295.584, 862.447 295, 860.500 295 C 858.553 295, 858.070 295.584, 857.813 298.250 M 1143 296.918 C 1143 300.159, 1141.875 302, 1139.893 302 C 1138.667 302, 1138 302.704, 1138 304 C 1138 305.310, 1138.667 306, 1139.933 306 C 1142.464 306, 1143.038 308.103, 1142.806 316.534 C 1142.697 320.488, 1143.140 324.463, 1143.830 325.727 C 1146.070 329.830, 1156.075 330.563, 1156.823 326.678 C 1157.060 325.450, 1156.440 325, 1154.508 325 C 1148.798 325, 1148 323.708, 1148 314.465 L 1148 306 1151.500 306 C 1154.333 306, 1155 305.619, 1155 304 C 1155 302.381, 1154.333 302, 1151.500 302 C 1148.167 302, 1148 301.833, 1148 298.500 C 1148 295.433, 1147.690 295, 1145.500 295 C 1143.702 295, 1143 295.539, 1143 296.918 M 390.418 301.969 C 387.180 303.279, 383.150 308.681, 382.390 312.732 C 381.392 318.054, 383.727 323.911, 388 326.805 C 390.965 328.813, 392.447 329.117, 397.693 328.794 C 405.055 328.341, 409.156 325.727, 406.568 323.139 C 405.355 321.926, 404.588 321.867, 402.490 322.823 C 398.412 324.681, 392.677 324.279, 390.189 321.961 C 385.735 317.812, 387.096 317, 398.500 317 L 409 317 409 313.135 C 409 304.617, 398.890 298.542, 390.418 301.969 M 451.667 301.667 C 450.532 302.802, 450.934 320.760, 452.154 323.439 C 454.228 327.991, 456.964 328.952, 467.350 328.779 C 476.044 328.634, 476.914 328.442, 477.419 326.560 C 478.177 323.738, 478.140 311.304, 477.357 305.589 C 476.804 301.550, 476.421 300.940, 474.607 301.199 C 472.688 301.473, 472.448 302.325, 471.916 310.738 C 471.224 321.676, 469.822 324, 463.916 324 C 457.944 324, 457 322.299, 457 311.536 C 457 303.958, 456.704 302.100, 455.418 301.607 C 453.385 300.827, 452.492 300.841, 451.667 301.667 M 492.445 301.959 C 491.315 302.417, 488.904 304.484, 487.087 306.554 C 483.992 310.079, 483.810 310.690, 484.209 316.207 C 484.568 321.182, 485.124 322.585, 487.787 325.249 C 490.520 327.981, 491.776 328.454, 497.220 328.797 C 502.519 329.132, 503.930 328.855, 506.250 327.024 C 507.762 325.831, 509 324.261, 509 323.534 C 509 321.439, 506.036 320.861, 503.696 322.500 C 497.572 326.790, 489.545 322.444, 489.545 314.837 C 489.545 307.442, 497.244 303.668, 504.086 307.710 C 506.292 309.013, 507.258 309.142, 508.148 308.252 C 509.038 307.362, 508.998 306.702, 507.980 305.476 C 504.735 301.565, 497.475 299.922, 492.445 301.959 M 518.174 302.523 C 515.882 303.518, 514.958 304.517, 515.205 305.734 C 515.571 307.545, 515.921 307.568, 524.300 306.338 C 528.483 305.724, 532 307.873, 532 311.042 C 532 312.485, 530.811 312.841, 524.879 313.177 C 518.594 313.532, 517.480 313.904, 515.379 316.345 C 512.231 320.005, 512.378 322.532, 515.946 326.100 C 518.848 329.001, 519.033 329.041, 528.196 328.704 L 537.500 328.362 537.814 320.431 C 538.219 310.207, 536.834 305.479, 532.696 302.956 C 528.931 300.661, 522.877 300.480, 518.174 302.523 M 551.411 302.891 C 546.279 306.021, 544 309.711, 544.004 314.885 C 544.008 320.673, 546.809 325.465, 551.493 327.698 C 553.481 328.646, 555 330.110, 555 331.078 C 555 332.018, 555.675 333.045, 556.500 333.362 C 557.325 333.678, 558 334.683, 558 335.594 C 558 336.909, 557.368 337.124, 554.932 336.636 C 552.182 336.086, 551.897 336.255, 552.182 338.261 C 552.630 341.415, 558.088 341.912, 560.941 339.059 C 563.382 336.618, 563.550 334.693, 561.500 332.643 C 559.492 330.634, 559.604 329.001, 561.750 328.996 C 564.389 328.991, 570 325.241, 570 323.483 C 570 321.083, 567.065 320.530, 563.984 322.350 C 557.147 326.389, 550 322.633, 550 315 C 550 307.482, 557.211 303.619, 564 307.500 C 567.487 309.493, 569 309.338, 569 306.985 C 569 301.935, 557.405 299.236, 551.411 302.891 M 579 302.294 C 575.915 303.855, 575.529 307.642, 578.500 307.208 C 588.557 305.742, 589.072 305.755, 591.025 307.522 C 592.111 308.505, 593 310.140, 593 311.155 C 593 312.757, 592.153 313, 586.577 313 C 581.125 313, 579.688 313.392, 577.077 315.589 C 575.263 317.115, 574 319.134, 574 320.507 C 574 327.036, 577.604 328.961, 589.348 328.708 L 598 328.521 598 317.864 L 598 307.207 594.465 304.104 C 591.572 301.563, 590.075 301.003, 586.215 301.015 C 583.622 301.023, 580.375 301.599, 579 302.294 M 611.641 302.898 C 607.013 305.949, 605.014 309.857, 605.007 315.868 C 605.001 320.773, 605.334 321.569, 608.882 325.118 C 612.527 328.762, 613.131 329, 618.747 329 C 625.395 329, 628.871 327.085, 631.520 321.961 C 633.569 317.999, 633.378 311.132, 631.114 307.420 C 627.472 301.447, 617.392 299.106, 611.641 302.898 M 689.304 302.956 C 684.708 305.758, 682.653 309.441, 682.571 315.023 C 682.449 323.329, 688.442 329.231, 697 329.231 C 704.780 329.231, 710.298 324.483, 705.809 321.651 C 704.524 320.841, 703.663 320.995, 702.230 322.292 C 697.179 326.863, 688 322.563, 688 315.627 C 688 310.783, 688.816 309.146, 692.072 307.463 C 695.780 305.545, 699.476 305.611, 702.587 307.649 C 704.390 308.831, 705.409 308.991, 706.184 308.216 C 707.893 306.507, 706.334 304.037, 702.546 302.455 C 697.773 300.461, 693.107 300.637, 689.304 302.956 M 718.664 303.055 C 713.762 305.714, 710.582 312.256, 711.587 317.615 C 713.665 328.690, 728.841 333.305, 736.196 325.097 C 741.372 319.321, 740.867 310.121, 735.069 304.566 C 731.061 300.726, 724.133 300.088, 718.664 303.055 M 754.615 302.777 C 752.440 304.076, 751.619 304.192, 751.281 303.250 C 751.035 302.563, 749.733 302, 748.388 302 L 745.942 302 746.221 315.250 L 746.500 328.500 749.250 328.816 L 752 329.133 752 320.021 C 752 311.680, 752.208 310.701, 754.455 308.455 C 757.584 305.325, 761.944 305.247, 764.783 308.269 C 766.575 310.176, 766.962 311.975, 767.208 319.519 C 767.495 328.354, 767.541 328.500, 770 328.500 L 772.500 328.500 772.440 318.118 L 772.380 307.736 768.705 304.368 C 764.457 300.476, 759.419 299.907, 754.615 302.777 M 782.898 303.282 C 780.275 305.044, 779.432 306.367, 779.201 309.083 C 778.807 313.737, 781.416 316.045, 788.719 317.504 C 792 318.159, 794.812 319.349, 795.432 320.344 C 797.190 323.163, 794.341 324.178, 786.349 323.578 C 780.760 323.159, 779.080 323.349, 778.658 324.448 C 777.701 326.942, 781.108 328.467, 788.466 328.838 C 794.880 329.162, 795.938 328.948, 798.290 326.851 C 804.970 320.892, 801.226 313.883, 790.658 312.563 C 784.328 311.772, 782.302 309.715, 785.529 307.355 C 787.780 305.709, 794.170 305.570, 795.733 307.133 C 797.165 308.565, 800 307.539, 800 305.588 C 800 300.900, 788.711 299.378, 782.898 303.282 M 807.371 302.475 C 807.060 303.286, 806.962 308.274, 807.153 313.558 C 807.493 322.965, 807.569 323.228, 810.766 326.083 C 814.396 329.325, 819.764 329.976, 824.624 327.762 C 826.784 326.777, 827.426 326.777, 827.754 327.762 C 827.981 328.443, 829.254 329, 830.583 329 L 833 329 833 315.500 L 833 302 830.500 302 C 828.040 302, 828 302.130, 828 310.050 C 828 320.837, 826.416 324, 821.013 324 C 814.647 324, 813 321.399, 813 311.347 C 813 304.188, 812.739 302.931, 811.066 302.035 C 808.512 300.668, 808.043 300.724, 807.371 302.475 M 883.445 301.959 C 882.315 302.417, 879.953 304.429, 878.195 306.430 C 875.566 309.425, 875.001 310.905, 875.004 314.785 C 875.011 323.711, 880.559 329, 889.916 329 C 894.091 329, 895.518 328.484, 898.441 325.918 C 908.631 316.970, 902.348 300.801, 888.782 301.063 C 886.977 301.098, 884.575 301.501, 883.445 301.959 M 919 301.963 C 918.175 302.498, 915.813 302.668, 913.750 302.340 L 910 301.744 910 315.372 L 910 329 912.397 329 C 914.710 329, 914.807 328.701, 915.147 320.573 C 915.536 311.285, 917.551 307.050, 922.090 305.979 C 925.109 305.266, 925.425 301.618, 922.500 301.244 C 921.400 301.104, 919.825 301.427, 919 301.963 M 931 315 L 931 329 933.421 329 C 936.744 329, 937.380 325.463, 936.493 311.895 C 935.799 301.272, 935.722 301, 933.391 301 L 931 301 931 315 M 947.750 302.515 C 945.203 303.949, 944.150 306.817, 945.627 308.293 C 945.972 308.638, 947.524 308.263, 949.077 307.460 C 954.863 304.468, 962 306.542, 962 311.216 C 962 312.439, 960.512 312.858, 955.073 313.166 C 946.590 313.645, 944 315.496, 944 321.082 C 944 323.969, 944.620 325.343, 946.641 326.932 C 948.946 328.746, 950.439 328.975, 958.391 328.740 L 967.500 328.471 967.822 322.985 C 968.336 314.250, 967.120 307.251, 964.575 304.292 C 962.685 302.095, 961.306 301.592, 956.401 301.308 C 952.381 301.075, 949.624 301.460, 947.750 302.515 M 1021.667 301.667 C 1021.300 302.033, 1021 308.363, 1021 315.733 L 1021 329.133 1023.750 328.816 C 1026.484 328.502, 1026.503 328.448, 1027 319.350 C 1027.389 312.234, 1027.924 309.733, 1029.405 308.100 C 1031.821 305.437, 1035.002 305.427, 1038.365 308.073 C 1040.879 310.050, 1041 310.579, 1041 319.573 C 1041 328.849, 1041.038 329, 1043.393 329 C 1046.464 329, 1047 327.448, 1047 318.553 C 1047 309.870, 1049.181 306, 1054.073 306 C 1059.579 306, 1061 308.782, 1061 319.566 L 1061 329.133 1063.750 328.816 C 1066.332 328.519, 1066.520 328.164, 1066.822 323 C 1067.707 307.908, 1064.236 301, 1055.768 301 C 1053.356 301, 1050.509 301.661, 1049.441 302.468 C 1046.958 304.346, 1043.042 304.346, 1040.559 302.468 C 1038.189 300.676, 1032.682 300.557, 1029.986 302.241 C 1028.405 303.228, 1027.595 303.228, 1026.014 302.241 C 1023.776 300.843, 1022.640 300.693, 1021.667 301.667 M 1079.457 302.863 C 1071.232 307.879, 1070.034 318.826, 1076.983 325.484 C 1080.828 329.168, 1089.778 330.200, 1094.902 327.551 C 1098.487 325.697, 1098.900 322.233, 1095.462 322.855 C 1084.923 324.764, 1079 323.369, 1079 318.977 C 1079 317.132, 1079.708 317, 1089.630 317 L 1100.260 317 1099.729 312.284 C 1099.303 308.510, 1098.482 306.913, 1095.613 304.284 C 1092.609 301.531, 1091.259 301.001, 1087.265 301.004 C 1084.389 301.006, 1081.293 301.743, 1079.457 302.863 M 1108.250 301.662 C 1107.337 302.031, 1107 305.786, 1107 315.583 L 1107 329 1109.500 329 C 1111.940 329, 1112 328.823, 1112 321.649 C 1112 313.338, 1113.355 308.415, 1116.039 306.979 C 1119.170 305.303, 1122.987 305.896, 1125.545 308.455 C 1127.792 310.701, 1128 311.680, 1128 320.021 L 1128 329.133 1130.750 328.816 C 1133.087 328.548, 1133.551 327.974, 1133.838 325 C 1134.551 317.617, 1132.913 307.010, 1130.660 304.418 C 1127.934 301.281, 1122.197 300.285, 1116.911 302.029 C 1113.879 303.030, 1112.663 303.063, 1111.770 302.170 C 1110.521 300.921, 1110.201 300.875, 1108.250 301.662 M 1168.445 301.959 C 1167.315 302.417, 1164.953 304.429, 1163.195 306.430 C 1160.456 309.550, 1160 310.831, 1160 315.400 C 1160 324.108, 1165.383 329, 1174.965 329 C 1179.337 329, 1180.540 328.532, 1183.765 325.577 C 1187.361 322.281, 1187.500 321.906, 1187.500 315.505 C 1187.500 308.981, 1187.421 308.783, 1183.289 304.928 C 1179.702 301.583, 1178.441 301.009, 1174.789 301.063 C 1172.430 301.098, 1169.575 301.501, 1168.445 301.959 M 1195.642 301.770 C 1195.219 302.454, 1194.686 320.768, 1194.914 326.750 C 1194.979 328.460, 1195.600 329, 1197.500 329 C 1199.947 329, 1200 328.840, 1200 321.401 C 1200 311.970, 1201.881 307.405, 1206.153 306.466 C 1209.433 305.746, 1210.882 303.482, 1209.163 301.763 C 1208.359 300.959, 1207.006 301.008, 1204.174 301.942 C 1201.263 302.903, 1199.766 302.945, 1198.205 302.110 C 1197.059 301.496, 1195.906 301.344, 1195.642 301.770 M 1215.833 301.983 C 1215.650 302.523, 1215.638 308.823, 1215.806 315.983 C 1216.109 328.927, 1216.125 329, 1218.482 329 C 1221.475 329, 1221.568 328.469, 1221.193 313.373 C 1220.889 301.125, 1220.862 301, 1218.526 301 C 1217.228 301, 1216.017 301.442, 1215.833 301.983 M 1233.250 302.491 C 1231.019 303.460, 1230 304.582, 1230 306.068 C 1230 307.930, 1230.385 308.137, 1232.750 307.545 C 1239.544 305.846, 1242.072 305.817, 1244.507 307.413 C 1245.878 308.311, 1247 309.885, 1247 310.910 C 1247 312.513, 1246.024 312.829, 1240.049 313.167 C 1234.420 313.485, 1232.612 314.016, 1230.549 315.954 C 1227.252 319.051, 1227.207 323.297, 1230.436 326.527 C 1232.718 328.809, 1233.476 328.948, 1242.516 328.733 L 1252.160 328.505 1251.830 317.164 C 1251.510 306.158, 1251.417 305.751, 1248.694 303.411 C 1245.415 300.593, 1238.557 300.184, 1233.250 302.491 M 390.174 308.314 C 386.428 312.302, 387.296 313, 396 313 C 404.785 313, 405.855 312.091, 401.686 308.174 C 398.514 305.195, 393.043 305.261, 390.174 308.314 M 422.455 308.455 C 419.074 311.835, 419.002 318.714, 422.314 321.826 C 424.590 323.964, 429.122 324.658, 432.455 323.379 C 434.649 322.537, 437 317.757, 437 314.139 C 437 312.060, 436.083 310.406, 433.923 308.589 C 429.976 305.267, 425.692 305.217, 422.455 308.455 M 613.455 308.455 C 611.568 310.341, 611 311.962, 611 315.455 C 611 321.340, 613.468 324, 618.929 324 C 623.165 324, 625.555 322.300, 627.125 318.171 C 630.367 309.644, 619.786 302.123, 613.455 308.455 M 720.455 308.455 C 718.568 310.341, 718 311.962, 718 315.455 C 718 321.297, 720.476 324, 725.826 324 C 730.999 324, 734 320.814, 734 315.322 C 734 307.326, 725.761 303.148, 720.455 308.455 M 884.656 307.133 C 881.508 308.963, 879.719 314.618, 881.031 318.593 C 882.383 322.690, 884.522 324, 889.862 324 C 892.984 324, 894.307 323.426, 895.927 321.365 C 899.207 317.196, 898.338 310.546, 894.087 307.282 C 892.126 305.776, 887.126 305.697, 884.656 307.133 M 1081.223 307.557 C 1080 308.413, 1079 309.988, 1079 311.057 C 1079 312.808, 1079.740 313, 1086.500 313 C 1093.260 313, 1094 312.808, 1094 311.057 C 1094 308.489, 1090.309 306, 1086.500 306 C 1084.820 306, 1082.445 306.701, 1081.223 307.557 M 1168.455 308.455 C 1165.074 311.835, 1165.002 318.714, 1168.314 321.826 C 1175.047 328.150, 1185.544 320.555, 1181.975 311.941 C 1179.426 305.787, 1172.824 304.085, 1168.455 308.455 M 653.655 310.829 C 650.426 314.397, 652.881 320, 657.674 320 C 661.885 320, 664.764 313.164, 661.800 310.200 C 660.007 308.407, 655.534 308.752, 653.655 310.829 M 991.655 310.829 C 989.719 312.968, 989.484 317.084, 991.200 318.800 C 994.302 321.902, 1001 318.844, 1001 314.326 C 1001 309.745, 994.752 307.407, 991.655 310.829 M 520.200 318.200 C 517.165 321.235, 520.063 325, 525.434 325 C 528.494 325, 532 321.796, 532 319 C 532 317.252, 531.333 317, 526.700 317 C 523.785 317, 520.860 317.540, 520.200 318.200 M 581.250 317.662 C 579.659 318.304, 579.627 322.227, 581.200 323.800 C 584.521 327.121, 593 323.673, 593 319 C 593 317.244, 592.360 317.010, 587.750 317.079 C 584.862 317.122, 581.938 317.385, 581.250 317.662 M 950.200 318.200 C 948.570 319.830, 948.692 321.550, 950.571 323.429 C 954.092 326.949, 962 323.885, 962 319 C 962 317.252, 961.333 317, 956.700 317 C 953.785 317, 950.860 317.540, 950.200 318.200 M 1235.750 318.080 C 1233.422 319.436, 1233.524 322.675, 1235.934 323.965 C 1240.623 326.474, 1247 323.613, 1247 319 C 1247 317.276, 1246.343 317.004, 1242.250 317.030 C 1239.638 317.047, 1236.713 317.519, 1235.750 318.080"
        stroke="none" fill="#000000" fill-rule="evenodd"></path>
    <!-- <path
        d="M 1 206 L 1 411 676 411 L 1351 411 1351 206 L 1351 1 676 1 L 1 1 1 206 M 339.500 40.628 C 335.100 42.022, 320.475 46.688, 307 50.997 C 272.303 62.092, 259.596 66, 258.208 66 C 256.133 66, 256.882 68.120, 259.748 70.356 C 264.829 74.321, 278.497 86.226, 278.769 86.924 C 279.046 87.634, 264.900 104.158, 228.965 145.102 C 217.670 157.971, 196.556 182.361, 182.044 199.302 C 157.013 228.522, 155.573 230.011, 153.992 228.302 C 153.075 227.311, 145.883 219.188, 138.009 210.250 C 130.135 201.313, 123.097 194, 122.369 194 C 121.641 194, 117.548 198.150, 113.273 203.223 C 108.998 208.295, 100.098 218.533, 93.495 225.973 C 86.892 233.413, 79.992 241.412, 78.161 243.750 C 76.330 246.087, 74.420 248, 73.916 248 C 73.371 248, 73 221.297, 73 182 L 73 116 63.929 116 L 54.858 116 55.097 209.964 L 55.337 303.928 59.419 304.419 C 61.663 304.689, 69.125 305.151, 76 305.445 C 96.661 306.331, 121.481 312.426, 136 320.179 C 150.186 327.755, 163.087 338.151, 170.716 348.155 C 176.059 355.161, 177 354.639, 177 344.671 C 177 336.968, 176.757 335.973, 173.770 331.421 C 169.343 324.676, 148.935 304.398, 141 298.861 C 125.326 287.923, 112.081 281.693, 97.750 278.517 C 93.487 277.572, 90 276.447, 90 276.016 C 90 275.585, 93.713 270.998, 98.250 265.824 C 119.709 241.352, 118.248 242.699, 120.390 245.400 C 121 246.170, 129.339 255.866, 138.920 266.947 C 152.263 282.379, 156.817 287.025, 158.376 286.797 C 159.550 286.626, 165.883 280.156, 173.348 271.500 C 180.464 263.250, 194.209 247.338, 203.893 236.140 C 213.577 224.942, 224.403 212.342, 227.950 208.140 C 234.473 200.415, 246.868 186.104, 277.006 151.500 C 286.107 141.050, 297.119 128.300, 301.475 123.166 L 309.396 113.831 320.381 124.938 C 326.422 131.047, 331.805 135.898, 332.343 135.719 C 332.881 135.540, 335.700 121.467, 338.606 104.446 C 341.513 87.426, 345.266 66.146, 346.946 57.158 C 348.626 48.170, 350 40.183, 350 39.408 C 350 37.527, 348.877 37.657, 339.500 40.628 M 86.120 151 C 85.946 207.971, 86.027 210.997, 87.718 210.935 C 89.368 210.874, 97.457 201.963, 114.277 181.674 C 118.005 177.179, 121.414 173.500, 121.852 173.500 C 122.291 173.500, 125.316 176.674, 128.575 180.554 C 142.395 197.008, 152.610 207.961, 154.151 207.980 C 155.059 207.991, 158.200 205.188, 161.132 201.750 C 164.063 198.313, 168.832 192.836, 171.731 189.580 L 177 183.659 177 159.580 L 177 135.501 169.977 128.844 C 161.045 120.377, 148.279 111.644, 135.407 105.196 C 121.072 98.014, 98.729 91.051, 89.902 91.015 L 86.304 91 86.120 151 M 244 99.242 C 242.075 100.385, 233.525 105.353, 225 110.282 C 208.427 119.866, 197.302 128.190, 193.408 133.921 C 191.133 137.269, 191 138.279, 191 152.232 C 191 163.423, 191.303 166.980, 192.250 166.919 C 193.521 166.836, 224.437 131.153, 243.600 107.650 C 251.947 97.412, 252.088 94.443, 244 99.242 M 639 139 L 639 152 632.082 152 C 621.557 152, 622 151.446, 622 164.607 L 622 176 629.441 176 C 634.296 176, 637.163 176.434, 637.691 177.250 C 638.136 177.938, 638.500 190.200, 638.500 204.500 C 638.500 227.384, 638.729 231.197, 640.408 236.318 C 645.365 251.429, 661.691 260.250, 681.816 258.691 C 690.722 258.001, 702.857 254.536, 703.656 252.455 C 704.765 249.565, 698.477 230, 696.439 230 C 696.070 230, 693.678 230.742, 691.124 231.650 C 684.725 233.922, 677.686 232.840, 673.837 228.991 L 671 226.154 671 201.077 L 671 176 684.500 176 L 698 176 698 164.529 L 698 153.058 684.750 152.779 L 671.500 152.500 671.221 139.250 L 670.942 126 654.971 126 L 639 126 639 139 M 302.333 143.250 C 298.974 147.238, 293.025 154.080, 289.113 158.455 L 282 166.410 282 220.498 L 282 274.587 276.365 275.769 C 273.266 276.419, 270.341 276.711, 269.865 276.417 C 269.389 276.123, 269 255.434, 269 230.441 C 269 192.566, 268.771 185, 267.626 185 C 266.870 185, 262.708 189.146, 258.376 194.214 C 254.044 199.281, 249.600 204.407, 248.500 205.604 C 247.400 206.801, 245.198 209.292, 243.606 211.140 C 242.014 212.988, 239.539 215.766, 238.106 217.314 L 235.500 220.129 235 254.801 L 234.500 289.473 229.508 292.739 C 226.762 294.535, 224.062 295.854, 223.508 295.670 C 222.871 295.458, 222.402 284.960, 222.234 267.167 C 222.012 243.554, 221.738 239, 220.541 239 C 219.756 239, 218.515 239.855, 217.783 240.899 C 217.052 241.944, 213.764 245.704, 210.477 249.256 C 201.417 259.045, 193.640 268.091, 192.285 270.416 C 190.500 273.479, 190.466 355.025, 192.250 354.942 C 192.938 354.911, 195.750 351.946, 198.500 348.354 C 218.970 321.615, 250.537 307.921, 297.500 305.405 C 305.105 304.997, 310.805 304.250, 311.235 303.604 C 312.113 302.284, 312.268 139.862, 311.393 137.582 C 310.312 134.766, 308.550 135.868, 302.333 143.250 M 543.601 149.594 C 525.151 154.058, 510.097 167.821, 504.088 185.718 C 502.499 190.450, 502.006 194.395, 502.024 202.218 C 502.054 214.838, 503.016 219.255, 507.966 229.518 C 518.979 252.353, 546.325 263.239, 578.342 257.533 C 592.243 255.055, 608 245.940, 608 240.377 C 608 238.820, 605.506 236.009, 599.750 231.077 C 595.212 227.190, 590.817 224.007, 589.982 224.005 C 589.147 224.002, 586.885 225.073, 584.955 226.385 C 575.658 232.702, 559.008 234.487, 549.537 230.180 C 546.807 228.939, 543.703 227.153, 542.640 226.212 C 539.081 223.060, 535 216.724, 535 214.350 L 535 212 575 212 L 615 212 615 203.160 C 615 192.850, 612.364 181.276, 608.325 173.856 C 602.547 163.240, 588.586 153.211, 574.467 149.533 C 567.153 147.628, 551.599 147.659, 543.601 149.594 M 752.216 150.019 C 725.909 156.911, 709 177.784, 709 203.366 C 709 227.688, 721.823 245.744, 745.944 255.385 C 753.133 258.258, 754.204 258.405, 768 258.407 C 780.892 258.408, 783.343 258.126, 790.098 255.859 C 814.333 247.726, 829.321 225.252, 827.683 199.500 C 826.090 174.443, 810.493 156.049, 785.356 149.581 C 776.855 147.394, 761.458 147.597, 752.216 150.019 M 898.500 149.887 C 891.743 151.851, 886.989 154.122, 882.317 157.618 C 880.566 158.928, 878.902 160, 878.619 160 C 878.336 160, 877.969 157.637, 877.802 154.750 L 877.500 149.500 862.250 149.224 L 847 148.948 847 203.474 L 847 258 862.378 258 C 874.165 258, 878.020 257.681, 878.890 256.632 C 879.692 255.666, 879.948 246.937, 879.763 226.882 C 879.456 193.792, 880.001 190.737, 887.326 184.434 C 893.074 179.489, 897.211 177.923, 906.250 177.272 L 914 176.714 914 162.357 L 914 148 909.250 148.071 C 906.638 148.110, 901.800 148.927, 898.500 149.887 M 951 149.643 C 940.941 151.591, 925 159.230, 925 162.102 C 925 164.559, 933.988 181.049, 935.685 181.706 C 936.337 181.958, 939.757 180.786, 943.286 179.102 C 965.655 168.427, 987.592 173.085, 989.722 188.963 L 990.263 193 972.882 193.017 C 947.829 193.042, 937.624 195.724, 928.614 204.650 C 922.424 210.783, 920.509 215.949, 920.514 226.500 C 920.518 234.319, 920.870 236.168, 923.195 240.590 C 929.437 252.460, 942.642 259, 960.368 259 C 964.366 259, 970.048 258.284, 972.995 257.409 C 978.360 255.816, 988.508 250.606, 989.559 248.905 C 989.866 248.407, 990.766 248, 991.559 248 C 992.595 248, 993 249.233, 993 252.383 C 993 256.084, 993.351 256.861, 995.250 257.370 C 998.227 258.167, 1009.180 258.160, 1016.886 257.354 L 1023.065 256.708 1022.457 220.604 C 1021.917 188.516, 1021.625 183.727, 1019.835 177.550 C 1015.607 162.961, 1005.520 154.214, 987.540 149.547 C 980.025 147.596, 961.315 147.646, 951 149.643 M 378 150.471 C 378 152.668, 390.042 182.482, 405.276 218 C 422.102 257.232, 421.968 256.956, 424.450 257.568 C 425.578 257.846, 433.020 257.945, 440.989 257.787 L 455.478 257.500 458.845 249.500 C 460.697 245.100, 463.784 237.675, 465.706 233 C 467.627 228.325, 470.927 220.450, 473.039 215.500 C 475.151 210.550, 478.878 201.550, 481.321 195.500 C 483.764 189.450, 488.741 177.212, 492.381 168.304 C 496.022 159.397, 499 151.398, 499 150.528 C 499 149.145, 497.102 148.982, 483.765 149.224 L 468.531 149.500 459.680 171 C 454.812 182.825, 448.477 198.575, 445.603 206 C 442.728 213.425, 439.954 219.364, 439.438 219.197 C 438.562 218.914, 434.990 210.413, 418.349 169 C 414.702 159.925, 411.037 151.713, 410.204 150.750 C 408.885 149.225, 406.716 149, 393.345 149 C 380.506 149, 378 149.240, 378 150.471 M 551.994 172.934 C 543.609 175.485, 537.270 181.962, 534.559 190.750 L 533.865 193 558.933 193 L 584 193 583.996 190.750 C 583.988 185.557, 577.488 177.673, 570.500 174.377 C 565.367 171.957, 557.280 171.326, 551.994 172.934 M 760.698 175.383 C 753.850 177.936, 749.365 181.843, 745.856 188.313 C 742.789 193.968, 742.502 195.231, 742.520 203 C 742.536 209.744, 743.027 212.586, 744.896 216.757 C 752.437 233.584, 776.149 237.845, 787.882 224.482 C 793.457 218.133, 794.956 213.685, 794.956 203.500 C 794.956 196.590, 794.484 193.455, 792.921 190 C 790.406 184.435, 785.750 179.469, 780.529 176.780 C 775.466 174.171, 765.777 173.489, 760.698 175.383 M 1098.250 197.649 C 1095.362 198.533, 1093 199.649, 1093 200.128 C 1093 200.608, 1092.325 201, 1091.500 201 C 1090.675 201, 1090 200.377, 1090 199.617 C 1090 197.795, 1086.868 197.030, 1079.335 197.014 L 1073.171 197 1072.532 204.250 C 1072.180 208.238, 1072.029 226.575, 1072.196 245 L 1072.500 278.500 1081.750 278.788 L 1091 279.075 1091 266.538 C 1091 259.642, 1091.176 254, 1091.391 254 C 1091.606 254, 1093.743 254.890, 1096.141 255.978 C 1101.202 258.275, 1111.993 258.682, 1118.236 256.811 C 1124.013 255.080, 1131.844 247.601, 1134.743 241.046 C 1138.030 233.613, 1138.207 222.789, 1135.168 214.968 C 1129.736 200.984, 1113.002 193.134, 1098.250 197.649 M 1175.143 197.493 C 1172.747 198.240, 1169.711 199.862, 1168.397 201.097 C 1165.791 203.545, 1164.577 203.106, 1164.530 199.697 C 1164.501 197.609, 1164.078 197.500, 1156 197.500 L 1147.500 197.500 1147.234 226.500 C 1146.991 252.876, 1147.122 255.613, 1148.675 256.750 C 1151.072 258.505, 1162.478 258.379, 1164.279 256.578 C 1165.378 255.479, 1165.722 251.619, 1165.794 239.598 C 1165.902 221.658, 1166.791 218.610, 1172.922 215.164 C 1175.135 213.920, 1178.521 213, 1180.886 213 L 1185 213 1185 204.500 L 1185 196 1182.250 196.067 C 1180.737 196.104, 1177.539 196.745, 1175.143 197.493 M 1216.336 197.036 C 1205.590 198.473, 1197.193 204.314, 1192.474 213.635 C 1189.876 218.767, 1189.505 220.562, 1189.503 228 C 1189.500 235.543, 1189.832 237.099, 1192.446 241.819 C 1200.836 256.964, 1218.662 262.541, 1236.941 255.738 C 1248.693 251.365, 1257.061 237.688, 1255.599 225.245 C 1254.659 217.250, 1250.496 208.606, 1245.441 204.157 C 1238.733 198.252, 1227.605 195.530, 1216.336 197.036 M 1097.299 213.960 C 1085.652 221.061, 1090.666 243, 1103.936 243 C 1115.141 243, 1121.870 231.803, 1117.516 220.404 C 1116.391 217.457, 1114.655 215.151, 1112.635 213.919 C 1108.508 211.403, 1101.461 211.421, 1097.299 213.960 M 1215.116 213.712 C 1208.764 216.842, 1206.044 227.849, 1209.852 235.016 C 1217.305 249.041, 1236.993 243.327, 1236.998 227.136 C 1237.003 215.547, 1225.597 208.550, 1215.116 213.712 M 959.500 214.403 C 955.873 216.004, 953.508 218.534, 952.047 222.377 C 950.575 226.248, 953.270 231.736, 957.973 234.444 C 962.603 237.111, 973.959 237.182, 979 234.576 C 986.777 230.555, 990 225.712, 990 218.050 L 990 213 976.250 213.039 C 967.095 213.065, 961.497 213.521, 959.500 214.403 M 1044.314 235.950 C 1036.335 240.815, 1036.430 252.604, 1044.478 256.423 C 1050.104 259.092, 1054.701 258.499, 1058.600 254.600 C 1061.537 251.663, 1062 250.536, 1062 246.323 C 1062 240.814, 1060.278 237.712, 1055.989 235.494 C 1052.071 233.468, 1048.132 233.622, 1044.314 235.950 M 931.051 291.439 C 929.078 293.816, 930.536 296.186, 933.744 295.817 C 935.933 295.565, 936.500 294.985, 936.500 293 C 936.500 290.023, 933.047 289.034, 931.051 291.439 M 1215.362 291.500 C 1214.390 294.031, 1215.815 296.165, 1218.246 295.820 C 1219.861 295.591, 1220.590 294.721, 1220.816 292.750 C 1221.090 290.375, 1220.779 290, 1218.535 290 C 1217.106 290, 1215.678 290.675, 1215.362 291.500 M 437 297.500 C 437 301.075, 436.826 304, 436.614 304 C 436.402 304, 434.940 303.328, 433.364 302.506 C 429.736 300.614, 425.891 300.601, 421.427 302.466 C 416.728 304.429, 413.547 311.291, 414.288 317.866 C 414.695 321.474, 415.554 323.120, 418.387 325.716 C 421.454 328.527, 422.703 329, 427.051 329 C 429.845 329, 433.050 328.508, 434.173 327.907 C 435.650 327.117, 436.517 327.117, 437.307 327.907 C 438.908 329.508, 441.694 329.240, 442.393 327.418 C 442.727 326.548, 443 317.998, 443 308.418 L 443 291 440 291 L 437 291 437 297.500 M 579.250 292.130 C 577.746 293.658, 577.603 296, 579.014 296 C 579.571 296, 580.896 295.457, 581.958 294.794 C 583.534 293.810, 584.234 293.902, 585.773 295.294 C 588.307 297.587, 592.172 297.448, 594.278 294.989 C 596.398 292.512, 596.482 291, 594.500 291 C 593.675 291, 593 291.501, 593 292.113 C 593 292.839, 591.867 292.996, 589.750 292.566 C 581.910 290.972, 580.450 290.911, 579.250 292.130 M 842 310 L 842 329 844.500 329 L 847 329 847 310 L 847 291 844.500 291 L 842 291 842 310 M 857.813 298.250 C 857.573 300.741, 856.975 301.575, 855.250 301.820 C 852.510 302.209, 852.263 304.995, 854.908 305.686 C 857.370 306.330, 857.970 308.767, 857.986 318.193 C 857.998 325.001, 858.256 326.066, 860.223 327.443 C 861.445 328.299, 864.370 329, 866.723 329 C 870.333 329, 871 328.688, 871 327 C 871 325.549, 870.333 325, 868.571 325 C 864.195 325, 863 322.626, 863 313.929 L 863 306 866.500 306 C 869.295 306, 870 305.610, 870 304.063 C 870 302.609, 869.190 302.049, 866.750 301.813 C 863.892 301.538, 863.462 301.108, 863.187 298.250 C 862.930 295.584, 862.447 295, 860.500 295 C 858.553 295, 858.070 295.584, 857.813 298.250 M 1143 296.918 C 1143 300.159, 1141.875 302, 1139.893 302 C 1138.667 302, 1138 302.704, 1138 304 C 1138 305.327, 1138.667 306, 1139.981 306 C 1142.450 306, 1143.434 309.455, 1142.734 315.668 C 1142.086 321.419, 1143.505 326.665, 1146.082 328.044 C 1149.214 329.720, 1156.416 328.852, 1156.815 326.750 C 1157.063 325.442, 1156.481 325, 1154.508 325 C 1148.798 325, 1148 323.708, 1148 314.465 L 1148 306 1151.500 306 C 1154.333 306, 1155 305.619, 1155 304 C 1155 302.381, 1154.333 302, 1151.500 302 C 1148.167 302, 1148 301.833, 1148 298.500 C 1148 295.433, 1147.690 295, 1145.500 295 C 1143.702 295, 1143 295.539, 1143 296.918 M 390.418 301.969 C 387.180 303.279, 383.150 308.681, 382.390 312.732 C 381.401 318.006, 383.729 323.917, 387.898 326.717 C 393.888 330.742, 406.500 329.218, 406.500 324.470 C 406.500 322.951, 405.928 322.573, 404 322.817 C 393.111 324.197, 392.522 324.164, 390.250 322.033 C 385.740 317.802, 387.055 317, 398.500 317 L 409 317 409 313.135 C 409 304.617, 398.890 298.542, 390.418 301.969 M 451.667 301.667 C 450.547 302.786, 450.926 320.986, 452.117 323.316 C 454.118 327.229, 457.226 328.954, 462.316 328.978 C 464.964 328.990, 468.093 328.485, 469.268 327.857 C 470.871 326.999, 471.500 326.999, 471.786 327.857 C 472.496 329.989, 476.726 329.151, 477.370 326.750 C 478.170 323.765, 478.162 311.464, 477.357 305.589 C 476.804 301.550, 476.421 300.940, 474.607 301.199 C 472.688 301.473, 472.448 302.325, 471.916 310.738 C 471.224 321.676, 469.822 324, 463.916 324 C 457.944 324, 457 322.299, 457 311.536 C 457 303.958, 456.704 302.100, 455.418 301.607 C 453.385 300.827, 452.492 300.841, 451.667 301.667 M 492.445 301.959 C 491.315 302.417, 488.904 304.484, 487.087 306.554 C 483.992 310.079, 483.810 310.690, 484.209 316.207 C 484.568 321.182, 485.124 322.585, 487.787 325.249 C 490.520 327.981, 491.776 328.454, 497.220 328.797 C 502.519 329.132, 503.930 328.855, 506.250 327.024 C 510.195 323.912, 509.939 321.577, 505.750 322.451 C 496.436 324.394, 494.602 324.270, 492.023 321.524 C 488.426 317.695, 488.567 311.629, 492.328 308.394 C 495.518 305.650, 500.601 305.231, 503.559 307.468 C 506.287 309.532, 508 309.345, 508 306.985 C 508 302.718, 498.306 299.585, 492.445 301.959 M 518.174 302.523 C 515.882 303.518, 514.958 304.517, 515.205 305.734 C 515.571 307.545, 515.921 307.568, 524.300 306.338 C 528.483 305.724, 532 307.873, 532 311.042 C 532 312.485, 530.811 312.841, 524.879 313.177 C 518.594 313.532, 517.480 313.904, 515.379 316.345 C 512.236 319.999, 512.378 322.532, 515.923 326.077 C 518.314 328.468, 519.691 329, 523.489 329 C 526.042 329, 529.031 328.519, 530.130 327.931 C 531.582 327.154, 532.517 327.184, 533.551 328.042 C 534.334 328.692, 535.655 328.963, 536.487 328.643 C 538.536 327.857, 538.603 312.379, 536.579 307.534 C 534.076 301.544, 525.686 299.260, 518.174 302.523 M 551.411 302.891 C 546.279 306.021, 544 309.711, 544.004 314.885 C 544.008 320.673, 546.809 325.465, 551.493 327.698 C 553.526 328.668, 555 330.105, 555 331.118 C 555 332.079, 555.925 333.159, 557.055 333.517 C 560.040 334.465, 558.873 336.448, 555.113 336.818 C 552.714 337.054, 551.962 337.570, 552.198 338.818 C 552.691 341.422, 558.420 341.580, 560.941 339.059 C 563.534 336.466, 563.551 334.452, 561 332.268 C 558.391 330.034, 558.470 329.001, 561.250 328.996 C 564.295 328.991, 570 325.397, 570 323.483 C 570 321.083, 567.065 320.530, 563.984 322.350 C 557.147 326.389, 550 322.633, 550 315 C 550 307.482, 557.211 303.619, 564 307.500 C 567.487 309.493, 569 309.338, 569 306.985 C 569 301.935, 557.405 299.236, 551.411 302.891 M 579.009 302.290 C 577.639 302.983, 576.360 304.367, 576.168 305.364 C 575.849 307.025, 576.380 307.119, 582.448 306.469 C 588.044 305.869, 589.382 306.035, 591.038 307.534 C 592.117 308.511, 593 310.140, 593 311.155 C 593 312.757, 592.153 313, 586.577 313 C 581.125 313, 579.688 313.392, 577.077 315.589 C 574.074 318.116, 573.284 320.969, 574.621 324.455 C 576.083 328.264, 585.572 330.370, 590.173 327.907 C 591.650 327.117, 592.517 327.117, 593.307 327.907 C 593.908 328.508, 595.210 329, 596.200 329 C 597.823 329, 598 327.930, 598 318.104 L 598 307.207 594.465 304.104 C 591.572 301.563, 590.075 301.003, 586.215 301.015 C 583.622 301.023, 580.379 301.597, 579.009 302.290 M 611.641 302.898 C 607.013 305.949, 605.014 309.857, 605.007 315.868 C 605.001 320.773, 605.334 321.569, 608.882 325.118 C 612.527 328.762, 613.131 329, 618.747 329 C 625.395 329, 628.871 327.085, 631.520 321.961 C 633.569 317.999, 633.378 311.132, 631.114 307.420 C 627.472 301.447, 617.392 299.106, 611.641 302.898 M 689.304 302.956 C 680.724 308.188, 679.906 319.198, 687.596 325.950 C 690.606 328.593, 691.837 329, 696.812 329 C 703.182 329, 707 327.093, 707 323.912 C 707 321.235, 704.328 320.393, 702.134 322.379 C 699.363 324.886, 693.367 324.458, 690.455 321.545 C 688.013 319.104, 687.203 314.242, 688.621 310.545 C 689.942 307.104, 699.875 304.370, 701.500 307 C 701.840 307.550, 703.249 308, 704.632 308 C 708.294 308, 707.334 304.920, 702.997 302.752 C 698.416 300.461, 693.270 300.538, 689.304 302.956 M 718.664 303.055 C 715.985 304.508, 714.236 306.474, 712.868 309.566 C 710.340 315.281, 711.180 320.134, 715.516 324.866 C 718.468 328.087, 719.311 328.425, 725.357 328.810 C 731.790 329.220, 732.062 329.138, 735.406 325.794 C 747.301 313.899, 733.423 295.049, 718.664 303.055 M 754.615 302.777 C 752.440 304.076, 751.619 304.192, 751.281 303.250 C 751.035 302.563, 749.733 302, 748.388 302 L 745.942 302 746.221 315.250 L 746.500 328.500 749.250 328.816 L 752 329.133 752 320.021 C 752 311.680, 752.208 310.701, 754.455 308.455 C 757.584 305.325, 761.944 305.247, 764.783 308.269 C 766.575 310.176, 766.962 311.975, 767.208 319.519 C 767.495 328.354, 767.541 328.500, 770 328.500 L 772.500 328.500 772.440 318.118 L 772.380 307.736 768.705 304.368 C 764.457 300.476, 759.419 299.907, 754.615 302.777 M 782.898 303.282 C 780.275 305.044, 779.432 306.367, 779.201 309.083 C 778.807 313.737, 781.416 316.045, 788.719 317.504 C 792 318.159, 794.812 319.349, 795.432 320.344 C 797.197 323.175, 794.342 324.178, 786.250 323.570 C 779.472 323.061, 779 323.156, 779 325.038 C 779 327.694, 782.628 329, 790.009 329 C 794.693 329, 796.400 328.543, 798.407 326.750 C 804.970 320.886, 801.139 313.873, 790.658 312.563 C 784.328 311.772, 782.302 309.715, 785.529 307.355 C 787.780 305.709, 794.170 305.570, 795.733 307.133 C 797.165 308.565, 800 307.539, 800 305.588 C 800 300.900, 788.711 299.378, 782.898 303.282 M 883.445 301.959 C 882.315 302.417, 879.953 304.429, 878.195 306.430 C 875.566 309.425, 875.001 310.905, 875.004 314.785 C 875.011 323.711, 880.559 329, 889.916 329 C 894.091 329, 895.518 328.484, 898.441 325.918 C 908.631 316.970, 902.348 300.801, 888.782 301.063 C 886.977 301.098, 884.575 301.501, 883.445 301.959 M 918.063 302.658 C 916.341 303.871, 915.509 304.027, 915.229 303.188 C 915.012 302.535, 913.746 302, 912.417 302 L 910 302 910 315.500 L 910 329 912.397 329 C 914.710 329, 914.807 328.701, 915.147 320.573 C 915.536 311.285, 917.551 307.050, 922.090 305.979 C 923.621 305.617, 924.500 304.697, 924.500 303.455 C 924.500 300.867, 921.186 300.457, 918.063 302.658 M 931 315 L 931 329 933.421 329 C 936.744 329, 937.380 325.463, 936.493 311.895 C 935.799 301.272, 935.722 301, 933.391 301 L 931 301 931 315 M 947.750 302.515 C 946.125 303.430, 945 304.917, 945 306.149 C 945 307.925, 945.407 308.130, 947.750 307.536 C 954.706 305.773, 958.094 305.775, 960.050 307.545 C 961.122 308.516, 962 310.089, 962 311.042 C 962 312.481, 960.826 312.841, 955.073 313.166 C 946.590 313.645, 944 315.496, 944 321.082 C 944 326.197, 947.513 329.006, 953.885 328.985 C 956.423 328.976, 959.135 328.568, 959.911 328.076 C 960.769 327.533, 961.989 327.601, 963.028 328.250 C 966.688 330.535, 968.002 328.553, 967.976 320.781 C 967.946 311.676, 966.728 306.284, 964.110 303.666 C 961.412 300.968, 951.708 300.286, 947.750 302.515 M 1021.667 301.667 C 1021.300 302.033, 1021 308.363, 1021 315.733 L 1021 329.133 1023.750 328.816 C 1026.484 328.502, 1026.503 328.448, 1027 319.350 C 1027.389 312.234, 1027.924 309.733, 1029.405 308.100 C 1031.821 305.437, 1035.002 305.427, 1038.365 308.073 C 1040.879 310.050, 1041 310.579, 1041 319.573 C 1041 328.849, 1041.038 329, 1043.393 329 C 1046.464 329, 1047 327.448, 1047 318.553 C 1047 309.870, 1049.181 306, 1054.073 306 C 1059.579 306, 1061 308.782, 1061 319.566 L 1061 329.133 1063.750 328.816 C 1066.332 328.519, 1066.520 328.164, 1066.822 323 C 1067.699 308.036, 1064.220 301, 1055.945 301 C 1053.426 301, 1050.383 301.836, 1048.368 303.082 L 1045 305.163 1041.632 303.082 C 1037.558 300.563, 1032.829 300.411, 1029.358 302.685 C 1026.947 304.265, 1026.728 304.265, 1025.844 302.685 C 1024.880 300.963, 1022.862 300.471, 1021.667 301.667 M 1079.457 302.863 C 1071.232 307.879, 1070.034 318.826, 1076.983 325.484 C 1079.435 327.833, 1081.088 328.451, 1085.839 328.795 C 1092.167 329.252, 1098 327.187, 1098 324.487 C 1098 323.280, 1096.709 323.135, 1090.593 323.652 C 1083.554 324.247, 1083.058 324.149, 1080.593 321.684 C 1079.167 320.258, 1078 318.620, 1078 318.045 C 1078 317.381, 1082.054 317, 1089.130 317 L 1100.260 317 1099.729 312.284 C 1099.303 308.510, 1098.482 306.913, 1095.613 304.284 C 1092.609 301.531, 1091.259 301.001, 1087.265 301.004 C 1084.389 301.006, 1081.293 301.743, 1079.457 302.863 M 1115.546 302.621 C 1113.507 303.764, 1112.475 303.925, 1112.213 303.139 C 1112.004 302.512, 1110.746 302, 1109.417 302 L 1107 302 1107 315.500 L 1107 329 1109.500 329 C 1111.940 329, 1112 328.823, 1112 321.649 C 1112 313.338, 1113.355 308.415, 1116.039 306.979 C 1119.170 305.303, 1122.987 305.896, 1125.545 308.455 C 1127.792 310.701, 1128 311.680, 1128 320.021 L 1128 329.133 1130.750 328.816 C 1133.087 328.548, 1133.551 327.974, 1133.838 325 C 1134.560 317.525, 1132.914 307.012, 1130.601 304.323 C 1127.741 300.998, 1120.002 300.123, 1115.546 302.621 M 1168.445 301.959 C 1167.315 302.417, 1164.953 304.429, 1163.195 306.430 C 1160.456 309.550, 1160 310.831, 1160 315.400 C 1160 324.108, 1165.383 329, 1174.965 329 C 1179.337 329, 1180.540 328.532, 1183.765 325.577 C 1187.361 322.281, 1187.500 321.906, 1187.500 315.505 C 1187.500 308.981, 1187.421 308.783, 1183.289 304.928 C 1179.702 301.583, 1178.441 301.009, 1174.789 301.063 C 1172.430 301.098, 1169.575 301.501, 1168.445 301.959 M 1203.166 302.586 C 1201.448 303.797, 1200.537 303.937, 1199.716 303.116 C 1199.102 302.502, 1197.790 302, 1196.800 302 C 1195.156 302, 1195 303.167, 1195 315.500 L 1195 329 1197.500 329 C 1199.947 329, 1200 328.840, 1200 321.401 C 1200 311.950, 1201.807 307.631, 1206.302 306.342 C 1208.501 305.712, 1209.500 304.812, 1209.500 303.463 C 1209.500 300.901, 1206.204 300.444, 1203.166 302.586 M 1216 315 L 1216 329 1218.500 329 L 1221 329 1221 315 L 1221 301 1218.500 301 L 1216 301 1216 315 M 1233.250 302.491 C 1231.019 303.460, 1230 304.582, 1230 306.068 C 1230 307.930, 1230.385 308.137, 1232.750 307.545 C 1239.544 305.846, 1242.072 305.817, 1244.507 307.413 C 1245.878 308.311, 1247 309.885, 1247 310.910 C 1247 312.513, 1246.024 312.829, 1240.049 313.167 C 1234.420 313.485, 1232.612 314.016, 1230.549 315.954 C 1224.920 321.242, 1229.066 329, 1237.520 329 C 1240.056 329, 1243.050 328.508, 1244.173 327.907 C 1245.650 327.117, 1246.517 327.117, 1247.307 327.907 C 1247.908 328.508, 1249.249 329, 1250.286 329 C 1252.045 329, 1252.149 328.219, 1251.836 317.411 C 1251.509 306.137, 1251.424 305.757, 1248.694 303.411 C 1245.415 300.593, 1238.557 300.184, 1233.250 302.491 M 807.157 312.509 C 807.498 323.109, 807.518 323.184, 810.766 326.084 C 814.396 329.325, 819.765 329.975, 824.624 327.762 C 826.784 326.777, 827.426 326.777, 827.754 327.762 C 827.981 328.443, 829.254 329, 830.583 329 L 833 329 833 315.500 L 833 302 830.500 302 C 828.040 302, 828 302.130, 828 310.050 C 828 322.073, 825.481 325.704, 818.428 323.845 C 814.264 322.747, 813.068 319.931, 812.761 310.500 C 812.501 302.523, 812.492 302.499, 809.657 302.175 L 806.814 301.849 807.157 312.509 M 1083.259 306.533 C 1080.591 307.655, 1078 310.562, 1078 312.434 C 1078 312.745, 1081.825 313, 1086.500 313 C 1091.175 313, 1095 312.650, 1095 312.223 C 1095 310.418, 1091.826 307.135, 1089.195 306.218 C 1087.162 305.509, 1085.482 305.598, 1083.259 306.533 M 390.174 308.314 C 386.428 312.302, 387.296 313, 396 313 C 404.785 313, 405.855 312.091, 401.686 308.174 C 398.514 305.195, 393.043 305.261, 390.174 308.314 M 422.455 308.455 C 419.074 311.835, 419.002 318.714, 422.314 321.826 C 424.590 323.964, 429.122 324.658, 432.455 323.379 C 434.649 322.537, 437 317.757, 437 314.139 C 437 312.060, 436.083 310.406, 433.923 308.589 C 429.976 305.267, 425.692 305.217, 422.455 308.455 M 613.455 308.455 C 611.568 310.341, 611 311.962, 611 315.455 C 611 321.340, 613.468 324, 618.929 324 C 623.165 324, 625.555 322.300, 627.125 318.171 C 630.367 309.644, 619.786 302.123, 613.455 308.455 M 720.455 308.455 C 718.568 310.341, 718 311.962, 718 315.455 C 718 321.297, 720.476 324, 725.826 324 C 730.999 324, 734 320.814, 734 315.322 C 734 307.326, 725.761 303.148, 720.455 308.455 M 884.656 307.133 C 881.508 308.963, 879.719 314.618, 881.031 318.593 C 882.383 322.690, 884.522 324, 889.862 324 C 892.984 324, 894.307 323.426, 895.927 321.365 C 899.207 317.196, 898.338 310.546, 894.087 307.282 C 892.126 305.776, 887.126 305.697, 884.656 307.133 M 1169.656 307.133 C 1167.176 308.574, 1164.968 314.121, 1165.690 317.092 C 1167.915 326.238, 1180.367 326.354, 1182.652 317.250 C 1183.383 314.337, 1181.340 309.352, 1178.640 307.460 C 1176.204 305.754, 1172.274 305.611, 1169.656 307.133 M 653.655 310.829 C 650.426 314.397, 652.881 320, 657.674 320 C 661.885 320, 664.764 313.164, 661.800 310.200 C 660.007 308.407, 655.534 308.752, 653.655 310.829 M 991.655 310.829 C 989.719 312.968, 989.484 317.084, 991.200 318.800 C 994.302 321.902, 1001 318.844, 1001 314.326 C 1001 309.745, 994.752 307.407, 991.655 310.829 M 520.200 318.200 C 517.165 321.235, 520.063 325, 525.434 325 C 528.494 325, 532 321.796, 532 319 C 532 317.252, 531.333 317, 526.700 317 C 523.785 317, 520.860 317.540, 520.200 318.200 M 580.571 318.571 C 578.554 320.589, 578.594 321.322, 580.829 323.345 C 584.824 326.960, 593 324.041, 593 319 C 593 317.246, 592.333 317, 587.571 317 C 583.970 317, 581.614 317.529, 580.571 318.571 M 950.200 318.200 C 948.570 319.830, 948.692 321.550, 950.571 323.429 C 954.092 326.949, 962 323.885, 962 319 C 962 317.252, 961.333 317, 956.700 317 C 953.785 317, 950.860 317.540, 950.200 318.200 M 1235.750 318.080 C 1233.422 319.436, 1233.524 322.675, 1235.934 323.965 C 1240.623 326.474, 1247 323.613, 1247 319 C 1247 317.276, 1246.343 317.004, 1242.250 317.030 C 1239.638 317.047, 1236.713 317.519, 1235.750 318.080"
        stroke="none" fill="#ffffff" fill-rule="evenodd"></path> -->
    <path
        d="M 244 99.242 C 242.075 100.385, 233.525 105.353, 225 110.282 C 208.427 119.866, 197.302 128.190, 193.408 133.921 C 191.123 137.284, 191 138.246, 191 152.815 C 191 161.259, 191.367 168.017, 191.816 167.833 C 193.159 167.285, 241.180 111.186, 248.319 101.826 C 249.794 99.893, 251 98.016, 251 97.656 C 251 96.386, 247.461 97.189, 244 99.242 M 302.787 142.726 C 299.175 147.002, 293.020 154.080, 289.110 158.455 L 282 166.410 282 220.498 L 282 274.587 276.365 275.769 C 273.266 276.419, 270.341 276.711, 269.865 276.417 C 269.389 276.123, 269 255.209, 269 229.941 C 269 203.541, 268.619 184, 268.104 184 C 267.611 184, 263.253 188.613, 258.419 194.250 C 253.584 199.887, 248.925 205.220, 248.064 206.101 C 247.204 206.981, 245.198 209.231, 243.606 211.101 C 242.014 212.970, 239.539 215.766, 238.106 217.314 L 235.500 220.129 235 254.767 L 234.500 289.405 230.500 292.169 C 228.300 293.690, 225.488 294.949, 224.250 294.967 L 222 295 222 266.500 C 222 249.654, 221.621 238, 221.073 238 C 220.562 238, 219.202 239.200, 218.048 240.666 C 216.895 242.132, 213.375 246.118, 210.226 249.523 C 201.369 259.100, 193.624 268.120, 192.285 270.416 C 190.841 272.895, 190.433 356.384, 191.868 355.833 C 192.346 355.650, 195.507 352.045, 198.892 347.821 C 220.529 320.830, 250.767 307.855, 297.769 305.394 C 310.132 304.746, 311.072 304.556, 311.544 302.599 C 312.610 298.181, 311.525 135.675, 310.427 135.309 C 309.837 135.112, 306.399 138.450, 302.787 142.726 M 1098.250 197.649 C 1095.362 198.533, 1093 199.649, 1093 200.128 C 1093 200.608, 1092.325 201, 1091.500 201 C 1090.675 201, 1090 200.377, 1090 199.617 C 1090 197.795, 1086.868 197.030, 1079.335 197.014 L 1073.171 197 1072.532 204.250 C 1072.180 208.238, 1072.029 226.575, 1072.196 245 L 1072.500 278.500 1081.750 278.788 L 1091 279.075 1091 267.038 C 1091 253.746, 1090.951 253.828, 1097.346 256.500 C 1101.647 258.297, 1112.725 258.462, 1118.236 256.811 C 1124.013 255.080, 1131.844 247.601, 1134.743 241.046 C 1138.030 233.613, 1138.207 222.789, 1135.168 214.968 C 1129.736 200.984, 1113.002 193.134, 1098.250 197.649 M 1174.878 197.562 C 1172.337 198.345, 1169.694 199.664, 1169.006 200.493 C 1167.182 202.690, 1165.187 202.336, 1164.820 199.750 C 1164.517 197.618, 1164.053 197.500, 1156 197.500 L 1147.500 197.500 1147.234 226.500 C 1146.927 259.902, 1146.360 258, 1156.620 258 C 1165.769 258, 1165.783 257.972, 1165.884 239.463 C 1165.982 221.526, 1166.833 218.586, 1172.922 215.164 C 1175.135 213.920, 1178.521 213, 1180.886 213 L 1185 213 1185 204.500 L 1185 196 1182.250 196.070 C 1180.737 196.108, 1177.420 196.780, 1174.878 197.562 M 1216.336 197.036 C 1205.590 198.473, 1197.193 204.314, 1192.474 213.635 C 1189.876 218.767, 1189.505 220.562, 1189.503 228 C 1189.500 235.543, 1189.832 237.099, 1192.446 241.819 C 1200.836 256.964, 1218.662 262.541, 1236.941 255.738 C 1248.693 251.365, 1257.061 237.688, 1255.599 225.245 C 1254.659 217.250, 1250.496 208.606, 1245.441 204.157 C 1238.733 198.252, 1227.605 195.530, 1216.336 197.036 M 1097.299 213.960 C 1093.049 216.551, 1091 220.789, 1091 226.990 C 1091 239.168, 1099.995 245.954, 1110.383 241.613 C 1120.400 237.428, 1121.854 219.541, 1112.635 213.919 C 1108.508 211.403, 1101.461 211.421, 1097.299 213.960 M 1215.116 213.712 C 1208.764 216.842, 1206.044 227.849, 1209.852 235.016 C 1217.305 249.041, 1236.993 243.327, 1236.998 227.136 C 1237.003 215.547, 1225.597 208.550, 1215.116 213.712 M 1044.314 235.950 C 1036.335 240.815, 1036.430 252.604, 1044.478 256.423 C 1050.104 259.092, 1054.701 258.499, 1058.600 254.600 C 1061.537 251.663, 1062 250.536, 1062 246.323 C 1062 240.814, 1060.278 237.712, 1055.989 235.494 C 1052.071 233.468, 1048.132 233.622, 1044.314 235.950"
        stroke="none" fill="#00a99d" fill-rule="evenodd"></path>
</svg>