<svg xmlns="http://www.w3.org/2000/svg" viewBox="480 380 650 760" version="1.1">
    <path
        d="M 726.500 505.629 C 717.783 507.946, 710.518 510.607, 704.333 513.748 L 697.071 517.437 690.286 515.626 C 681.333 513.236, 671.120 512.558, 662.500 513.781 C 649.635 515.606, 633.047 523.505, 624.078 532.076 C 620.552 535.446, 616.115 536.937, 609.497 536.976 C 599.905 537.033, 585.454 542.824, 573.506 551.399 C 562.441 559.340, 557.804 565.418, 551.612 580.098 C 548.888 586.556, 548.678 586.769, 541.729 590.098 C 532.330 594.602, 519.137 607.275, 515.440 615.351 C 511.754 623.401, 509.295 632.665, 508.453 641.673 C 507.802 648.636, 507.341 649.941, 504.275 653.500 C 499.509 659.031, 491.444 675.899, 489.018 685.410 C 487.510 691.320, 487 696.563, 487 706.145 C 487 718.210, 487.213 719.608, 490.598 729.724 C 494.549 741.533, 496.098 744.955, 498.647 747.504 C 499.578 748.435, 502.264 751.675, 504.616 754.704 C 509.602 761.125, 514.226 764.715, 524.822 770.392 L 532.500 774.507 533.728 780.003 C 535.798 789.272, 538 794.971, 542.340 802.288 C 551.955 818.499, 570.838 832.338, 588.921 836.425 C 599.810 838.885, 617.629 838.715, 626 836.069 C 636.576 832.727, 636.408 832.433, 632.140 846.844 C 628.574 858.881, 623.858 882.751, 623.654 889.795 L 623.500 895.089 643.388 895.073 C 654.327 895.064, 663.407 894.927, 663.566 894.768 C 663.724 894.609, 667.035 887.621, 670.922 879.239 C 676.811 866.539, 687.495 847.914, 689.988 846 C 691.480 844.855, 698.766 834.312, 699.361 832.437 C 699.716 831.319, 701.897 828.401, 704.209 825.952 C 706.520 823.504, 710.668 818.800, 713.428 815.500 C 716.187 812.200, 719.807 808.062, 721.472 806.303 C 723.137 804.545, 726.300 801.091, 728.500 798.627 C 732.885 793.716, 734.593 793.221, 739.110 795.557 C 743.958 798.064, 758.886 800.956, 767 800.961 C 786.597 800.972, 803.005 795.228, 815.138 784.111 C 822.943 776.958, 828.371 767.380, 832.556 753.372 L 835.283 744.245 852.392 743.743 C 871.247 743.189, 873.656 742.627, 889.202 735.150 C 897.983 730.927, 902.939 727.155, 912.190 717.651 C 919.653 709.985, 923.859 702.723, 927.917 690.500 C 931.115 680.865, 931.235 679.934, 931.194 665 C 931.171 656.475, 930.685 647.168, 930.115 644.319 C 927.590 631.703, 919.231 615.356, 911.088 607.110 C 905.417 601.367, 893.713 591, 892.900 591 C 892.493 591, 891.377 588.642, 890.420 585.759 C 887.824 577.943, 880.011 565.375, 872.988 557.721 C 866.366 550.502, 851.781 540.252, 841.500 535.592 C 830.471 530.592, 818.077 528, 805.202 528 C 794.841 528, 793.276 527.763, 790.319 525.750 C 788.501 524.513, 787.011 523.203, 787.007 522.839 C 786.991 521.301, 768.609 510.743, 761.853 508.391 C 755.782 506.279, 752.233 505.768, 741.500 505.465 C 734.350 505.263, 727.600 505.337, 726.500 505.629 M 786.741 589.431 C 782.069 591.096, 780.591 592.307, 777.881 596.693 C 776.100 599.575, 775.828 601.168, 776.276 606.109 L 776.815 612.056 767.658 621.778 C 762.621 627.125, 751.819 638.813, 743.653 647.750 C 735.488 656.688, 728.693 664, 728.553 664 C 728.413 664, 726.910 663.516, 725.214 662.925 C 722.678 662.041, 721.295 662.218, 717.437 663.925 C 711.805 666.416, 709.663 666.521, 707.549 664.406 C 706.090 662.947, 701.390 660.273, 680 648.733 C 672.081 644.461, 657.188 636.291, 645.500 629.806 C 641.650 627.670, 636.184 624.743, 633.353 623.303 C 628.759 620.966, 628.137 620.259, 627.574 616.737 C 626.360 609.148, 621.284 603.157, 614.759 601.615 C 611.338 600.806, 604.206 602.559, 601.327 604.917 C 594.838 610.230, 594.278 623.384, 600.267 629.778 C 602.278 631.924, 602.328 632.387, 601.131 637.778 C 600.432 640.925, 599.460 646.650, 598.970 650.500 C 598.481 654.350, 597.605 659.075, 597.023 661 C 596.441 662.925, 595.086 669.225, 594.013 675 C 592.004 685.808, 588.112 704.386, 585.867 713.884 C 584.722 718.728, 584.110 719.566, 579.763 722.241 C 571.617 727.253, 568.861 735.909, 572.903 743.790 C 575.920 749.673, 579.294 752.226, 584.746 752.750 C 591.166 753.366, 596.141 751.169, 599.820 746.090 L 602.763 742.027 678.880 741.806 L 754.996 741.585 759.748 746.709 C 764.885 752.248, 768.993 753.787, 775.424 752.580 C 779.047 751.901, 784.380 746.761, 786.067 742.324 C 789.876 732.307, 782.152 721, 771.500 721 C 766.794 721, 760.416 724.328, 758.645 727.708 L 757.232 730.405 679.866 730.148 L 602.500 729.890 601 727.717 C 600.175 726.521, 598.651 724.684, 597.612 723.634 C 595.762 721.762, 595.767 721.545, 597.888 712.612 C 600.094 703.317, 601.907 694.255, 606.494 669.597 C 607.917 661.950, 610.203 650.907, 611.575 645.057 C 614.067 634.429, 614.072 634.419, 618.284 632.143 L 622.500 629.865 631.481 634.550 C 636.421 637.127, 642.946 640.854, 645.981 642.833 C 649.017 644.812, 656.900 649.180, 663.500 652.538 C 677.624 659.726, 694.625 669.029, 701.093 673.109 C 704.710 675.391, 705.952 676.909, 706.940 680.253 C 709.384 688.523, 716.346 694.989, 722.816 694.996 C 726.862 695.001, 729.313 693.753, 733.515 689.551 C 737.418 685.649, 739.113 680.910, 738.762 674.880 C 738.501 670.381, 738.547 670.313, 751.500 656.049 C 758.650 648.175, 769.144 636.730, 774.820 630.616 L 785.141 619.500 791.320 619.444 C 794.719 619.413, 798.215 619.055, 799.088 618.649 C 800.682 617.908, 802.434 619.316, 835 647.510 L 846.500 657.466 846.234 661.983 C 846.034 665.391, 846.647 667.721, 848.734 671.475 C 852.267 677.831, 854.848 679.171, 862.733 678.745 C 868.020 678.459, 869.436 677.959, 872.072 675.454 C 876.303 671.431, 878 667.865, 878 663 C 878 657.633, 875.844 653.646, 871.257 650.529 C 868.059 648.355, 866.434 648, 859.699 648 L 851.863 648 838.829 636.250 C 831.661 629.788, 824.773 623.825, 823.523 623 C 822.273 622.175, 818.055 618.800, 814.149 615.500 L 807.048 609.500 807.020 604 C 806.975 595.084, 802.787 590.156, 794 588.679 C 792.042 588.350, 788.843 588.681, 786.741 589.431"
        stroke="none" fill="#26a69a" fill-rule="evenodd"></path>
    <path 
        d="M 547.007 393.703 C 539.547 397.541, 534.482 402.435, 530.663 409.500 C 528.503 413.495, 528.500 413.608, 528.216 495.416 C 528.025 550.737, 528.268 577.668, 528.964 578.364 C 530.339 579.739, 536.497 573.821, 539.228 568.500 C 540.358 566.300, 543.018 561.937, 545.141 558.805 C 547.263 555.673, 549 552.735, 549 552.277 C 549 550.319, 570.745 533.301, 579.519 528.391 C 581.424 527.325, 581.510 525.994, 581.763 493.641 C 581.924 473.096, 582.399 460, 582.983 460 C 583.508 460, 587.665 462.187, 592.219 464.859 C 596.774 467.532, 602.525 470.850, 605 472.234 C 618.390 479.719, 625.337 483.833, 633 488.816 C 649.548 499.575, 650.215 499.880, 655.110 498.935 C 661.763 497.650, 685.354 497.835, 690.504 499.212 C 694.151 500.188, 695.668 500.165, 698.268 499.098 C 708.910 494.728, 721.465 490.939, 727.521 490.271 C 733.489 489.612, 734.500 489.220, 734.500 487.565 C 734.500 486.249, 732.581 484.531, 728.500 482.193 C 714.042 473.910, 700.159 465.494, 696 462.491 C 693.525 460.705, 687.801 457.276, 683.280 454.872 C 678.758 452.467, 668.183 446.391, 659.780 441.369 C 651.376 436.347, 641.350 430.530, 637.500 428.441 C 633.650 426.353, 628.700 423.443, 626.500 421.976 C 621.155 418.409, 599.682 405.557, 588.500 399.231 C 574.240 391.164, 570.901 390, 562.020 390 C 554.970 390, 553.501 390.362, 547.007 393.703 M 918.361 589.501 C 917.990 590.469, 919.569 592.605, 922.814 595.523 C 925.580 598.010, 928.869 602.172, 930.123 604.772 C 931.377 607.372, 934.087 612.478, 936.144 616.118 C 942.575 627.494, 948 647.374, 948 659.562 L 948 665.993 953.750 669.542 C 956.913 671.494, 964.225 676, 970 679.555 C 975.775 683.110, 983.120 687.702, 986.323 689.759 C 989.525 691.817, 994.989 695.075, 998.464 697 C 1018.688 708.202, 1021.042 710.497, 1014.915 713.035 C 1013.218 713.738, 1008.831 716.508, 1005.165 719.190 C 1001.499 721.873, 996.250 725.189, 993.500 726.559 C 984.964 730.812, 964.655 743.435, 964.234 744.749 C 964.014 745.436, 965.285 746.786, 967.057 747.749 C 968.830 748.712, 973.480 751.567, 977.390 754.094 C 981.301 756.621, 987.718 760.583, 991.650 762.899 C 997.829 766.537, 999.086 767.772, 1000.900 771.990 C 1002.055 774.674, 1003 777.295, 1003 777.813 C 1003 778.331, 1003.618 779.268, 1004.372 779.894 C 1005.438 780.778, 1007.618 780.054, 1014.122 776.656 C 1024.700 771.131, 1044.555 759.521, 1048.500 756.555 C 1050.150 755.315, 1054.642 752.607, 1058.483 750.538 C 1074.280 742.027, 1080.678 736.396, 1085.799 726.500 C 1089.203 719.923, 1089.424 718.926, 1089.461 710 C 1089.497 701.278, 1089.229 699.927, 1086.187 693.500 C 1084.365 689.650, 1081.890 685.434, 1080.687 684.132 C 1078.391 681.646, 1068.965 675.279, 1060.500 670.497 C 1057.750 668.943, 1051.225 664.887, 1046 661.484 C 1040.775 658.081, 1034.378 654.362, 1031.784 653.220 C 1029.190 652.077, 1026.490 650.648, 1025.784 650.043 C 1024.306 648.777, 1006.198 638.069, 988 627.700 C 981.125 623.783, 974.895 619.987, 974.155 619.265 C 973.416 618.544, 971.391 617.226, 969.655 616.336 C 967.920 615.447, 964.700 613.506, 962.500 612.023 C 960.300 610.541, 953.775 606.823, 948 603.762 C 942.225 600.701, 935.286 597.022, 932.579 595.587 C 929.873 594.151, 926.190 591.857, 924.396 590.488 C 920.642 587.626, 919.173 587.385, 918.361 589.501 M 915.951 735.559 C 913.616 738.372, 903.171 745.879, 897.783 748.617 C 886.287 754.457, 870.792 758.024, 851.588 759.250 C 847.754 759.495, 847.631 759.625, 845.438 765.736 C 843.445 771.288, 840.946 775.636, 832.617 788.040 C 826.159 797.657, 809.751 808.063, 793.500 812.847 C 778.270 817.331, 758.397 817.591, 746.247 813.465 C 739.144 811.054, 737.609 811.473, 732.832 817.126 C 730.449 819.945, 726.724 824.108, 724.553 826.376 C 708.049 843.621, 685.141 879.467, 679.423 896.992 C 676.337 906.454, 676.216 906.629, 671.998 907.716 C 669.538 908.350, 668.406 909.260, 668.184 910.780 C 667.839 913.147, 671.447 915.768, 688.476 925.517 C 699.224 931.671, 726.185 947.277, 741.393 956.147 C 747.384 959.641, 754.584 963.984, 757.393 965.798 C 760.202 967.612, 766.100 970.881, 770.500 973.063 C 774.900 975.245, 784.575 980.653, 792 985.083 C 813.814 998.096, 830.739 1005.644, 844.500 1008.497 C 865.341 1012.818, 886.734 1011.205, 912.500 1003.371 C 934.176 996.781, 940.727 994.005, 959.513 983.448 C 968.761 978.252, 976.459 974, 976.618 974 C 977.382 974, 997.832 960.339, 1004.719 955.229 C 1008.998 952.053, 1014.300 948.229, 1016.500 946.731 C 1022.923 942.358, 1042.699 926.179, 1065.526 906.621 C 1067.374 905.038, 1069.530 903.990, 1070.318 904.292 C 1071.629 904.795, 1074.692 909.219, 1085.360 926.025 C 1089.859 933.112, 1092.003 933.513, 1093.221 927.495 C 1093.666 925.298, 1095.560 918.550, 1097.430 912.500 C 1099.300 906.450, 1101.137 899.255, 1101.512 896.510 C 1102.167 891.721, 1105.028 881.664, 1109.054 870 C 1110.099 866.975, 1113.011 857.113, 1115.525 848.085 C 1119.303 834.523, 1119.869 831.441, 1118.783 830.355 C 1117.697 829.269, 1115.212 829.297, 1104.484 830.518 C 1097.343 831.331, 1090.600 832.199, 1089.500 832.447 C 1088.400 832.695, 1077.600 834.044, 1065.500 835.443 C 1024.487 840.187, 1017.502 841.124, 1016.608 842.005 C 1016.089 842.516, 1020.174 847.226, 1026.358 853.247 C 1032.211 858.946, 1037 864.341, 1037 865.236 C 1037 867.040, 1027.606 877.307, 1023.477 880.015 C 1022.028 880.965, 1015.537 886.863, 1009.052 893.121 C 1002.567 899.380, 994.840 906.414, 991.881 908.753 C 988.921 911.092, 983.287 916.115, 979.361 919.915 C 975.435 923.715, 970.260 928.092, 967.861 929.641 C 965.462 931.191, 960.733 934.954, 957.351 938.004 C 953.969 941.054, 948.119 945.672, 944.351 948.267 C 931.962 956.797, 917.680 966, 916.832 966 C 913.596 966, 920.274 958.251, 937.723 941.758 C 943.650 936.155, 948.950 930.805, 949.500 929.869 C 950.050 928.932, 952.300 926.753, 954.500 925.026 C 956.700 923.299, 964.138 916.399, 971.029 909.693 C 977.920 902.987, 987.272 893.900, 991.812 889.500 C 1002.739 878.910, 1007 874.480, 1007 873.709 C 1007 872.218, 982.477 857.306, 964.955 848.144 C 956.526 843.735, 946.900 836.006, 945.416 832.453 C 943.082 826.867, 943.655 821.636, 947.418 814.163 C 950.157 808.724, 952.989 805.369, 961.668 797.279 C 982.938 777.453, 986.025 774.229, 985.372 772.527 C 985.030 771.636, 982.444 769.753, 979.625 768.343 C 976.806 766.933, 973.600 764.986, 972.500 764.017 C 971.400 763.047, 965.550 759.660, 959.500 756.490 C 953.450 753.319, 946.622 749.439, 944.326 747.867 C 942.030 746.294, 939.021 744.578, 937.639 744.053 C 936.258 743.528, 931.755 741.051, 927.634 738.549 C 919.482 733.601, 917.910 733.198, 915.951 735.559 M 980.022 789.750 C 974.901 797.313, 970.145 803.967, 969.454 804.538 C 966.588 806.906, 962 816.225, 962 819.678 C 962 827.410, 963.922 830.751, 973.432 839.549 C 985.840 851.028, 1005.302 866.932, 1006.235 866.355 C 1007.674 865.466, 1007 857.719, 1004.084 841.609 C 1002.480 832.749, 1000.863 822.800, 1000.490 819.500 C 999.522 810.931, 993.269 780.372, 991.998 777.997 C 991.411 776.899, 990.571 776, 990.132 776 C 989.694 776, 985.144 782.188, 980.022 789.750 M 838.223 808.557 C 833.854 811.616, 835.323 813.438, 848.250 820.998 C 854.987 824.938, 863.200 829.761, 866.500 831.715 C 888.419 844.693, 913.556 859.305, 919.500 862.523 C 923.350 864.608, 931.740 869.393, 938.144 873.157 C 944.549 876.921, 950.083 880, 950.442 880 C 951.628 880, 955.936 874.530, 955.957 873 C 955.967 872.175, 953.169 869.972, 949.738 868.104 C 946.307 866.236, 937.425 861.106, 930 856.705 C 922.575 852.304, 913.575 847.027, 910 844.980 C 895.151 836.475, 885.019 830.584, 877 825.793 C 872.325 822.999, 864.900 818.816, 860.500 816.497 C 856.100 814.179, 850.388 811.093, 847.808 809.641 C 842.357 806.573, 841.235 806.447, 838.223 808.557 M 528.425 813.334 C 528.144 814.068, 528.045 856.930, 528.207 908.584 C 528.540 1015.166, 527.644 1004.766, 537.357 1014.829 C 543.864 1021.572, 547.824 1023.608, 556.170 1024.502 C 568.681 1025.841, 573.638 1024.605, 586.229 1017.004 C 592.428 1013.262, 604.475 1006.034, 613 1000.942 C 621.525 995.851, 634.376 987.982, 641.557 983.457 C 648.739 978.932, 656.954 974.044, 659.813 972.595 C 662.673 971.146, 668.018 967.944, 671.692 965.480 C 675.366 963.016, 679.253 961, 680.330 961 C 682.343 961, 695.147 968.059, 724 985.076 C 733.075 990.429, 743.200 996.115, 746.500 997.713 C 749.800 999.310, 755.425 1002.444, 759 1004.677 C 762.575 1006.910, 771.125 1011.779, 778 1015.497 C 799.349 1027.042, 800.389 1027.627, 813.106 1035.237 C 819.923 1039.316, 830 1045.147, 835.500 1048.195 C 841 1051.244, 847.750 1055.108, 850.500 1056.782 C 855.582 1059.877, 878.225 1072.905, 883.262 1075.632 C 884.781 1076.454, 886.867 1076.860, 887.898 1076.532 C 888.929 1076.205, 893.086 1072.673, 897.136 1068.683 C 901.186 1064.693, 908.775 1057.415, 914 1052.510 C 919.225 1047.605, 935.200 1032.279, 949.500 1018.451 C 963.800 1004.624, 977.075 991.920, 979 990.222 C 981.850 987.707, 982.262 986.893, 981.221 985.838 C 979.879 984.479, 974.850 986.795, 955.500 997.684 C 951.100 1000.160, 943.327 1003.513, 938.226 1005.136 C 927.484 1008.553, 924.277 1011.020, 899.750 1034.737 C 889.149 1044.988, 884.329 1049, 882.612 1049 C 881.299 1049, 878.036 1047.503, 875.362 1045.674 C 870.104 1042.076, 860.331 1036.351, 850 1030.817 C 841.551 1026.291, 825.972 1017.247, 819 1012.822 C 815.975 1010.902, 811.025 1008.041, 808 1006.465 C 800.931 1002.781, 778.266 989.830, 770.500 985.037 C 767.200 983, 761.812 980.112, 758.527 978.620 C 755.242 977.128, 751.867 975.298, 751.027 974.555 C 750.187 973.811, 747.025 971.861, 744 970.221 C 740.975 968.581, 735.575 965.462, 732 963.290 C 728.425 961.118, 723.025 958.049, 720 956.469 C 711.830 952.203, 700.708 945.810, 699 944.399 C 698.175 943.717, 694.350 941.478, 690.500 939.424 C 686.650 937.369, 682.375 934.926, 681 933.995 C 679.625 933.064, 674.450 930.169, 669.500 927.562 C 664.550 924.956, 659.825 922.254, 659 921.560 C 658.175 920.865, 655.549 919.159, 653.165 917.769 L 648.831 915.242 640.165 920.708 C 635.399 923.714, 629.475 927.242, 627 928.548 C 624.525 929.854, 618.675 933.420, 614 936.473 C 609.325 939.525, 603.519 943.255, 601.099 944.761 C 598.678 946.268, 594.463 948.967, 591.733 950.760 C 589.003 952.553, 585.701 954.288, 584.394 954.616 L 582.018 955.212 581.759 903.856 L 581.500 852.500 570.461 847 C 564.390 843.975, 556.856 839.772, 553.720 837.659 C 547.613 833.545, 536.251 821.894, 532.354 815.750 C 529.761 811.663, 529.199 811.317, 528.425 813.334 M 809.462 826.062 C 809.101 826.646, 807.724 827.534, 806.403 828.037 C 801.800 829.787, 803.592 832.243, 813.672 838 C 818.968 841.025, 828.521 846.519, 834.900 850.208 C 841.280 853.897, 848.525 857.995, 851 859.314 C 853.475 860.633, 860.675 864.757, 867 868.478 C 873.325 872.199, 887.050 880.064, 897.500 885.954 C 907.950 891.845, 918.726 898.090, 921.446 899.832 C 927.355 903.617, 928.015 903.677, 930.826 900.686 C 934.960 896.285, 933.885 895.115, 917 885.641 C 913.425 883.635, 908.431 880.758, 905.903 879.247 C 903.374 877.736, 896.174 873.626, 889.903 870.113 C 883.631 866.601, 876.822 862.663, 874.771 861.363 C 872.721 860.064, 870.765 859, 870.426 859 C 870.087 859, 866.140 856.567, 861.655 853.594 C 857.170 850.621, 850.575 846.731, 847 844.950 C 840.305 841.614, 835.737 839.026, 820.876 830.151 C 811.886 824.781, 810.549 824.302, 809.462 826.062 M 768.656 841.565 C 767.091 842.941, 766.037 844.655, 766.314 845.375 C 766.956 847.050, 775.810 852.928, 785.187 857.905 C 792.851 861.974, 814.948 874.553, 823.500 879.717 C 826.250 881.377, 833.450 885.572, 839.500 889.039 C 845.550 892.506, 855.225 898.128, 861 901.533 C 866.775 904.937, 874.650 909.438, 878.500 911.536 C 882.350 913.633, 889.148 917.520, 893.606 920.175 C 898.065 922.829, 902.617 925, 903.721 925 C 906.147 925, 911 921.368, 911 919.552 C 911 918.835, 905.971 915.433, 899.824 911.991 C 893.678 908.549, 885.690 903.840, 882.074 901.527 C 878.458 899.214, 871 894.931, 865.500 892.010 C 860 889.089, 851.646 884.340, 846.935 881.457 C 842.224 878.574, 835.699 874.801, 832.435 873.073 C 829.171 871.344, 822 867.249, 816.500 863.972 C 811 860.695, 804.475 856.972, 802 855.699 C 799.525 854.425, 795.596 852.172, 793.270 850.692 C 790.943 849.211, 788.729 848, 788.349 848 C 787.968 848, 786.947 847.383, 786.079 846.628 C 784.082 844.893, 773.377 838.989, 772.304 839.032 C 771.862 839.049, 770.220 840.189, 768.656 841.565 M 743.752 862.841 C 742.240 863.754, 741.003 865.060, 741.002 865.744 C 740.999 867.822, 752.860 875.613, 773 886.760 C 781.570 891.503, 789.909 896.349, 797 900.708 C 800.575 902.905, 809.800 908.198, 817.500 912.469 C 825.200 916.740, 833.525 921.463, 836 922.964 C 841.211 926.125, 855.513 934.392, 868.629 941.826 C 873.650 944.672, 878.600 946.990, 879.629 946.978 C 880.658 946.966, 882.625 946.084, 884 945.020 C 885.901 943.548, 886.260 942.714, 885.500 941.541 C 884.526 940.037, 867.070 929.465, 830.500 908.230 C 811.290 897.076, 800.693 890.863, 784.161 881.064 C 778.475 877.694, 770.658 873.263, 766.790 871.218 C 762.922 869.173, 756.999 866.041, 753.629 864.258 C 746.645 860.563, 747.358 860.665, 743.752 862.841 M 717.750 886.470 C 716.788 887.793, 716 889.348, 716 889.926 C 716 890.503, 719.038 892.573, 722.750 894.527 C 726.462 896.481, 732.425 899.865, 736 902.047 C 739.575 904.229, 744.691 907.249, 747.369 908.757 C 750.047 910.266, 759.999 916.112, 769.485 921.750 C 778.971 927.388, 787.805 931.986, 789.116 931.968 C 791.424 931.938, 797.008 927.917, 796.992 926.298 C 796.987 925.859, 795.300 924.553, 793.242 923.395 C 783.684 918.019, 762.631 905.763, 754.500 900.843 C 740.156 892.163, 724.266 883.997, 721.785 884.031 C 720.528 884.049, 718.712 885.146, 717.750 886.470 M 1054.562 928.309 C 1053.497 928.964, 1051.485 930.807, 1050.093 932.405 C 1048.700 934.003, 1044.275 937.741, 1040.258 940.712 C 1036.240 943.682, 1031.775 948, 1030.335 950.306 C 1023.027 962.009, 1019.391 966.117, 998.785 985.947 C 986.528 997.743, 965.250 1018.244, 951.500 1031.505 C 937.750 1044.766, 923.350 1058.482, 919.500 1061.986 C 915.650 1065.489, 907.782 1073.018, 902.016 1078.717 C 896.250 1084.416, 890.548 1089.326, 889.343 1089.629 C 887.884 1089.995, 884.877 1088.857, 880.327 1086.218 C 876.572 1084.040, 870.350 1080.560, 866.500 1078.486 C 862.650 1076.411, 856.575 1072.838, 853 1070.545 C 845.222 1065.557, 834.962 1059.638, 813.543 1047.781 C 804.767 1042.923, 797.342 1038.612, 797.043 1038.200 C 796.168 1036.994, 781.847 1029, 780.562 1029 C 779.917 1029, 777.839 1027.855, 775.944 1026.455 C 774.050 1025.055, 768.225 1021.622, 763 1018.826 C 757.775 1016.030, 752.825 1013.168, 752 1012.465 C 751.175 1011.763, 745.550 1008.624, 739.500 1005.491 C 733.450 1002.358, 726.129 998.236, 723.231 996.331 C 720.333 994.427, 716.478 992.627, 714.663 992.333 C 711.858 991.878, 711.089 992.215, 709.538 994.583 C 708.534 996.115, 705.951 999.147, 703.799 1001.321 L 699.886 1005.274 704.566 1009.510 C 709.249 1013.748, 717.786 1019.233, 730 1025.849 C 739.258 1030.864, 753.724 1039.288, 759.024 1042.751 C 761.513 1044.376, 765.669 1046.645, 768.262 1047.792 C 770.854 1048.938, 775.343 1051.425, 778.237 1053.318 C 783.705 1056.894, 802.007 1067.354, 815 1074.327 C 819.125 1076.541, 824.525 1079.602, 827 1081.130 C 834.746 1085.910, 854.073 1097.076, 864.500 1102.796 C 870 1105.813, 877.825 1110.468, 881.889 1113.141 C 890.751 1118.970, 893.824 1119.309, 897.742 1114.891 C 899.259 1113.181, 904.099 1108.344, 908.498 1104.141 C 912.897 1099.939, 918.297 1094.674, 920.498 1092.442 C 926.764 1086.089, 987.315 1027.590, 1021.521 994.841 C 1038.559 978.529, 1053.601 963.691, 1054.946 961.867 C 1057.124 958.914, 1057.516 956.904, 1058.526 943.525 C 1059.149 935.261, 1059.484 928.163, 1059.271 927.750 C 1058.722 926.691, 1056.828 926.916, 1054.562 928.309"
        stroke="none" fill="#006064" fill-rule="evenodd"></path>
</svg>