<svg xmlns="http://www.w3.org/2000/svg" viewBox="487 390 1760 740" version="1.1">
    <path
        d="M 547.007 393.703 C 539.547 397.541, 534.482 402.435, 530.663 409.500 C 528.503 413.495, 528.500 413.608, 528.216 495.416 C 528.025 550.737, 528.268 577.668, 528.964 578.364 C 530.339 579.739, 536.497 573.821, 539.228 568.500 C 540.358 566.300, 543.018 561.937, 545.141 558.805 C 547.263 555.673, 549 552.735, 549 552.277 C 549 550.319, 570.745 533.301, 579.519 528.391 C 581.424 527.325, 581.510 525.994, 581.763 493.641 C 581.924 473.096, 582.399 460, 582.983 460 C 583.508 460, 587.665 462.187, 592.219 464.859 C 596.774 467.532, 602.525 470.850, 605 472.234 C 618.390 479.719, 625.337 483.833, 633 488.816 C 649.548 499.575, 650.215 499.880, 655.110 498.935 C 661.763 497.650, 685.354 497.835, 690.504 499.212 C 694.151 500.188, 695.668 500.165, 698.268 499.098 C 708.910 494.728, 721.465 490.939, 727.521 490.271 C 733.489 489.612, 734.500 489.220, 734.500 487.565 C 734.500 486.249, 732.581 484.531, 728.500 482.193 C 714.042 473.910, 700.159 465.494, 696 462.491 C 693.525 460.705, 687.801 457.276, 683.280 454.872 C 678.758 452.467, 668.183 446.391, 659.780 441.369 C 651.376 436.347, 641.350 430.530, 637.500 428.441 C 633.650 426.353, 628.700 423.443, 626.500 421.976 C 621.155 418.409, 599.682 405.557, 588.500 399.231 C 574.240 391.164, 570.901 390, 562.020 390 C 554.970 390, 553.501 390.362, 547.007 393.703 M 1535.075 569.032 C 1528.149 570.478, 1521.199 572.962, 1512.260 577.189 C 1505.275 580.492, 1503.084 582.173, 1497.871 588.230 C 1486.811 601.080, 1482.749 615.009, 1486.477 627.297 C 1488.351 633.473, 1493.576 643.269, 1496.343 645.795 C 1504.145 652.918, 1524.742 661.516, 1546 666.526 C 1564.340 670.848, 1570.168 672.968, 1573.860 676.660 C 1576.957 679.757, 1577.209 680.451, 1576.743 684.589 C 1575.697 693.865, 1569.236 696.948, 1549.183 697.740 C 1539.952 698.104, 1535.518 697.918, 1534.733 697.133 C 1534.110 696.510, 1532.644 696, 1531.475 696 C 1528.426 696, 1515.492 691.455, 1511.171 688.865 C 1509.152 687.655, 1505.557 685.110, 1503.182 683.210 L 1498.865 679.755 1496.034 682.467 C 1494.477 683.959, 1492.416 687.277, 1491.454 689.840 C 1490.492 692.403, 1488.012 697.896, 1485.944 702.046 C 1482.381 709.195, 1482.270 709.699, 1483.842 711.635 C 1491.316 720.843, 1526.170 731.084, 1549.628 730.965 C 1561.893 730.903, 1584.167 725.680, 1592.765 720.851 C 1600.222 716.663, 1606.705 710.088, 1610.641 702.722 C 1617.159 690.523, 1618.372 682.687, 1615.467 671.535 C 1609.926 650.262, 1594.367 640.217, 1553.500 631.525 C 1542.501 629.186, 1534.517 626.808, 1532.921 625.397 C 1532.053 624.629, 1530.826 624, 1530.194 624 C 1527.648 624, 1525.716 619.092, 1526.373 614.297 C 1527.350 607.168, 1531.222 603.966, 1541.977 601.393 C 1555.496 598.158, 1571.605 600.895, 1591.229 609.760 C 1596.741 612.249, 1597.033 612.280, 1598.922 610.570 C 1600.003 609.593, 1601.179 607.463, 1601.536 605.838 C 1601.893 604.213, 1603.943 599.130, 1606.092 594.544 C 1608.242 589.958, 1610 585.515, 1610 584.671 C 1610 582.361, 1605.191 579.389, 1595.924 575.972 C 1578.868 569.683, 1573.755 568.713, 1556 568.400 C 1546.925 568.239, 1537.509 568.524, 1535.075 569.032 M 1181.363 571.500 C 1181.154 572.050, 1181.099 607.375, 1181.242 650 L 1181.500 727.500 1199.773 727.773 C 1211.446 727.947, 1218.774 727.656, 1220.061 726.967 C 1222.014 725.922, 1222.055 725.260, 1221.417 704.945 L 1220.759 684 1235.705 684 C 1249.941 684, 1250.747 684.107, 1252.668 686.250 C 1253.777 687.487, 1259.928 696.375, 1266.337 706 C 1272.747 715.625, 1278.852 724.513, 1279.906 725.750 C 1281.777 727.949, 1282.291 728, 1302.442 728 C 1320.174 728, 1323.146 727.782, 1323.660 726.445 C 1324.352 724.640, 1319.349 717.043, 1310.278 706.125 C 1306.856 702.006, 1302.428 695.537, 1300.438 691.750 C 1298.448 687.963, 1295.510 683.373, 1293.910 681.550 C 1292.309 679.727, 1291.016 677.620, 1291.036 676.868 C 1291.055 676.116, 1294 673.700, 1297.580 671.500 C 1307.882 665.169, 1314.096 656.659, 1318.915 642.282 C 1324.144 626.684, 1319.732 606.163, 1308.189 592.396 C 1301.286 584.163, 1294.470 579.702, 1281.980 575.242 L 1271.500 571.500 1243.500 571.245 C 1228.100 571.105, 1207.905 570.880, 1198.621 570.745 C 1188.059 570.592, 1181.600 570.874, 1181.363 571.500 M 1346.353 571.500 C 1345.248 572.322, 1345.003 586.172, 1344.980 649.306 C 1344.964 691.549, 1345.214 726.537, 1345.535 727.056 C 1345.890 727.631, 1370.063 728, 1407.437 728 C 1461.357 728, 1468.909 727.815, 1470.030 726.464 C 1470.995 725.301, 1471.159 721.535, 1470.707 710.957 C 1470.378 703.273, 1469.792 696.472, 1469.404 695.845 C 1468.887 695.009, 1457.437 694.810, 1426.599 695.102 L 1384.500 695.500 1384.225 679.763 L 1383.949 664.025 1419.725 663.763 L 1455.500 663.500 1455.500 648 L 1455.500 632.500 1419.750 632.237 L 1384 631.975 1384 617.498 L 1384 603.022 1425.250 602.761 L 1466.500 602.500 1466.776 587.894 C 1466.994 576.371, 1466.758 573.044, 1465.658 572.131 C 1463.826 570.611, 1348.370 570, 1346.353 571.500 M 2026.945 571.220 C 2025.022 571.928, 2024.992 573.293, 2025.244 649.720 L 2025.500 727.500 2045 727.500 L 2064.500 727.500 2064.500 649.121 L 2064.500 570.742 2046.701 570.621 C 2036.912 570.554, 2028.022 570.824, 2026.945 571.220 M 1636.688 571.646 C 1635.514 572.819, 1635.891 667.412, 1637.100 675.204 C 1638.658 685.249, 1641.989 693.373, 1648.314 702.555 C 1656.828 714.915, 1663.653 719.973, 1679.901 725.964 C 1705.266 735.316, 1739.500 730.565, 1758.808 715.013 C 1764.266 710.617, 1772.834 698.966, 1775.998 691.639 C 1779.420 683.713, 1780.154 669.853, 1779.819 619.500 L 1779.500 571.500 1760.500 571.500 L 1741.500 571.500 1741 622.500 L 1740.500 673.500 1737.638 679.329 C 1731.974 690.864, 1723.353 696, 1709.657 696 C 1698.519 696, 1691.200 693.143, 1685.775 686.679 C 1680.363 680.230, 1678.535 677.323, 1677.486 673.500 C 1677.034 671.850, 1676.402 648.225, 1676.082 621 L 1675.500 571.500 1656.438 571.229 C 1645.953 571.080, 1637.066 571.268, 1636.688 571.646 M 1811.689 571.644 C 1811.310 572.023, 1811 606.893, 1811 649.131 C 1811 724.036, 1811.048 725.955, 1812.934 726.965 C 1815.761 728.478, 1847.267 728.333, 1848.800 726.800 C 1849.693 725.907, 1850 715.517, 1850 686.227 C 1850 640.625, 1849.746 641.488, 1858.751 656.500 C 1861.720 661.450, 1866.541 669.100, 1869.463 673.500 C 1872.385 677.900, 1878.024 687.350, 1881.992 694.500 C 1891.409 711.465, 1891.811 711.858, 1900.206 712.326 C 1911.155 712.936, 1914.085 712.109, 1915.525 707.999 C 1916.200 706.075, 1918.992 700.900, 1921.730 696.500 C 1924.468 692.100, 1927.736 686.475, 1928.993 684 C 1930.249 681.525, 1933.331 676.350, 1935.842 672.500 C 1938.352 668.650, 1941.552 663.447, 1942.953 660.938 C 1949.290 649.586, 1953.598 643.037, 1954.739 643.019 C 1955.701 643.004, 1956.037 652.442, 1956.239 685.250 L 1956.500 727.500 1975 727.500 L 1993.500 727.500 1993.500 649.500 L 1993.500 571.500 1976.341 571.227 L 1959.182 570.954 1957.102 573.727 C 1955.958 575.252, 1954.667 576.950, 1954.234 577.500 C 1953.544 578.376, 1947.543 588.200, 1937.743 604.500 C 1936.089 607.250, 1933.155 612.425, 1931.223 616 C 1929.291 619.575, 1925.374 626.100, 1922.518 630.500 C 1919.662 634.900, 1914.477 643.563, 1910.996 649.750 C 1904.626 661.074, 1902.658 662.831, 1900.356 659.250 C 1889.703 642.681, 1877.987 623.553, 1877.942 622.656 C 1877.910 622.020, 1875.239 617.450, 1872.006 612.500 C 1866.768 604.481, 1859.507 592.409, 1850.491 576.732 L 1847.482 571.500 1829.930 571.228 C 1820.276 571.078, 1812.068 571.265, 1811.689 571.644 M 2095.688 571.646 C 2095.309 572.024, 2095.001 593.746, 2095.003 619.917 C 2095.007 671.153, 2095.628 679.351, 2100.387 691 C 2103.547 698.735, 2111.252 710.204, 2116.045 714.306 C 2121.574 719.039, 2132.686 724.430, 2143.500 727.627 C 2151.384 729.957, 2154.298 730.292, 2167 730.328 C 2180.490 730.367, 2182.266 730.144, 2192.500 727.128 C 2212.681 721.179, 2221.965 714.230, 2229.701 699.284 C 2239.836 679.701, 2240.199 676.805, 2239.812 618.500 L 2239.500 571.500 2220 571.500 L 2200.500 571.500 2199.952 621.500 C 2199.411 670.968, 2199.014 676.704, 2195.880 680.381 C 2195.356 680.997, 2193.550 683.419, 2191.866 685.765 C 2190.182 688.111, 2186.711 691.261, 2184.152 692.765 C 2179.812 695.317, 2178.729 695.500, 2168 695.500 C 2157.001 695.500, 2156.260 695.365, 2151 692.410 C 2144.155 688.565, 2136.685 678.421, 2135.036 670.731 C 2134.329 667.436, 2133.976 649.093, 2134.031 618.574 L 2134.116 571.500 2115.245 571.229 C 2104.867 571.080, 2096.066 571.268, 2095.688 571.646 M 918.361 589.501 C 917.990 590.469, 919.569 592.605, 922.814 595.523 C 925.580 598.010, 928.869 602.172, 930.123 604.772 C 931.377 607.372, 934.087 612.478, 936.144 616.118 C 942.575 627.494, 948 647.374, 948 659.562 L 948 665.993 953.750 669.542 C 956.913 671.494, 964.225 676, 970 679.555 C 975.775 683.110, 983.120 687.702, 986.323 689.759 C 989.525 691.817, 994.989 695.075, 998.464 697 C 1018.688 708.202, 1021.042 710.497, 1014.915 713.035 C 1013.218 713.738, 1008.831 716.508, 1005.165 719.190 C 1001.499 721.873, 996.250 725.189, 993.500 726.559 C 984.964 730.812, 964.655 743.435, 964.234 744.749 C 964.014 745.436, 965.285 746.786, 967.057 747.749 C 968.830 748.712, 973.480 751.567, 977.390 754.094 C 981.301 756.621, 987.718 760.583, 991.650 762.899 C 997.829 766.537, 999.086 767.772, 1000.900 771.990 C 1002.055 774.674, 1003 777.295, 1003 777.813 C 1003 778.331, 1003.618 779.268, 1004.372 779.894 C 1005.438 780.778, 1007.618 780.054, 1014.122 776.656 C 1024.700 771.131, 1044.555 759.521, 1048.500 756.555 C 1050.150 755.315, 1054.642 752.607, 1058.483 750.538 C 1074.280 742.027, 1080.678 736.396, 1085.799 726.500 C 1089.203 719.923, 1089.424 718.926, 1089.461 710 C 1089.497 701.278, 1089.229 699.927, 1086.187 693.500 C 1084.365 689.650, 1081.890 685.434, 1080.687 684.132 C 1078.391 681.646, 1068.965 675.279, 1060.500 670.497 C 1057.750 668.943, 1051.225 664.887, 1046 661.484 C 1040.775 658.081, 1034.378 654.362, 1031.784 653.220 C 1029.190 652.077, 1026.490 650.648, 1025.784 650.043 C 1024.306 648.777, 1006.198 638.069, 988 627.700 C 981.125 623.783, 974.895 619.987, 974.155 619.265 C 973.416 618.544, 971.391 617.226, 969.655 616.336 C 967.920 615.447, 964.700 613.506, 962.500 612.023 C 960.300 610.541, 953.775 606.823, 948 603.762 C 942.225 600.701, 935.286 597.022, 932.579 595.587 C 929.873 594.151, 926.190 591.857, 924.396 590.488 C 920.642 587.626, 919.173 587.385, 918.361 589.501 M 1221 626.753 L 1221 650.715 1227.147 651.358 C 1236.458 652.331, 1251.602 652.128, 1258.433 650.938 C 1272.355 648.514, 1280.601 639.762, 1280.323 627.704 C 1280.153 620.298, 1275.977 611.478, 1271.118 608.260 C 1265.357 604.446, 1261.149 603.754, 1240.750 603.265 L 1221 602.791 1221 626.753 M 915.951 735.559 C 913.616 738.372, 903.171 745.879, 897.783 748.617 C 886.287 754.457, 870.792 758.024, 851.588 759.250 C 847.754 759.495, 847.631 759.625, 845.438 765.736 C 843.445 771.288, 840.946 775.636, 832.617 788.040 C 826.159 797.657, 809.751 808.063, 793.500 812.847 C 778.270 817.331, 758.397 817.591, 746.247 813.465 C 739.144 811.054, 737.609 811.473, 732.832 817.126 C 730.449 819.945, 726.724 824.108, 724.553 826.376 C 708.049 843.621, 685.141 879.467, 679.423 896.992 C 676.337 906.454, 676.216 906.629, 671.998 907.716 C 669.538 908.350, 668.406 909.260, 668.184 910.780 C 667.839 913.147, 671.447 915.768, 688.476 925.517 C 699.224 931.671, 726.185 947.277, 741.393 956.147 C 747.384 959.641, 754.584 963.984, 757.393 965.798 C 760.202 967.612, 766.100 970.881, 770.500 973.063 C 774.900 975.245, 784.575 980.653, 792 985.083 C 813.814 998.096, 830.739 1005.644, 844.500 1008.497 C 865.341 1012.818, 886.734 1011.205, 912.500 1003.371 C 934.176 996.781, 940.727 994.005, 959.513 983.448 C 968.761 978.252, 976.459 974, 976.618 974 C 977.382 974, 997.832 960.339, 1004.719 955.229 C 1008.998 952.053, 1014.300 948.229, 1016.500 946.731 C 1022.923 942.358, 1042.699 926.179, 1065.526 906.621 C 1067.374 905.038, 1069.530 903.990, 1070.318 904.292 C 1071.629 904.795, 1074.692 909.219, 1085.360 926.025 C 1089.859 933.112, 1092.003 933.513, 1093.221 927.495 C 1093.666 925.298, 1095.560 918.550, 1097.430 912.500 C 1099.300 906.450, 1101.137 899.255, 1101.512 896.510 C 1102.167 891.721, 1105.028 881.664, 1109.054 870 C 1110.099 866.975, 1113.011 857.113, 1115.525 848.085 C 1119.303 834.523, 1119.869 831.441, 1118.783 830.355 C 1117.697 829.269, 1115.212 829.297, 1104.484 830.518 C 1097.343 831.331, 1090.600 832.199, 1089.500 832.447 C 1088.400 832.695, 1077.600 834.044, 1065.500 835.443 C 1024.487 840.187, 1017.502 841.124, 1016.608 842.005 C 1016.089 842.516, 1020.174 847.226, 1026.358 853.247 C 1032.211 858.946, 1037 864.341, 1037 865.236 C 1037 867.040, 1027.606 877.307, 1023.477 880.015 C 1022.028 880.965, 1015.537 886.863, 1009.052 893.121 C 1002.567 899.380, 994.840 906.414, 991.881 908.753 C 988.921 911.092, 983.287 916.115, 979.361 919.915 C 975.435 923.715, 970.260 928.092, 967.861 929.641 C 965.462 931.191, 960.733 934.954, 957.351 938.004 C 953.969 941.054, 948.119 945.672, 944.351 948.267 C 931.962 956.797, 917.680 966, 916.832 966 C 913.596 966, 920.274 958.251, 937.723 941.758 C 943.650 936.155, 948.950 930.805, 949.500 929.869 C 950.050 928.932, 952.300 926.753, 954.500 925.026 C 956.700 923.299, 964.138 916.399, 971.029 909.693 C 977.920 902.987, 987.272 893.900, 991.812 889.500 C 1002.739 878.910, 1007 874.480, 1007 873.709 C 1007 872.218, 982.477 857.306, 964.955 848.144 C 956.526 843.735, 946.900 836.006, 945.416 832.453 C 943.082 826.867, 943.655 821.636, 947.418 814.163 C 950.157 808.724, 952.989 805.369, 961.668 797.279 C 982.938 777.453, 986.025 774.229, 985.372 772.527 C 985.030 771.636, 982.444 769.753, 979.625 768.343 C 976.806 766.933, 973.600 764.986, 972.500 764.017 C 971.400 763.047, 965.550 759.660, 959.500 756.490 C 953.450 753.319, 946.622 749.439, 944.326 747.867 C 942.030 746.294, 939.021 744.578, 937.639 744.053 C 936.258 743.528, 931.755 741.051, 927.634 738.549 C 919.482 733.601, 917.910 733.198, 915.951 735.559 M 980.022 789.750 C 974.901 797.313, 970.145 803.967, 969.454 804.538 C 966.588 806.906, 962 816.225, 962 819.678 C 962 827.410, 963.922 830.751, 973.432 839.549 C 985.840 851.028, 1005.302 866.932, 1006.235 866.355 C 1007.674 865.466, 1007 857.719, 1004.084 841.609 C 1002.480 832.749, 1000.863 822.800, 1000.490 819.500 C 999.522 810.931, 993.269 780.372, 991.998 777.997 C 991.411 776.899, 990.571 776, 990.132 776 C 989.694 776, 985.144 782.188, 980.022 789.750 M 838.223 808.557 C 833.853 811.617, 835.322 813.439, 848.250 820.987 C 854.987 824.920, 866.575 831.755, 874 836.175 C 881.425 840.594, 896.050 849.087, 906.500 855.047 C 916.950 861.008, 930.978 869.061, 937.673 872.942 C 944.367 876.824, 950.126 880, 950.470 880 C 951.634 880, 955.937 874.510, 955.957 873 C 955.967 872.175, 953.169 869.972, 949.738 868.104 C 946.307 866.236, 937.650 861.234, 930.500 856.990 C 923.350 852.745, 914.012 847.298, 909.748 844.886 C 905.484 842.474, 898.284 838.310, 893.748 835.634 C 869.211 821.159, 861.669 816.823, 859.689 816.054 C 858.485 815.587, 854.357 813.358, 850.516 811.102 C 842.785 806.561, 841.462 806.288, 838.223 808.557 M 528.425 813.334 C 528.144 814.068, 528.045 856.930, 528.207 908.584 C 528.540 1015.166, 527.644 1004.766, 537.357 1014.829 C 543.864 1021.572, 547.824 1023.608, 556.170 1024.502 C 568.681 1025.841, 573.638 1024.605, 586.229 1017.004 C 592.428 1013.262, 604.475 1006.034, 613 1000.942 C 621.525 995.851, 634.376 987.982, 641.557 983.457 C 648.739 978.932, 656.954 974.044, 659.813 972.595 C 662.673 971.146, 668.018 967.944, 671.692 965.480 C 675.366 963.016, 679.253 961, 680.330 961 C 682.343 961, 695.147 968.059, 724 985.076 C 733.075 990.429, 743.200 996.115, 746.500 997.713 C 749.800 999.310, 755.425 1002.444, 759 1004.677 C 762.575 1006.910, 771.125 1011.779, 778 1015.497 C 799.349 1027.042, 800.389 1027.627, 813.106 1035.237 C 819.923 1039.316, 830 1045.147, 835.500 1048.195 C 841 1051.244, 847.750 1055.108, 850.500 1056.782 C 855.582 1059.877, 878.225 1072.905, 883.262 1075.632 C 884.781 1076.454, 886.867 1076.860, 887.898 1076.532 C 888.929 1076.205, 893.086 1072.673, 897.136 1068.683 C 901.186 1064.693, 908.775 1057.415, 914 1052.510 C 919.225 1047.605, 935.200 1032.279, 949.500 1018.451 C 963.800 1004.624, 977.075 991.920, 979 990.222 C 981.850 987.707, 982.262 986.893, 981.221 985.838 C 979.879 984.479, 974.850 986.795, 955.500 997.684 C 951.100 1000.160, 943.327 1003.513, 938.226 1005.136 C 927.484 1008.553, 924.277 1011.020, 899.750 1034.737 C 889.149 1044.988, 884.329 1049, 882.612 1049 C 881.299 1049, 878.036 1047.503, 875.362 1045.674 C 870.104 1042.076, 860.331 1036.351, 850 1030.817 C 841.551 1026.291, 825.972 1017.247, 819 1012.822 C 815.975 1010.902, 811.025 1008.041, 808 1006.465 C 800.931 1002.781, 778.266 989.830, 770.500 985.037 C 767.200 983, 761.812 980.112, 758.527 978.620 C 755.242 977.128, 751.867 975.298, 751.027 974.555 C 750.187 973.811, 747.025 971.861, 744 970.221 C 740.975 968.581, 735.575 965.462, 732 963.290 C 728.425 961.118, 723.025 958.049, 720 956.469 C 711.830 952.203, 700.708 945.810, 699 944.399 C 698.175 943.717, 694.350 941.478, 690.500 939.424 C 686.650 937.369, 682.375 934.926, 681 933.995 C 679.625 933.064, 674.450 930.169, 669.500 927.562 C 664.550 924.956, 659.825 922.254, 659 921.560 C 658.175 920.865, 655.549 919.159, 653.165 917.769 L 648.831 915.242 640.165 920.708 C 635.399 923.714, 629.475 927.242, 627 928.548 C 624.525 929.854, 618.675 933.420, 614 936.473 C 609.325 939.525, 603.519 943.255, 601.099 944.761 C 598.678 946.268, 594.463 948.967, 591.733 950.760 C 589.003 952.553, 585.701 954.288, 584.394 954.616 L 582.018 955.212 581.759 903.856 L 581.500 852.500 570.461 847 C 564.390 843.975, 556.856 839.772, 553.720 837.659 C 547.613 833.545, 536.251 821.894, 532.354 815.750 C 529.761 811.663, 529.199 811.317, 528.425 813.334 M 809.462 826.062 C 809.101 826.646, 807.724 827.534, 806.403 828.037 C 801.800 829.787, 803.592 832.243, 813.672 838 C 818.968 841.025, 828.398 846.425, 834.628 850 C 840.857 853.575, 851.927 859.915, 859.227 864.089 C 866.527 868.262, 883.300 877.896, 896.500 885.497 C 909.700 893.098, 922.157 900.252, 924.183 901.396 L 927.866 903.475 930.433 901.063 C 934.260 897.468, 933.687 895.533, 927.750 891.992 C 920.484 887.657, 911.264 882.251, 906.500 879.530 C 904.300 878.274, 895.367 873.140, 886.650 868.123 C 877.932 863.105, 870.429 859, 869.976 859 C 869.524 859, 867.881 857.944, 866.327 856.654 C 863.360 854.192, 847.338 844.639, 840.500 841.256 C 835.328 838.697, 823.895 832.228, 817.389 828.180 C 811.911 824.771, 810.494 824.392, 809.462 826.062 M 768.750 841.484 C 767.237 842.815, 766 844.322, 766 844.833 C 766 846.722, 776.358 853.399, 793.500 862.559 C 798.450 865.204, 807.675 870.478, 814 874.278 C 820.325 878.078, 828.200 882.664, 831.500 884.468 C 834.800 886.273, 842.675 890.775, 849 894.473 C 855.325 898.170, 865.675 904.140, 872 907.738 C 878.325 911.336, 887.609 916.692, 892.630 919.640 C 897.652 922.588, 902.653 925, 903.745 925 C 906.200 925, 911 921.345, 911 919.476 C 911 918.718, 907.962 916.428, 904.250 914.387 C 900.538 912.346, 892.386 907.580, 886.136 903.796 C 879.886 900.012, 869.986 894.383, 864.136 891.287 C 858.286 888.192, 852.375 884.895, 851 883.960 C 847.152 881.346, 813.006 861.675, 802.414 855.971 C 799.617 854.465, 795.464 852.055, 793.184 850.616 C 790.905 849.177, 788.729 848, 788.349 848 C 787.968 848, 786.947 847.383, 786.079 846.628 C 784.082 844.893, 773.377 838.989, 772.304 839.032 C 771.862 839.049, 770.263 840.152, 768.750 841.484 M 743.752 862.841 C 738.275 866.147, 739.650 867.406, 764.860 882.174 C 772.208 886.478, 778.394 890, 778.607 890 C 778.820 890, 786.903 894.725, 796.570 900.500 C 806.237 906.275, 814.342 911, 814.580 911 C 814.975 911, 828.263 918.508, 842 926.492 C 880.644 948.953, 879.137 948.267, 883.535 945.385 C 885.793 943.906, 887.029 940, 885.239 940 C 884.330 940, 862.727 927.402, 858.477 924.393 C 856.840 923.234, 853.475 921.168, 851 919.802 C 844.976 916.477, 807.794 895.073, 801.500 891.306 C 788.471 883.509, 771.923 873.929, 766.500 871.043 C 763.200 869.287, 757.800 866.322, 754.500 864.453 C 747.699 860.603, 747.509 860.574, 743.752 862.841 M 717.615 886.465 C 716.727 887.820, 716 889.389, 716 889.950 C 716 890.512, 718.785 892.377, 722.189 894.095 C 725.593 895.814, 729.530 898.002, 730.939 898.958 C 732.348 899.915, 737.775 903.163, 743 906.177 C 748.225 909.191, 760.193 916.234, 769.595 921.828 C 778.997 927.423, 787.772 931.986, 789.095 931.968 C 791.428 931.938, 797.025 927.910, 796.975 926.298 C 796.962 925.859, 793.072 923.250, 788.331 920.500 C 783.589 917.750, 775.388 912.951, 770.105 909.835 C 738.269 891.058, 725.030 884, 721.645 884 C 720.182 884, 718.594 884.971, 717.615 886.465 M 1054.562 928.309 C 1053.497 928.964, 1051.485 930.807, 1050.093 932.405 C 1048.700 934.003, 1044.275 937.741, 1040.258 940.712 C 1036.240 943.682, 1031.775 948, 1030.335 950.306 C 1023.027 962.009, 1019.391 966.117, 998.785 985.947 C 986.528 997.743, 965.250 1018.244, 951.500 1031.505 C 937.750 1044.766, 923.350 1058.482, 919.500 1061.986 C 915.650 1065.489, 907.782 1073.018, 902.016 1078.717 C 896.250 1084.416, 890.548 1089.326, 889.343 1089.629 C 887.884 1089.995, 884.877 1088.857, 880.327 1086.218 C 876.572 1084.040, 870.350 1080.560, 866.500 1078.486 C 862.650 1076.411, 856.575 1072.838, 853 1070.545 C 845.222 1065.557, 834.962 1059.638, 813.543 1047.781 C 804.767 1042.923, 797.342 1038.612, 797.043 1038.200 C 796.168 1036.994, 781.847 1029, 780.562 1029 C 779.917 1029, 777.839 1027.855, 775.944 1026.455 C 774.050 1025.055, 768.225 1021.622, 763 1018.826 C 757.775 1016.030, 752.825 1013.168, 752 1012.465 C 751.175 1011.763, 745.550 1008.624, 739.500 1005.491 C 733.450 1002.358, 726.129 998.236, 723.231 996.331 C 720.333 994.427, 716.478 992.627, 714.663 992.333 C 711.858 991.878, 711.089 992.215, 709.538 994.583 C 708.534 996.115, 705.951 999.147, 703.799 1001.321 L 699.886 1005.274 704.566 1009.510 C 709.249 1013.748, 717.786 1019.233, 730 1025.849 C 739.258 1030.864, 753.724 1039.288, 759.024 1042.751 C 761.513 1044.376, 765.669 1046.645, 768.262 1047.792 C 770.854 1048.938, 775.343 1051.425, 778.237 1053.318 C 783.705 1056.894, 802.007 1067.354, 815 1074.327 C 819.125 1076.541, 824.525 1079.602, 827 1081.130 C 834.746 1085.910, 854.073 1097.076, 864.500 1102.796 C 870 1105.813, 877.825 1110.468, 881.889 1113.141 C 890.751 1118.970, 893.824 1119.309, 897.742 1114.891 C 899.259 1113.181, 904.099 1108.344, 908.498 1104.141 C 912.897 1099.939, 918.297 1094.674, 920.498 1092.442 C 926.764 1086.089, 987.315 1027.590, 1021.521 994.841 C 1038.559 978.529, 1053.601 963.691, 1054.946 961.867 C 1057.124 958.914, 1057.516 956.904, 1058.526 943.525 C 1059.149 935.261, 1059.484 928.163, 1059.271 927.750 C 1058.722 926.691, 1056.828 926.916, 1054.562 928.309"
        stroke="none" fill="#006064" fill-rule="evenodd"></path>
    <path
        d="M 726.500 505.629 C 717.783 507.946, 710.518 510.607, 704.333 513.748 L 697.071 517.437 690.286 515.626 C 681.333 513.236, 671.120 512.558, 662.500 513.781 C 649.635 515.606, 633.047 523.505, 624.078 532.076 C 620.552 535.446, 616.115 536.937, 609.497 536.976 C 599.905 537.033, 585.454 542.824, 573.506 551.399 C 562.441 559.340, 557.804 565.418, 551.612 580.098 C 548.888 586.556, 548.678 586.769, 541.729 590.098 C 532.330 594.602, 519.137 607.275, 515.440 615.351 C 511.754 623.401, 509.295 632.665, 508.453 641.673 C 507.802 648.636, 507.341 649.941, 504.275 653.500 C 499.509 659.031, 491.444 675.899, 489.018 685.410 C 487.510 691.320, 487 696.563, 487 706.145 C 487 718.210, 487.213 719.608, 490.598 729.724 C 494.549 741.533, 496.098 744.955, 498.647 747.504 C 499.578 748.435, 502.264 751.675, 504.616 754.704 C 509.602 761.125, 514.226 764.715, 524.822 770.392 L 532.500 774.507 533.728 780.003 C 535.798 789.272, 538 794.971, 542.340 802.288 C 551.955 818.499, 570.838 832.338, 588.921 836.425 C 599.810 838.885, 617.629 838.715, 626 836.069 C 636.576 832.727, 636.408 832.433, 632.140 846.844 C 628.574 858.881, 623.858 882.751, 623.654 889.795 L 623.500 895.089 643.388 895.073 C 654.327 895.064, 663.407 894.927, 663.566 894.768 C 663.724 894.609, 667.035 887.621, 670.922 879.239 C 676.811 866.539, 687.495 847.914, 689.988 846 C 691.480 844.855, 698.766 834.312, 699.361 832.437 C 699.716 831.319, 701.897 828.401, 704.209 825.952 C 706.520 823.504, 710.668 818.800, 713.428 815.500 C 716.187 812.200, 719.807 808.062, 721.472 806.303 C 723.137 804.545, 726.300 801.091, 728.500 798.627 C 732.885 793.716, 734.593 793.221, 739.110 795.557 C 743.958 798.064, 758.886 800.956, 767 800.961 C 786.597 800.972, 803.005 795.228, 815.138 784.111 C 822.943 776.958, 828.371 767.380, 832.556 753.372 L 835.283 744.245 852.392 743.743 C 871.247 743.189, 873.656 742.627, 889.202 735.150 C 897.983 730.927, 902.939 727.155, 912.190 717.651 C 919.653 709.985, 923.859 702.723, 927.917 690.500 C 931.115 680.865, 931.235 679.934, 931.194 665 C 931.171 656.475, 930.685 647.168, 930.115 644.319 C 927.590 631.703, 919.231 615.356, 911.088 607.110 C 905.417 601.367, 893.713 591, 892.900 591 C 892.493 591, 891.377 588.642, 890.420 585.759 C 887.824 577.943, 880.011 565.375, 872.988 557.721 C 866.366 550.502, 851.781 540.252, 841.500 535.592 C 830.471 530.592, 818.077 528, 805.202 528 C 794.841 528, 793.276 527.763, 790.319 525.750 C 788.501 524.513, 787.011 523.203, 787.007 522.839 C 786.991 521.301, 768.609 510.743, 761.853 508.391 C 755.782 506.279, 752.233 505.768, 741.500 505.465 C 734.350 505.263, 727.600 505.337, 726.500 505.629 M 786.741 589.431 C 782.069 591.096, 780.591 592.307, 777.881 596.693 C 776.100 599.575, 775.828 601.168, 776.276 606.109 L 776.815 612.056 767.658 621.778 C 762.621 627.125, 751.819 638.813, 743.653 647.750 C 735.488 656.688, 728.693 664, 728.553 664 C 728.413 664, 726.910 663.516, 725.214 662.925 C 722.678 662.041, 721.295 662.218, 717.437 663.925 C 711.805 666.416, 709.663 666.521, 707.549 664.406 C 706.090 662.947, 701.390 660.273, 680 648.733 C 672.081 644.461, 657.188 636.291, 645.500 629.806 C 641.650 627.670, 636.184 624.743, 633.353 623.303 C 628.759 620.966, 628.137 620.259, 627.574 616.737 C 626.360 609.148, 621.284 603.157, 614.759 601.615 C 611.338 600.806, 604.206 602.559, 601.327 604.917 C 594.838 610.230, 594.278 623.384, 600.267 629.778 C 602.278 631.924, 602.328 632.387, 601.131 637.778 C 600.432 640.925, 599.460 646.650, 598.970 650.500 C 598.481 654.350, 597.605 659.075, 597.023 661 C 596.441 662.925, 595.086 669.225, 594.013 675 C 592.004 685.808, 588.112 704.386, 585.867 713.884 C 584.722 718.728, 584.110 719.566, 579.763 722.241 C 571.617 727.253, 568.861 735.909, 572.903 743.790 C 575.920 749.673, 579.294 752.226, 584.746 752.750 C 591.166 753.366, 596.141 751.169, 599.820 746.090 L 602.763 742.027 678.880 741.806 L 754.996 741.585 759.748 746.709 C 764.885 752.248, 768.993 753.787, 775.424 752.580 C 779.047 751.901, 784.380 746.761, 786.067 742.324 C 789.876 732.307, 782.152 721, 771.500 721 C 766.794 721, 760.416 724.328, 758.645 727.708 L 757.232 730.405 679.866 730.148 L 602.500 729.890 601 727.717 C 600.175 726.521, 598.651 724.684, 597.612 723.634 C 595.762 721.762, 595.767 721.545, 597.888 712.612 C 600.094 703.317, 601.907 694.255, 606.494 669.597 C 607.917 661.950, 610.203 650.907, 611.575 645.057 C 614.067 634.429, 614.072 634.419, 618.284 632.143 L 622.500 629.865 631.481 634.550 C 636.421 637.127, 642.946 640.854, 645.981 642.833 C 649.017 644.812, 656.900 649.180, 663.500 652.538 C 677.624 659.726, 694.625 669.029, 701.093 673.109 C 704.710 675.391, 705.952 676.909, 706.940 680.253 C 709.384 688.523, 716.346 694.989, 722.816 694.996 C 726.862 695.001, 729.313 693.753, 733.515 689.551 C 737.418 685.649, 739.113 680.910, 738.762 674.880 C 738.501 670.381, 738.547 670.313, 751.500 656.049 C 758.650 648.175, 769.144 636.730, 774.820 630.616 L 785.141 619.500 791.320 619.444 C 794.719 619.413, 798.215 619.055, 799.088 618.649 C 800.682 617.908, 802.434 619.316, 835 647.510 L 846.500 657.466 846.234 661.983 C 846.034 665.391, 846.647 667.721, 848.734 671.475 C 852.267 677.831, 854.848 679.171, 862.733 678.745 C 868.020 678.459, 869.436 677.959, 872.072 675.454 C 876.303 671.431, 878 667.865, 878 663 C 878 657.633, 875.844 653.646, 871.257 650.529 C 868.059 648.355, 866.434 648, 859.699 648 L 851.863 648 838.829 636.250 C 831.661 629.788, 824.773 623.825, 823.523 623 C 822.273 622.175, 818.055 618.800, 814.149 615.500 L 807.048 609.500 807.020 604 C 806.975 595.084, 802.787 590.156, 794 588.679 C 792.042 588.350, 788.843 588.681, 786.741 589.431 M 1573.500 765.024 C 1554.985 768.088, 1539.828 775.487, 1525.733 788.343 C 1514.737 798.373, 1507.590 808.773, 1502.262 822.500 C 1497.385 835.063, 1496.495 840.200, 1496.632 855 C 1496.729 865.496, 1497.200 869.874, 1498.750 874.674 C 1505.740 896.328, 1525.519 914.736, 1547.612 920.150 C 1559.652 923.100, 1583.830 923.341, 1595 920.622 C 1616.455 915.400, 1621.159 912.928, 1639.599 897.182 C 1652.638 886.048, 1661.618 869.583, 1666.016 848.750 C 1674.970 806.332, 1650.122 771, 1606.814 764.570 C 1593.707 762.623, 1587.495 762.708, 1573.500 765.024 M 1203.579 771.250 C 1203.207 773.587, 1202.265 777.384, 1201.485 779.686 C 1199.999 784.073, 1197.592 795.056, 1193.528 816 C 1192.193 822.875, 1189.478 835.925, 1187.493 845 C 1185.509 854.075, 1183.252 864.875, 1182.477 869 C 1181.703 873.125, 1179.464 885.050, 1177.502 895.500 C 1175.540 905.950, 1173.950 915.662, 1173.968 917.082 L 1174 919.663 1191.450 919.582 C 1202.033 919.532, 1209.307 919.093, 1209.935 918.465 C 1210.505 917.896, 1211.420 914.971, 1211.971 911.965 C 1212.521 908.959, 1214.406 899.390, 1216.159 890.701 L 1219.347 874.902 1240.923 875.111 C 1267.024 875.365, 1276.136 874.616, 1286.094 871.395 C 1298.277 867.456, 1309.951 858.802, 1316.967 848.511 C 1320.553 843.252, 1324.527 833.062, 1326.052 825.216 C 1329.098 809.546, 1324.209 789.708, 1315.352 781.796 C 1310.929 777.845, 1297.920 771.607, 1289.500 769.400 C 1280.808 767.121, 1279.193 767.039, 1242.378 767.020 L 1204.256 767 1203.579 771.250 M 1358.080 780.250 C 1356.847 787.538, 1355.209 796.425, 1354.441 800 C 1353.673 803.575, 1351.218 815.500, 1348.985 826.500 C 1346.753 837.500, 1343.382 853.475, 1341.495 862 C 1333.722 897.113, 1330.921 911.626, 1331.203 915.326 L 1331.500 919.233 1345 919.442 C 1363.080 919.723, 1366.940 919.248, 1368.096 916.602 C 1368.952 914.641, 1373.979 892.122, 1376.216 880.224 L 1377.208 874.948 1391.785 875.224 L 1406.362 875.500 1412.431 886.757 C 1415.769 892.949, 1420.975 902.623, 1424 908.255 C 1430.539 920.429, 1429.099 919.854, 1453.250 919.942 C 1466.760 919.992, 1469 919.782, 1469 918.467 C 1469 916.613, 1464.986 908.541, 1461.535 903.456 C 1457.205 897.076, 1446 874.252, 1446.004 871.821 C 1446.007 869.999, 1447.014 869.086, 1450.690 867.574 C 1455.512 865.590, 1469.952 854.503, 1473.500 850.060 C 1484.859 835.834, 1487.734 809.931, 1479.852 792.830 C 1474.394 780.988, 1463.927 773.985, 1444.090 768.899 C 1437.445 767.196, 1432.739 767, 1398.501 767 L 1360.321 767 1358.080 780.250 M 1234.655 797.750 C 1233.952 798.890, 1226 840.424, 1226 842.958 L 1226 845.175 1246.750 844.832 C 1267.084 844.495, 1267.623 844.432, 1273.651 841.652 C 1280.871 838.323, 1284.157 835.178, 1286.867 829 C 1291.456 818.543, 1290.523 811.204, 1283.653 803.721 C 1280.062 799.811, 1278.686 799.043, 1273.564 798.096 C 1266.912 796.867, 1235.373 796.586, 1234.655 797.750 M 1387.747 820.140 C 1385.133 832.988, 1382.996 843.883, 1382.997 844.351 C 1382.999 844.819, 1392.338 845.044, 1403.750 844.851 C 1423.948 844.509, 1424.646 844.428, 1430 841.791 C 1442.859 835.457, 1449.329 824.436, 1447.123 812.627 C 1446.052 806.895, 1442.357 802.593, 1436 799.674 C 1432.068 797.869, 1429.040 797.556, 1412 797.194 L 1392.500 796.780 1387.747 820.140 M 1573 798.874 C 1560.117 802.239, 1549.025 812.270, 1541.180 827.647 C 1533.235 843.221, 1534.785 866.379, 1544.534 877.769 C 1553.663 888.434, 1575.805 892.071, 1593.557 885.820 C 1602.734 882.588, 1607.167 879.485, 1614.158 871.400 C 1624.617 859.305, 1628 849.885, 1628 832.863 C 1628 823.319, 1627.409 821.301, 1622.161 812.917 C 1617.995 806.262, 1610.098 800.378, 1602.680 798.403 C 1595.720 796.550, 1581.003 796.783, 1573 798.874"
        stroke="none" fill="#26a69a" fill-rule="evenodd"></path>
</svg>